G04 #@! TF.GenerationSoftware,KiCad,Pcbnew,(5.1.5)-3*
G04 #@! TF.CreationDate,2020-04-11T23:56:02-04:00*
G04 #@! TF.ProjectId,ventilator_shield,76656e74-696c-4617-946f-725f73686965,rev?*
G04 #@! TF.SameCoordinates,Original*
G04 #@! TF.FileFunction,Legend,Bot*
G04 #@! TF.FilePolarity,Positive*
%FSLAX46Y46*%
G04 Gerber Fmt 4.6, Leading zero omitted, Abs format (unit mm)*
G04 Created by KiCad (PCBNEW (5.1.5)-3) date 2020-04-11 23:56:02*
%MOMM*%
%LPD*%
G04 APERTURE LIST*
%ADD10C,0.150000*%
%ADD11C,0.120000*%
G04 APERTURE END LIST*
D10*
X183606314Y-119577348D02*
X182844409Y-119577348D01*
X183225361Y-119958300D02*
X183225361Y-119196396D01*
X181892028Y-118958300D02*
X182368219Y-118958300D01*
X182415838Y-119434491D01*
X182368219Y-119386872D01*
X182272980Y-119339253D01*
X182034885Y-119339253D01*
X181939647Y-119386872D01*
X181892028Y-119434491D01*
X181844409Y-119529729D01*
X181844409Y-119767824D01*
X181892028Y-119863062D01*
X181939647Y-119910681D01*
X182034885Y-119958300D01*
X182272980Y-119958300D01*
X182368219Y-119910681D01*
X182415838Y-119863062D01*
X181558695Y-118958300D02*
X181225361Y-119958300D01*
X180892028Y-118958300D01*
X184893714Y-72143348D02*
X184131809Y-72143348D01*
X184512761Y-72524300D02*
X184512761Y-71762396D01*
X183179428Y-71524300D02*
X183655619Y-71524300D01*
X183703238Y-72000491D01*
X183655619Y-71952872D01*
X183560380Y-71905253D01*
X183322285Y-71905253D01*
X183227047Y-71952872D01*
X183179428Y-72000491D01*
X183131809Y-72095729D01*
X183131809Y-72333824D01*
X183179428Y-72429062D01*
X183227047Y-72476681D01*
X183322285Y-72524300D01*
X183560380Y-72524300D01*
X183655619Y-72476681D01*
X183703238Y-72429062D01*
X182846095Y-71524300D02*
X182512761Y-72524300D01*
X182179428Y-71524300D01*
X181846095Y-72524300D02*
X181846095Y-71524300D01*
X181465142Y-71524300D01*
X181369904Y-71571920D01*
X181322285Y-71619539D01*
X181274666Y-71714777D01*
X181274666Y-71857634D01*
X181322285Y-71952872D01*
X181369904Y-72000491D01*
X181465142Y-72048110D01*
X181846095Y-72048110D01*
X188012761Y-74555253D02*
X188060380Y-74507634D01*
X188155619Y-74364777D01*
X188203238Y-74269539D01*
X188250857Y-74126681D01*
X188298476Y-73888586D01*
X188298476Y-73698110D01*
X188250857Y-73460015D01*
X188203238Y-73317158D01*
X188155619Y-73221920D01*
X188060380Y-73079062D01*
X188012761Y-73031443D01*
X187679428Y-74126681D02*
X187584190Y-74174300D01*
X187393714Y-74174300D01*
X187298476Y-74126681D01*
X187250857Y-74031443D01*
X187250857Y-73983824D01*
X187298476Y-73888586D01*
X187393714Y-73840967D01*
X187536571Y-73840967D01*
X187631809Y-73793348D01*
X187679428Y-73698110D01*
X187679428Y-73650491D01*
X187631809Y-73555253D01*
X187536571Y-73507634D01*
X187393714Y-73507634D01*
X187298476Y-73555253D01*
X186441333Y-74126681D02*
X186536571Y-74174300D01*
X186727047Y-74174300D01*
X186822285Y-74126681D01*
X186869904Y-74031443D01*
X186869904Y-73650491D01*
X186822285Y-73555253D01*
X186727047Y-73507634D01*
X186536571Y-73507634D01*
X186441333Y-73555253D01*
X186393714Y-73650491D01*
X186393714Y-73745729D01*
X186869904Y-73840967D01*
X185965142Y-74174300D02*
X185965142Y-73507634D01*
X185965142Y-73698110D02*
X185917523Y-73602872D01*
X185869904Y-73555253D01*
X185774666Y-73507634D01*
X185679428Y-73507634D01*
X185441333Y-73507634D02*
X185203238Y-74174300D01*
X184965142Y-73507634D01*
X184441333Y-74174300D02*
X184536571Y-74126681D01*
X184584190Y-74079062D01*
X184631809Y-73983824D01*
X184631809Y-73698110D01*
X184584190Y-73602872D01*
X184536571Y-73555253D01*
X184441333Y-73507634D01*
X184298476Y-73507634D01*
X184203238Y-73555253D01*
X184155619Y-73602872D01*
X184108000Y-73698110D01*
X184108000Y-73983824D01*
X184155619Y-74079062D01*
X184203238Y-74126681D01*
X184298476Y-74174300D01*
X184441333Y-74174300D01*
X182965142Y-74126681D02*
X182869904Y-74174300D01*
X182679428Y-74174300D01*
X182584190Y-74126681D01*
X182536571Y-74031443D01*
X182536571Y-73983824D01*
X182584190Y-73888586D01*
X182679428Y-73840967D01*
X182822285Y-73840967D01*
X182917523Y-73793348D01*
X182965142Y-73698110D01*
X182965142Y-73650491D01*
X182917523Y-73555253D01*
X182822285Y-73507634D01*
X182679428Y-73507634D01*
X182584190Y-73555253D01*
X181679428Y-73507634D02*
X181679428Y-74174300D01*
X182108000Y-73507634D02*
X182108000Y-74031443D01*
X182060380Y-74126681D01*
X181965142Y-74174300D01*
X181822285Y-74174300D01*
X181727047Y-74126681D01*
X181679428Y-74079062D01*
X181203238Y-73507634D02*
X181203238Y-74507634D01*
X181203238Y-73555253D02*
X181108000Y-73507634D01*
X180917523Y-73507634D01*
X180822285Y-73555253D01*
X180774666Y-73602872D01*
X180727047Y-73698110D01*
X180727047Y-73983824D01*
X180774666Y-74079062D01*
X180822285Y-74126681D01*
X180917523Y-74174300D01*
X181108000Y-74174300D01*
X181203238Y-74126681D01*
X180298476Y-73507634D02*
X180298476Y-74507634D01*
X180298476Y-73555253D02*
X180203238Y-73507634D01*
X180012761Y-73507634D01*
X179917523Y-73555253D01*
X179869904Y-73602872D01*
X179822285Y-73698110D01*
X179822285Y-73983824D01*
X179869904Y-74079062D01*
X179917523Y-74126681D01*
X180012761Y-74174300D01*
X180203238Y-74174300D01*
X180298476Y-74126681D01*
X179250857Y-74174300D02*
X179346095Y-74126681D01*
X179393714Y-74031443D01*
X179393714Y-73174300D01*
X178965142Y-73507634D02*
X178727047Y-74174300D01*
X178488952Y-73507634D02*
X178727047Y-74174300D01*
X178822285Y-74412396D01*
X178869904Y-74460015D01*
X178965142Y-74507634D01*
X178203238Y-74555253D02*
X178155619Y-74507634D01*
X178060380Y-74364777D01*
X178012761Y-74269539D01*
X177965142Y-74126681D01*
X177917523Y-73888586D01*
X177917523Y-73698110D01*
X177965142Y-73460015D01*
X178012761Y-73317158D01*
X178060380Y-73221920D01*
X178155619Y-73079062D01*
X178203238Y-73031443D01*
X184107904Y-39948348D02*
X183346000Y-39948348D01*
X183726952Y-40329300D02*
X183726952Y-39567396D01*
X182346000Y-40329300D02*
X182917428Y-40329300D01*
X182631714Y-40329300D02*
X182631714Y-39329300D01*
X182726952Y-39472158D01*
X182822190Y-39567396D01*
X182917428Y-39615015D01*
X181965047Y-39424539D02*
X181917428Y-39376920D01*
X181822190Y-39329300D01*
X181584095Y-39329300D01*
X181488857Y-39376920D01*
X181441238Y-39424539D01*
X181393619Y-39519777D01*
X181393619Y-39615015D01*
X181441238Y-39757872D01*
X182012666Y-40329300D01*
X181393619Y-40329300D01*
X181107904Y-39329300D02*
X180774571Y-40329300D01*
X180441238Y-39329300D01*
D11*
X180650000Y-82034920D02*
X180650000Y-83364920D01*
X181980000Y-82034920D02*
X180650000Y-82034920D01*
X183250000Y-82034920D02*
X183250000Y-84694920D01*
X183250000Y-84694920D02*
X190930000Y-84694920D01*
X183250000Y-82034920D02*
X200380000Y-82034920D01*
X190930000Y-82034920D02*
X190930000Y-84694920D01*
X180650000Y-36034920D02*
X180650000Y-37364920D01*
X181980000Y-36034920D02*
X180650000Y-36034920D01*
X183250000Y-36034920D02*
X183250000Y-38694920D01*
X183250000Y-38694920D02*
X190930000Y-38694920D01*
X183250000Y-36034920D02*
X200380000Y-36034920D01*
X190930000Y-36034920D02*
X190930000Y-38694920D01*
X54842000Y-56134920D02*
X53442000Y-56134920D01*
X53442000Y-53814920D02*
X55342000Y-53814920D01*
X67222000Y-56022920D02*
X65822000Y-56022920D01*
X65822000Y-53702920D02*
X67722000Y-53702920D01*
X94656000Y-91124920D02*
X94656000Y-92454920D01*
X95986000Y-91124920D02*
X94656000Y-91124920D01*
X97256000Y-91124920D02*
X97256000Y-93784920D01*
X97256000Y-93784920D02*
X102396000Y-93784920D01*
X97256000Y-91124920D02*
X102396000Y-91124920D01*
X102396000Y-91124920D02*
X102396000Y-93784920D01*
D10*
X179102380Y-82555396D02*
X179816666Y-82555396D01*
X179959523Y-82507777D01*
X180054761Y-82412539D01*
X180102380Y-82269681D01*
X180102380Y-82174443D01*
X180102380Y-83555396D02*
X180102380Y-82983967D01*
X180102380Y-83269681D02*
X179102380Y-83269681D01*
X179245238Y-83174443D01*
X179340476Y-83079205D01*
X179388095Y-82983967D01*
X180102380Y-84031586D02*
X180102380Y-84222062D01*
X180054761Y-84317300D01*
X180007142Y-84364920D01*
X179864285Y-84460158D01*
X179673809Y-84507777D01*
X179292857Y-84507777D01*
X179197619Y-84460158D01*
X179150000Y-84412539D01*
X179102380Y-84317300D01*
X179102380Y-84126824D01*
X179150000Y-84031586D01*
X179197619Y-83983967D01*
X179292857Y-83936348D01*
X179530952Y-83936348D01*
X179626190Y-83983967D01*
X179673809Y-84031586D01*
X179721428Y-84126824D01*
X179721428Y-84317300D01*
X179673809Y-84412539D01*
X179626190Y-84460158D01*
X179530952Y-84507777D01*
X179102380Y-36555396D02*
X179816666Y-36555396D01*
X179959523Y-36507777D01*
X180054761Y-36412539D01*
X180102380Y-36269681D01*
X180102380Y-36174443D01*
X179197619Y-36983967D02*
X179150000Y-37031586D01*
X179102380Y-37126824D01*
X179102380Y-37364920D01*
X179150000Y-37460158D01*
X179197619Y-37507777D01*
X179292857Y-37555396D01*
X179388095Y-37555396D01*
X179530952Y-37507777D01*
X180102380Y-36936348D01*
X180102380Y-37555396D01*
X179102380Y-38174443D02*
X179102380Y-38269681D01*
X179150000Y-38364920D01*
X179197619Y-38412539D01*
X179292857Y-38460158D01*
X179483333Y-38507777D01*
X179721428Y-38507777D01*
X179911904Y-38460158D01*
X180007142Y-38412539D01*
X180054761Y-38364920D01*
X180102380Y-38269681D01*
X180102380Y-38174443D01*
X180054761Y-38079205D01*
X180007142Y-38031586D01*
X179911904Y-37983967D01*
X179721428Y-37936348D01*
X179483333Y-37936348D01*
X179292857Y-37983967D01*
X179197619Y-38031586D01*
X179150000Y-38079205D01*
X179102380Y-38174443D01*
X54880095Y-53427300D02*
X54880095Y-52427300D01*
X54642000Y-52427300D01*
X54499142Y-52474920D01*
X54403904Y-52570158D01*
X54356285Y-52665396D01*
X54308666Y-52855872D01*
X54308666Y-52998729D01*
X54356285Y-53189205D01*
X54403904Y-53284443D01*
X54499142Y-53379681D01*
X54642000Y-53427300D01*
X54880095Y-53427300D01*
X53975333Y-52427300D02*
X53356285Y-52427300D01*
X53689619Y-52808253D01*
X53546761Y-52808253D01*
X53451523Y-52855872D01*
X53403904Y-52903491D01*
X53356285Y-52998729D01*
X53356285Y-53236824D01*
X53403904Y-53332062D01*
X53451523Y-53379681D01*
X53546761Y-53427300D01*
X53832476Y-53427300D01*
X53927714Y-53379681D01*
X53975333Y-53332062D01*
X67260095Y-53315300D02*
X67260095Y-52315300D01*
X67022000Y-52315300D01*
X66879142Y-52362920D01*
X66783904Y-52458158D01*
X66736285Y-52553396D01*
X66688666Y-52743872D01*
X66688666Y-52886729D01*
X66736285Y-53077205D01*
X66783904Y-53172443D01*
X66879142Y-53267681D01*
X67022000Y-53315300D01*
X67260095Y-53315300D01*
X66307714Y-52410539D02*
X66260095Y-52362920D01*
X66164857Y-52315300D01*
X65926761Y-52315300D01*
X65831523Y-52362920D01*
X65783904Y-52410539D01*
X65736285Y-52505777D01*
X65736285Y-52601015D01*
X65783904Y-52743872D01*
X66355333Y-53315300D01*
X65736285Y-53315300D01*
X93108380Y-91621586D02*
X93822666Y-91621586D01*
X93965523Y-91573967D01*
X94060761Y-91478729D01*
X94108380Y-91335872D01*
X94108380Y-91240634D01*
X94108380Y-92097777D02*
X93108380Y-92097777D01*
X93108380Y-92478729D01*
X93156000Y-92573967D01*
X93203619Y-92621586D01*
X93298857Y-92669205D01*
X93441714Y-92669205D01*
X93536952Y-92621586D01*
X93584571Y-92573967D01*
X93632190Y-92478729D01*
X93632190Y-92097777D01*
X93203619Y-93050158D02*
X93156000Y-93097777D01*
X93108380Y-93193015D01*
X93108380Y-93431110D01*
X93156000Y-93526348D01*
X93203619Y-93573967D01*
X93298857Y-93621586D01*
X93394095Y-93621586D01*
X93536952Y-93573967D01*
X94108380Y-93002539D01*
X94108380Y-93621586D01*
X147881333Y-47593491D02*
X148214666Y-47593491D01*
X148214666Y-48117300D02*
X148214666Y-47117300D01*
X147738476Y-47117300D01*
X147452761Y-47117300D02*
X146833714Y-47117300D01*
X147167047Y-47498253D01*
X147024190Y-47498253D01*
X146928952Y-47545872D01*
X146881333Y-47593491D01*
X146833714Y-47688729D01*
X146833714Y-47926824D01*
X146881333Y-48022062D01*
X146928952Y-48069681D01*
X147024190Y-48117300D01*
X147309904Y-48117300D01*
X147405142Y-48069681D01*
X147452761Y-48022062D01*
M02*
