G04 #@! TF.GenerationSoftware,KiCad,Pcbnew,(5.1.5)-3*
G04 #@! TF.CreationDate,2020-04-11T23:56:02-04:00*
G04 #@! TF.ProjectId,ventilator_shield,76656e74-696c-4617-946f-725f73686965,rev?*
G04 #@! TF.SameCoordinates,Original*
G04 #@! TF.FileFunction,Soldermask,Top*
G04 #@! TF.FilePolarity,Negative*
%FSLAX46Y46*%
G04 Gerber Fmt 4.6, Leading zero omitted, Abs format (unit mm)*
G04 Created by KiCad (PCBNEW (5.1.5)-3) date 2020-04-11 23:56:02*
%MOMM*%
%LPD*%
G04 APERTURE LIST*
%ADD10C,0.100000*%
%ADD11O,1.700000X1.700000*%
%ADD12R,1.700000X1.700000*%
%ADD13C,1.700000*%
%ADD14C,4.300000*%
%ADD15C,3.200000*%
%ADD16R,1.060000X0.650000*%
%ADD17O,1.800000X1.800000*%
%ADD18R,1.800000X1.800000*%
%ADD19O,3.500000X3.500000*%
%ADD20R,0.450000X0.700000*%
%ADD21R,1.220000X0.650000*%
%ADD22R,1.600000X1.600000*%
%ADD23O,1.600000X1.600000*%
%ADD24R,1.750000X1.100000*%
%ADD25R,1.100000X1.750000*%
%ADD26R,6.400000X5.800001*%
%ADD27R,2.200000X1.200000*%
%ADD28R,5.800000X6.400000*%
%ADD29R,1.200000X2.200000*%
%ADD30R,1.000000X2.200000*%
%ADD31C,2.400000*%
%ADD32R,2.400000X2.400000*%
%ADD33O,1.740000X2.200000*%
%ADD34R,1.300000X1.300000*%
%ADD35C,1.300000*%
%ADD36C,3.500000*%
%ADD37C,2.000000*%
%ADD38C,1.727200*%
%ADD39O,1.727200X1.727200*%
%ADD40O,1.727200X2.032000*%
%ADD41C,4.064000*%
G04 APERTURE END LIST*
D10*
G36*
X82356505Y-117156124D02*
G01*
X82380773Y-117159724D01*
X82404572Y-117165685D01*
X82427671Y-117173950D01*
X82449850Y-117184440D01*
X82470893Y-117197052D01*
X82490599Y-117211667D01*
X82508777Y-117228143D01*
X82525253Y-117246321D01*
X82539868Y-117266027D01*
X82552480Y-117287070D01*
X82562970Y-117309249D01*
X82571235Y-117332348D01*
X82577196Y-117356147D01*
X82580796Y-117380415D01*
X82582000Y-117404919D01*
X82582000Y-118304921D01*
X82580796Y-118329425D01*
X82577196Y-118353693D01*
X82571235Y-118377492D01*
X82562970Y-118400591D01*
X82552480Y-118422770D01*
X82539868Y-118443813D01*
X82525253Y-118463519D01*
X82508777Y-118481697D01*
X82490599Y-118498173D01*
X82470893Y-118512788D01*
X82449850Y-118525400D01*
X82427671Y-118535890D01*
X82404572Y-118544155D01*
X82380773Y-118550116D01*
X82356505Y-118553716D01*
X82332001Y-118554920D01*
X81681999Y-118554920D01*
X81657495Y-118553716D01*
X81633227Y-118550116D01*
X81609428Y-118544155D01*
X81586329Y-118535890D01*
X81564150Y-118525400D01*
X81543107Y-118512788D01*
X81523401Y-118498173D01*
X81505223Y-118481697D01*
X81488747Y-118463519D01*
X81474132Y-118443813D01*
X81461520Y-118422770D01*
X81451030Y-118400591D01*
X81442765Y-118377492D01*
X81436804Y-118353693D01*
X81433204Y-118329425D01*
X81432000Y-118304921D01*
X81432000Y-117404919D01*
X81433204Y-117380415D01*
X81436804Y-117356147D01*
X81442765Y-117332348D01*
X81451030Y-117309249D01*
X81461520Y-117287070D01*
X81474132Y-117266027D01*
X81488747Y-117246321D01*
X81505223Y-117228143D01*
X81523401Y-117211667D01*
X81543107Y-117197052D01*
X81564150Y-117184440D01*
X81586329Y-117173950D01*
X81609428Y-117165685D01*
X81633227Y-117159724D01*
X81657495Y-117156124D01*
X81681999Y-117154920D01*
X82332001Y-117154920D01*
X82356505Y-117156124D01*
G37*
G36*
X84406505Y-117156124D02*
G01*
X84430773Y-117159724D01*
X84454572Y-117165685D01*
X84477671Y-117173950D01*
X84499850Y-117184440D01*
X84520893Y-117197052D01*
X84540599Y-117211667D01*
X84558777Y-117228143D01*
X84575253Y-117246321D01*
X84589868Y-117266027D01*
X84602480Y-117287070D01*
X84612970Y-117309249D01*
X84621235Y-117332348D01*
X84627196Y-117356147D01*
X84630796Y-117380415D01*
X84632000Y-117404919D01*
X84632000Y-118304921D01*
X84630796Y-118329425D01*
X84627196Y-118353693D01*
X84621235Y-118377492D01*
X84612970Y-118400591D01*
X84602480Y-118422770D01*
X84589868Y-118443813D01*
X84575253Y-118463519D01*
X84558777Y-118481697D01*
X84540599Y-118498173D01*
X84520893Y-118512788D01*
X84499850Y-118525400D01*
X84477671Y-118535890D01*
X84454572Y-118544155D01*
X84430773Y-118550116D01*
X84406505Y-118553716D01*
X84382001Y-118554920D01*
X83731999Y-118554920D01*
X83707495Y-118553716D01*
X83683227Y-118550116D01*
X83659428Y-118544155D01*
X83636329Y-118535890D01*
X83614150Y-118525400D01*
X83593107Y-118512788D01*
X83573401Y-118498173D01*
X83555223Y-118481697D01*
X83538747Y-118463519D01*
X83524132Y-118443813D01*
X83511520Y-118422770D01*
X83501030Y-118400591D01*
X83492765Y-118377492D01*
X83486804Y-118353693D01*
X83483204Y-118329425D01*
X83482000Y-118304921D01*
X83482000Y-117404919D01*
X83483204Y-117380415D01*
X83486804Y-117356147D01*
X83492765Y-117332348D01*
X83501030Y-117309249D01*
X83511520Y-117287070D01*
X83524132Y-117266027D01*
X83538747Y-117246321D01*
X83555223Y-117228143D01*
X83573401Y-117211667D01*
X83593107Y-117197052D01*
X83614150Y-117184440D01*
X83636329Y-117173950D01*
X83659428Y-117165685D01*
X83683227Y-117159724D01*
X83707495Y-117156124D01*
X83731999Y-117154920D01*
X84382001Y-117154920D01*
X84406505Y-117156124D01*
G37*
G36*
X72379505Y-109666124D02*
G01*
X72403773Y-109669724D01*
X72427572Y-109675685D01*
X72450671Y-109683950D01*
X72472850Y-109694440D01*
X72493893Y-109707052D01*
X72513599Y-109721667D01*
X72531777Y-109738143D01*
X72548253Y-109756321D01*
X72562868Y-109776027D01*
X72575480Y-109797070D01*
X72585970Y-109819249D01*
X72594235Y-109842348D01*
X72600196Y-109866147D01*
X72603796Y-109890415D01*
X72605000Y-109914919D01*
X72605000Y-110814921D01*
X72603796Y-110839425D01*
X72600196Y-110863693D01*
X72594235Y-110887492D01*
X72585970Y-110910591D01*
X72575480Y-110932770D01*
X72562868Y-110953813D01*
X72548253Y-110973519D01*
X72531777Y-110991697D01*
X72513599Y-111008173D01*
X72493893Y-111022788D01*
X72472850Y-111035400D01*
X72450671Y-111045890D01*
X72427572Y-111054155D01*
X72403773Y-111060116D01*
X72379505Y-111063716D01*
X72355001Y-111064920D01*
X71704999Y-111064920D01*
X71680495Y-111063716D01*
X71656227Y-111060116D01*
X71632428Y-111054155D01*
X71609329Y-111045890D01*
X71587150Y-111035400D01*
X71566107Y-111022788D01*
X71546401Y-111008173D01*
X71528223Y-110991697D01*
X71511747Y-110973519D01*
X71497132Y-110953813D01*
X71484520Y-110932770D01*
X71474030Y-110910591D01*
X71465765Y-110887492D01*
X71459804Y-110863693D01*
X71456204Y-110839425D01*
X71455000Y-110814921D01*
X71455000Y-109914919D01*
X71456204Y-109890415D01*
X71459804Y-109866147D01*
X71465765Y-109842348D01*
X71474030Y-109819249D01*
X71484520Y-109797070D01*
X71497132Y-109776027D01*
X71511747Y-109756321D01*
X71528223Y-109738143D01*
X71546401Y-109721667D01*
X71566107Y-109707052D01*
X71587150Y-109694440D01*
X71609329Y-109683950D01*
X71632428Y-109675685D01*
X71656227Y-109669724D01*
X71680495Y-109666124D01*
X71704999Y-109664920D01*
X72355001Y-109664920D01*
X72379505Y-109666124D01*
G37*
G36*
X70329505Y-109666124D02*
G01*
X70353773Y-109669724D01*
X70377572Y-109675685D01*
X70400671Y-109683950D01*
X70422850Y-109694440D01*
X70443893Y-109707052D01*
X70463599Y-109721667D01*
X70481777Y-109738143D01*
X70498253Y-109756321D01*
X70512868Y-109776027D01*
X70525480Y-109797070D01*
X70535970Y-109819249D01*
X70544235Y-109842348D01*
X70550196Y-109866147D01*
X70553796Y-109890415D01*
X70555000Y-109914919D01*
X70555000Y-110814921D01*
X70553796Y-110839425D01*
X70550196Y-110863693D01*
X70544235Y-110887492D01*
X70535970Y-110910591D01*
X70525480Y-110932770D01*
X70512868Y-110953813D01*
X70498253Y-110973519D01*
X70481777Y-110991697D01*
X70463599Y-111008173D01*
X70443893Y-111022788D01*
X70422850Y-111035400D01*
X70400671Y-111045890D01*
X70377572Y-111054155D01*
X70353773Y-111060116D01*
X70329505Y-111063716D01*
X70305001Y-111064920D01*
X69654999Y-111064920D01*
X69630495Y-111063716D01*
X69606227Y-111060116D01*
X69582428Y-111054155D01*
X69559329Y-111045890D01*
X69537150Y-111035400D01*
X69516107Y-111022788D01*
X69496401Y-111008173D01*
X69478223Y-110991697D01*
X69461747Y-110973519D01*
X69447132Y-110953813D01*
X69434520Y-110932770D01*
X69424030Y-110910591D01*
X69415765Y-110887492D01*
X69409804Y-110863693D01*
X69406204Y-110839425D01*
X69405000Y-110814921D01*
X69405000Y-109914919D01*
X69406204Y-109890415D01*
X69409804Y-109866147D01*
X69415765Y-109842348D01*
X69424030Y-109819249D01*
X69434520Y-109797070D01*
X69447132Y-109776027D01*
X69461747Y-109756321D01*
X69478223Y-109738143D01*
X69496401Y-109721667D01*
X69516107Y-109707052D01*
X69537150Y-109694440D01*
X69559329Y-109683950D01*
X69582428Y-109675685D01*
X69606227Y-109669724D01*
X69630495Y-109666124D01*
X69654999Y-109664920D01*
X70305001Y-109664920D01*
X70329505Y-109666124D01*
G37*
G36*
X57990505Y-109536124D02*
G01*
X58014773Y-109539724D01*
X58038572Y-109545685D01*
X58061671Y-109553950D01*
X58083850Y-109564440D01*
X58104893Y-109577052D01*
X58124599Y-109591667D01*
X58142777Y-109608143D01*
X58159253Y-109626321D01*
X58173868Y-109646027D01*
X58186480Y-109667070D01*
X58196970Y-109689249D01*
X58205235Y-109712348D01*
X58211196Y-109736147D01*
X58214796Y-109760415D01*
X58216000Y-109784919D01*
X58216000Y-110684921D01*
X58214796Y-110709425D01*
X58211196Y-110733693D01*
X58205235Y-110757492D01*
X58196970Y-110780591D01*
X58186480Y-110802770D01*
X58173868Y-110823813D01*
X58159253Y-110843519D01*
X58142777Y-110861697D01*
X58124599Y-110878173D01*
X58104893Y-110892788D01*
X58083850Y-110905400D01*
X58061671Y-110915890D01*
X58038572Y-110924155D01*
X58014773Y-110930116D01*
X57990505Y-110933716D01*
X57966001Y-110934920D01*
X57315999Y-110934920D01*
X57291495Y-110933716D01*
X57267227Y-110930116D01*
X57243428Y-110924155D01*
X57220329Y-110915890D01*
X57198150Y-110905400D01*
X57177107Y-110892788D01*
X57157401Y-110878173D01*
X57139223Y-110861697D01*
X57122747Y-110843519D01*
X57108132Y-110823813D01*
X57095520Y-110802770D01*
X57085030Y-110780591D01*
X57076765Y-110757492D01*
X57070804Y-110733693D01*
X57067204Y-110709425D01*
X57066000Y-110684921D01*
X57066000Y-109784919D01*
X57067204Y-109760415D01*
X57070804Y-109736147D01*
X57076765Y-109712348D01*
X57085030Y-109689249D01*
X57095520Y-109667070D01*
X57108132Y-109646027D01*
X57122747Y-109626321D01*
X57139223Y-109608143D01*
X57157401Y-109591667D01*
X57177107Y-109577052D01*
X57198150Y-109564440D01*
X57220329Y-109553950D01*
X57243428Y-109545685D01*
X57267227Y-109539724D01*
X57291495Y-109536124D01*
X57315999Y-109534920D01*
X57966001Y-109534920D01*
X57990505Y-109536124D01*
G37*
G36*
X55940505Y-109536124D02*
G01*
X55964773Y-109539724D01*
X55988572Y-109545685D01*
X56011671Y-109553950D01*
X56033850Y-109564440D01*
X56054893Y-109577052D01*
X56074599Y-109591667D01*
X56092777Y-109608143D01*
X56109253Y-109626321D01*
X56123868Y-109646027D01*
X56136480Y-109667070D01*
X56146970Y-109689249D01*
X56155235Y-109712348D01*
X56161196Y-109736147D01*
X56164796Y-109760415D01*
X56166000Y-109784919D01*
X56166000Y-110684921D01*
X56164796Y-110709425D01*
X56161196Y-110733693D01*
X56155235Y-110757492D01*
X56146970Y-110780591D01*
X56136480Y-110802770D01*
X56123868Y-110823813D01*
X56109253Y-110843519D01*
X56092777Y-110861697D01*
X56074599Y-110878173D01*
X56054893Y-110892788D01*
X56033850Y-110905400D01*
X56011671Y-110915890D01*
X55988572Y-110924155D01*
X55964773Y-110930116D01*
X55940505Y-110933716D01*
X55916001Y-110934920D01*
X55265999Y-110934920D01*
X55241495Y-110933716D01*
X55217227Y-110930116D01*
X55193428Y-110924155D01*
X55170329Y-110915890D01*
X55148150Y-110905400D01*
X55127107Y-110892788D01*
X55107401Y-110878173D01*
X55089223Y-110861697D01*
X55072747Y-110843519D01*
X55058132Y-110823813D01*
X55045520Y-110802770D01*
X55035030Y-110780591D01*
X55026765Y-110757492D01*
X55020804Y-110733693D01*
X55017204Y-110709425D01*
X55016000Y-110684921D01*
X55016000Y-109784919D01*
X55017204Y-109760415D01*
X55020804Y-109736147D01*
X55026765Y-109712348D01*
X55035030Y-109689249D01*
X55045520Y-109667070D01*
X55058132Y-109646027D01*
X55072747Y-109626321D01*
X55089223Y-109608143D01*
X55107401Y-109591667D01*
X55127107Y-109577052D01*
X55148150Y-109564440D01*
X55170329Y-109553950D01*
X55193428Y-109545685D01*
X55217227Y-109539724D01*
X55241495Y-109536124D01*
X55265999Y-109534920D01*
X55916001Y-109534920D01*
X55940505Y-109536124D01*
G37*
D11*
X198980000Y-83364920D03*
X198980000Y-122364920D03*
D12*
X181980000Y-122364920D03*
D13*
X181980000Y-83364920D03*
D11*
X198980000Y-37364920D03*
X198980000Y-76364920D03*
D12*
X181980000Y-76364920D03*
D13*
X181980000Y-37364920D03*
D14*
X202480000Y-54364920D03*
X174980000Y-54364920D03*
X174980000Y-109364920D03*
X202480000Y-109364920D03*
D15*
X204980000Y-37364920D03*
X204980000Y-131364920D03*
X50980000Y-37364920D03*
D16*
X78544000Y-61532920D03*
X78544000Y-63432920D03*
X76344000Y-63432920D03*
X76344000Y-62482920D03*
X76344000Y-61532920D03*
D17*
X52200000Y-47364920D03*
X53470000Y-49904920D03*
X54740000Y-47364920D03*
X56010000Y-49904920D03*
X57280000Y-47364920D03*
X58550000Y-49904920D03*
X59820000Y-47364920D03*
X61090000Y-49904920D03*
X62360000Y-47364920D03*
X63630000Y-49904920D03*
X64900000Y-47364920D03*
X66170000Y-49904920D03*
X67440000Y-47364920D03*
X68710000Y-49904920D03*
D18*
X69980000Y-47364920D03*
D19*
X61090000Y-67904920D03*
D10*
G36*
X138236505Y-49084124D02*
G01*
X138260773Y-49087724D01*
X138284572Y-49093685D01*
X138307671Y-49101950D01*
X138329850Y-49112440D01*
X138350893Y-49125052D01*
X138370599Y-49139667D01*
X138388777Y-49156143D01*
X138405253Y-49174321D01*
X138419868Y-49194027D01*
X138432480Y-49215070D01*
X138442970Y-49237249D01*
X138451235Y-49260348D01*
X138457196Y-49284147D01*
X138460796Y-49308415D01*
X138462000Y-49332919D01*
X138462000Y-50232921D01*
X138460796Y-50257425D01*
X138457196Y-50281693D01*
X138451235Y-50305492D01*
X138442970Y-50328591D01*
X138432480Y-50350770D01*
X138419868Y-50371813D01*
X138405253Y-50391519D01*
X138388777Y-50409697D01*
X138370599Y-50426173D01*
X138350893Y-50440788D01*
X138329850Y-50453400D01*
X138307671Y-50463890D01*
X138284572Y-50472155D01*
X138260773Y-50478116D01*
X138236505Y-50481716D01*
X138212001Y-50482920D01*
X137561999Y-50482920D01*
X137537495Y-50481716D01*
X137513227Y-50478116D01*
X137489428Y-50472155D01*
X137466329Y-50463890D01*
X137444150Y-50453400D01*
X137423107Y-50440788D01*
X137403401Y-50426173D01*
X137385223Y-50409697D01*
X137368747Y-50391519D01*
X137354132Y-50371813D01*
X137341520Y-50350770D01*
X137331030Y-50328591D01*
X137322765Y-50305492D01*
X137316804Y-50281693D01*
X137313204Y-50257425D01*
X137312000Y-50232921D01*
X137312000Y-49332919D01*
X137313204Y-49308415D01*
X137316804Y-49284147D01*
X137322765Y-49260348D01*
X137331030Y-49237249D01*
X137341520Y-49215070D01*
X137354132Y-49194027D01*
X137368747Y-49174321D01*
X137385223Y-49156143D01*
X137403401Y-49139667D01*
X137423107Y-49125052D01*
X137444150Y-49112440D01*
X137466329Y-49101950D01*
X137489428Y-49093685D01*
X137513227Y-49087724D01*
X137537495Y-49084124D01*
X137561999Y-49082920D01*
X138212001Y-49082920D01*
X138236505Y-49084124D01*
G37*
G36*
X140286505Y-49084124D02*
G01*
X140310773Y-49087724D01*
X140334572Y-49093685D01*
X140357671Y-49101950D01*
X140379850Y-49112440D01*
X140400893Y-49125052D01*
X140420599Y-49139667D01*
X140438777Y-49156143D01*
X140455253Y-49174321D01*
X140469868Y-49194027D01*
X140482480Y-49215070D01*
X140492970Y-49237249D01*
X140501235Y-49260348D01*
X140507196Y-49284147D01*
X140510796Y-49308415D01*
X140512000Y-49332919D01*
X140512000Y-50232921D01*
X140510796Y-50257425D01*
X140507196Y-50281693D01*
X140501235Y-50305492D01*
X140492970Y-50328591D01*
X140482480Y-50350770D01*
X140469868Y-50371813D01*
X140455253Y-50391519D01*
X140438777Y-50409697D01*
X140420599Y-50426173D01*
X140400893Y-50440788D01*
X140379850Y-50453400D01*
X140357671Y-50463890D01*
X140334572Y-50472155D01*
X140310773Y-50478116D01*
X140286505Y-50481716D01*
X140262001Y-50482920D01*
X139611999Y-50482920D01*
X139587495Y-50481716D01*
X139563227Y-50478116D01*
X139539428Y-50472155D01*
X139516329Y-50463890D01*
X139494150Y-50453400D01*
X139473107Y-50440788D01*
X139453401Y-50426173D01*
X139435223Y-50409697D01*
X139418747Y-50391519D01*
X139404132Y-50371813D01*
X139391520Y-50350770D01*
X139381030Y-50328591D01*
X139372765Y-50305492D01*
X139366804Y-50281693D01*
X139363204Y-50257425D01*
X139362000Y-50232921D01*
X139362000Y-49332919D01*
X139363204Y-49308415D01*
X139366804Y-49284147D01*
X139372765Y-49260348D01*
X139381030Y-49237249D01*
X139391520Y-49215070D01*
X139404132Y-49194027D01*
X139418747Y-49174321D01*
X139435223Y-49156143D01*
X139453401Y-49139667D01*
X139473107Y-49125052D01*
X139494150Y-49112440D01*
X139516329Y-49101950D01*
X139539428Y-49093685D01*
X139563227Y-49087724D01*
X139587495Y-49084124D01*
X139611999Y-49082920D01*
X140262001Y-49082920D01*
X140286505Y-49084124D01*
G37*
D20*
X114020000Y-47734920D03*
X113370000Y-45734920D03*
X114670000Y-45734920D03*
D21*
X126290000Y-103414920D03*
X126290000Y-105314920D03*
X123670000Y-105314920D03*
X123670000Y-104364920D03*
X123670000Y-103414920D03*
D16*
X135948000Y-57722920D03*
X135948000Y-59622920D03*
X133748000Y-59622920D03*
X133748000Y-58672920D03*
X133748000Y-57722920D03*
D21*
X81960000Y-113028920D03*
X81960000Y-114928920D03*
X79340000Y-114928920D03*
X79340000Y-113978920D03*
X79340000Y-113028920D03*
D22*
X52980000Y-107364920D03*
D23*
X60600000Y-94064920D03*
X55520000Y-107364920D03*
X58060000Y-94064920D03*
X58060000Y-107364920D03*
X55520000Y-94064920D03*
X60600000Y-107364920D03*
X52980000Y-94064920D03*
D22*
X65980000Y-107364920D03*
D23*
X73600000Y-94064920D03*
X68520000Y-107364920D03*
X71060000Y-94064920D03*
X71060000Y-107364920D03*
X68520000Y-94064920D03*
X73600000Y-107364920D03*
X65980000Y-94064920D03*
D10*
G36*
X130750505Y-95428124D02*
G01*
X130774773Y-95431724D01*
X130798572Y-95437685D01*
X130821671Y-95445950D01*
X130843850Y-95456440D01*
X130864893Y-95469052D01*
X130884599Y-95483667D01*
X130902777Y-95500143D01*
X130919253Y-95518321D01*
X130933868Y-95538027D01*
X130946480Y-95559070D01*
X130956970Y-95581249D01*
X130965235Y-95604348D01*
X130971196Y-95628147D01*
X130974796Y-95652415D01*
X130976000Y-95676919D01*
X130976000Y-96326921D01*
X130974796Y-96351425D01*
X130971196Y-96375693D01*
X130965235Y-96399492D01*
X130956970Y-96422591D01*
X130946480Y-96444770D01*
X130933868Y-96465813D01*
X130919253Y-96485519D01*
X130902777Y-96503697D01*
X130884599Y-96520173D01*
X130864893Y-96534788D01*
X130843850Y-96547400D01*
X130821671Y-96557890D01*
X130798572Y-96566155D01*
X130774773Y-96572116D01*
X130750505Y-96575716D01*
X130726001Y-96576920D01*
X129825999Y-96576920D01*
X129801495Y-96575716D01*
X129777227Y-96572116D01*
X129753428Y-96566155D01*
X129730329Y-96557890D01*
X129708150Y-96547400D01*
X129687107Y-96534788D01*
X129667401Y-96520173D01*
X129649223Y-96503697D01*
X129632747Y-96485519D01*
X129618132Y-96465813D01*
X129605520Y-96444770D01*
X129595030Y-96422591D01*
X129586765Y-96399492D01*
X129580804Y-96375693D01*
X129577204Y-96351425D01*
X129576000Y-96326921D01*
X129576000Y-95676919D01*
X129577204Y-95652415D01*
X129580804Y-95628147D01*
X129586765Y-95604348D01*
X129595030Y-95581249D01*
X129605520Y-95559070D01*
X129618132Y-95538027D01*
X129632747Y-95518321D01*
X129649223Y-95500143D01*
X129667401Y-95483667D01*
X129687107Y-95469052D01*
X129708150Y-95456440D01*
X129730329Y-95445950D01*
X129753428Y-95437685D01*
X129777227Y-95431724D01*
X129801495Y-95428124D01*
X129825999Y-95426920D01*
X130726001Y-95426920D01*
X130750505Y-95428124D01*
G37*
G36*
X130750505Y-97478124D02*
G01*
X130774773Y-97481724D01*
X130798572Y-97487685D01*
X130821671Y-97495950D01*
X130843850Y-97506440D01*
X130864893Y-97519052D01*
X130884599Y-97533667D01*
X130902777Y-97550143D01*
X130919253Y-97568321D01*
X130933868Y-97588027D01*
X130946480Y-97609070D01*
X130956970Y-97631249D01*
X130965235Y-97654348D01*
X130971196Y-97678147D01*
X130974796Y-97702415D01*
X130976000Y-97726919D01*
X130976000Y-98376921D01*
X130974796Y-98401425D01*
X130971196Y-98425693D01*
X130965235Y-98449492D01*
X130956970Y-98472591D01*
X130946480Y-98494770D01*
X130933868Y-98515813D01*
X130919253Y-98535519D01*
X130902777Y-98553697D01*
X130884599Y-98570173D01*
X130864893Y-98584788D01*
X130843850Y-98597400D01*
X130821671Y-98607890D01*
X130798572Y-98616155D01*
X130774773Y-98622116D01*
X130750505Y-98625716D01*
X130726001Y-98626920D01*
X129825999Y-98626920D01*
X129801495Y-98625716D01*
X129777227Y-98622116D01*
X129753428Y-98616155D01*
X129730329Y-98607890D01*
X129708150Y-98597400D01*
X129687107Y-98584788D01*
X129667401Y-98570173D01*
X129649223Y-98553697D01*
X129632747Y-98535519D01*
X129618132Y-98515813D01*
X129605520Y-98494770D01*
X129595030Y-98472591D01*
X129586765Y-98449492D01*
X129580804Y-98425693D01*
X129577204Y-98401425D01*
X129576000Y-98376921D01*
X129576000Y-97726919D01*
X129577204Y-97702415D01*
X129580804Y-97678147D01*
X129586765Y-97654348D01*
X129595030Y-97631249D01*
X129605520Y-97609070D01*
X129618132Y-97588027D01*
X129632747Y-97568321D01*
X129649223Y-97550143D01*
X129667401Y-97533667D01*
X129687107Y-97519052D01*
X129708150Y-97506440D01*
X129730329Y-97495950D01*
X129753428Y-97487685D01*
X129777227Y-97481724D01*
X129801495Y-97478124D01*
X129825999Y-97476920D01*
X130726001Y-97476920D01*
X130750505Y-97478124D01*
G37*
G36*
X128348505Y-92264124D02*
G01*
X128372773Y-92267724D01*
X128396572Y-92273685D01*
X128419671Y-92281950D01*
X128441850Y-92292440D01*
X128462893Y-92305052D01*
X128482599Y-92319667D01*
X128500777Y-92336143D01*
X128517253Y-92354321D01*
X128531868Y-92374027D01*
X128544480Y-92395070D01*
X128554970Y-92417249D01*
X128563235Y-92440348D01*
X128569196Y-92464147D01*
X128572796Y-92488415D01*
X128574000Y-92512919D01*
X128574000Y-93412921D01*
X128572796Y-93437425D01*
X128569196Y-93461693D01*
X128563235Y-93485492D01*
X128554970Y-93508591D01*
X128544480Y-93530770D01*
X128531868Y-93551813D01*
X128517253Y-93571519D01*
X128500777Y-93589697D01*
X128482599Y-93606173D01*
X128462893Y-93620788D01*
X128441850Y-93633400D01*
X128419671Y-93643890D01*
X128396572Y-93652155D01*
X128372773Y-93658116D01*
X128348505Y-93661716D01*
X128324001Y-93662920D01*
X127673999Y-93662920D01*
X127649495Y-93661716D01*
X127625227Y-93658116D01*
X127601428Y-93652155D01*
X127578329Y-93643890D01*
X127556150Y-93633400D01*
X127535107Y-93620788D01*
X127515401Y-93606173D01*
X127497223Y-93589697D01*
X127480747Y-93571519D01*
X127466132Y-93551813D01*
X127453520Y-93530770D01*
X127443030Y-93508591D01*
X127434765Y-93485492D01*
X127428804Y-93461693D01*
X127425204Y-93437425D01*
X127424000Y-93412921D01*
X127424000Y-92512919D01*
X127425204Y-92488415D01*
X127428804Y-92464147D01*
X127434765Y-92440348D01*
X127443030Y-92417249D01*
X127453520Y-92395070D01*
X127466132Y-92374027D01*
X127480747Y-92354321D01*
X127497223Y-92336143D01*
X127515401Y-92319667D01*
X127535107Y-92305052D01*
X127556150Y-92292440D01*
X127578329Y-92281950D01*
X127601428Y-92273685D01*
X127625227Y-92267724D01*
X127649495Y-92264124D01*
X127673999Y-92262920D01*
X128324001Y-92262920D01*
X128348505Y-92264124D01*
G37*
G36*
X126298505Y-92264124D02*
G01*
X126322773Y-92267724D01*
X126346572Y-92273685D01*
X126369671Y-92281950D01*
X126391850Y-92292440D01*
X126412893Y-92305052D01*
X126432599Y-92319667D01*
X126450777Y-92336143D01*
X126467253Y-92354321D01*
X126481868Y-92374027D01*
X126494480Y-92395070D01*
X126504970Y-92417249D01*
X126513235Y-92440348D01*
X126519196Y-92464147D01*
X126522796Y-92488415D01*
X126524000Y-92512919D01*
X126524000Y-93412921D01*
X126522796Y-93437425D01*
X126519196Y-93461693D01*
X126513235Y-93485492D01*
X126504970Y-93508591D01*
X126494480Y-93530770D01*
X126481868Y-93551813D01*
X126467253Y-93571519D01*
X126450777Y-93589697D01*
X126432599Y-93606173D01*
X126412893Y-93620788D01*
X126391850Y-93633400D01*
X126369671Y-93643890D01*
X126346572Y-93652155D01*
X126322773Y-93658116D01*
X126298505Y-93661716D01*
X126274001Y-93662920D01*
X125623999Y-93662920D01*
X125599495Y-93661716D01*
X125575227Y-93658116D01*
X125551428Y-93652155D01*
X125528329Y-93643890D01*
X125506150Y-93633400D01*
X125485107Y-93620788D01*
X125465401Y-93606173D01*
X125447223Y-93589697D01*
X125430747Y-93571519D01*
X125416132Y-93551813D01*
X125403520Y-93530770D01*
X125393030Y-93508591D01*
X125384765Y-93485492D01*
X125378804Y-93461693D01*
X125375204Y-93437425D01*
X125374000Y-93412921D01*
X125374000Y-92512919D01*
X125375204Y-92488415D01*
X125378804Y-92464147D01*
X125384765Y-92440348D01*
X125393030Y-92417249D01*
X125403520Y-92395070D01*
X125416132Y-92374027D01*
X125430747Y-92354321D01*
X125447223Y-92336143D01*
X125465401Y-92319667D01*
X125485107Y-92305052D01*
X125506150Y-92292440D01*
X125528329Y-92281950D01*
X125551428Y-92273685D01*
X125575227Y-92267724D01*
X125599495Y-92264124D01*
X125623999Y-92262920D01*
X126274001Y-92262920D01*
X126298505Y-92264124D01*
G37*
G36*
X126570505Y-100392124D02*
G01*
X126594773Y-100395724D01*
X126618572Y-100401685D01*
X126641671Y-100409950D01*
X126663850Y-100420440D01*
X126684893Y-100433052D01*
X126704599Y-100447667D01*
X126722777Y-100464143D01*
X126739253Y-100482321D01*
X126753868Y-100502027D01*
X126766480Y-100523070D01*
X126776970Y-100545249D01*
X126785235Y-100568348D01*
X126791196Y-100592147D01*
X126794796Y-100616415D01*
X126796000Y-100640919D01*
X126796000Y-101540921D01*
X126794796Y-101565425D01*
X126791196Y-101589693D01*
X126785235Y-101613492D01*
X126776970Y-101636591D01*
X126766480Y-101658770D01*
X126753868Y-101679813D01*
X126739253Y-101699519D01*
X126722777Y-101717697D01*
X126704599Y-101734173D01*
X126684893Y-101748788D01*
X126663850Y-101761400D01*
X126641671Y-101771890D01*
X126618572Y-101780155D01*
X126594773Y-101786116D01*
X126570505Y-101789716D01*
X126546001Y-101790920D01*
X125895999Y-101790920D01*
X125871495Y-101789716D01*
X125847227Y-101786116D01*
X125823428Y-101780155D01*
X125800329Y-101771890D01*
X125778150Y-101761400D01*
X125757107Y-101748788D01*
X125737401Y-101734173D01*
X125719223Y-101717697D01*
X125702747Y-101699519D01*
X125688132Y-101679813D01*
X125675520Y-101658770D01*
X125665030Y-101636591D01*
X125656765Y-101613492D01*
X125650804Y-101589693D01*
X125647204Y-101565425D01*
X125646000Y-101540921D01*
X125646000Y-100640919D01*
X125647204Y-100616415D01*
X125650804Y-100592147D01*
X125656765Y-100568348D01*
X125665030Y-100545249D01*
X125675520Y-100523070D01*
X125688132Y-100502027D01*
X125702747Y-100482321D01*
X125719223Y-100464143D01*
X125737401Y-100447667D01*
X125757107Y-100433052D01*
X125778150Y-100420440D01*
X125800329Y-100409950D01*
X125823428Y-100401685D01*
X125847227Y-100395724D01*
X125871495Y-100392124D01*
X125895999Y-100390920D01*
X126546001Y-100390920D01*
X126570505Y-100392124D01*
G37*
G36*
X124520505Y-100392124D02*
G01*
X124544773Y-100395724D01*
X124568572Y-100401685D01*
X124591671Y-100409950D01*
X124613850Y-100420440D01*
X124634893Y-100433052D01*
X124654599Y-100447667D01*
X124672777Y-100464143D01*
X124689253Y-100482321D01*
X124703868Y-100502027D01*
X124716480Y-100523070D01*
X124726970Y-100545249D01*
X124735235Y-100568348D01*
X124741196Y-100592147D01*
X124744796Y-100616415D01*
X124746000Y-100640919D01*
X124746000Y-101540921D01*
X124744796Y-101565425D01*
X124741196Y-101589693D01*
X124735235Y-101613492D01*
X124726970Y-101636591D01*
X124716480Y-101658770D01*
X124703868Y-101679813D01*
X124689253Y-101699519D01*
X124672777Y-101717697D01*
X124654599Y-101734173D01*
X124634893Y-101748788D01*
X124613850Y-101761400D01*
X124591671Y-101771890D01*
X124568572Y-101780155D01*
X124544773Y-101786116D01*
X124520505Y-101789716D01*
X124496001Y-101790920D01*
X123845999Y-101790920D01*
X123821495Y-101789716D01*
X123797227Y-101786116D01*
X123773428Y-101780155D01*
X123750329Y-101771890D01*
X123728150Y-101761400D01*
X123707107Y-101748788D01*
X123687401Y-101734173D01*
X123669223Y-101717697D01*
X123652747Y-101699519D01*
X123638132Y-101679813D01*
X123625520Y-101658770D01*
X123615030Y-101636591D01*
X123606765Y-101613492D01*
X123600804Y-101589693D01*
X123597204Y-101565425D01*
X123596000Y-101540921D01*
X123596000Y-100640919D01*
X123597204Y-100616415D01*
X123600804Y-100592147D01*
X123606765Y-100568348D01*
X123615030Y-100545249D01*
X123625520Y-100523070D01*
X123638132Y-100502027D01*
X123652747Y-100482321D01*
X123669223Y-100464143D01*
X123687401Y-100447667D01*
X123707107Y-100433052D01*
X123728150Y-100420440D01*
X123750329Y-100409950D01*
X123773428Y-100401685D01*
X123797227Y-100395724D01*
X123821495Y-100392124D01*
X123845999Y-100390920D01*
X124496001Y-100390920D01*
X124520505Y-100392124D01*
G37*
G36*
X124520505Y-97852124D02*
G01*
X124544773Y-97855724D01*
X124568572Y-97861685D01*
X124591671Y-97869950D01*
X124613850Y-97880440D01*
X124634893Y-97893052D01*
X124654599Y-97907667D01*
X124672777Y-97924143D01*
X124689253Y-97942321D01*
X124703868Y-97962027D01*
X124716480Y-97983070D01*
X124726970Y-98005249D01*
X124735235Y-98028348D01*
X124741196Y-98052147D01*
X124744796Y-98076415D01*
X124746000Y-98100919D01*
X124746000Y-99000921D01*
X124744796Y-99025425D01*
X124741196Y-99049693D01*
X124735235Y-99073492D01*
X124726970Y-99096591D01*
X124716480Y-99118770D01*
X124703868Y-99139813D01*
X124689253Y-99159519D01*
X124672777Y-99177697D01*
X124654599Y-99194173D01*
X124634893Y-99208788D01*
X124613850Y-99221400D01*
X124591671Y-99231890D01*
X124568572Y-99240155D01*
X124544773Y-99246116D01*
X124520505Y-99249716D01*
X124496001Y-99250920D01*
X123845999Y-99250920D01*
X123821495Y-99249716D01*
X123797227Y-99246116D01*
X123773428Y-99240155D01*
X123750329Y-99231890D01*
X123728150Y-99221400D01*
X123707107Y-99208788D01*
X123687401Y-99194173D01*
X123669223Y-99177697D01*
X123652747Y-99159519D01*
X123638132Y-99139813D01*
X123625520Y-99118770D01*
X123615030Y-99096591D01*
X123606765Y-99073492D01*
X123600804Y-99049693D01*
X123597204Y-99025425D01*
X123596000Y-99000921D01*
X123596000Y-98100919D01*
X123597204Y-98076415D01*
X123600804Y-98052147D01*
X123606765Y-98028348D01*
X123615030Y-98005249D01*
X123625520Y-97983070D01*
X123638132Y-97962027D01*
X123652747Y-97942321D01*
X123669223Y-97924143D01*
X123687401Y-97907667D01*
X123707107Y-97893052D01*
X123728150Y-97880440D01*
X123750329Y-97869950D01*
X123773428Y-97861685D01*
X123797227Y-97855724D01*
X123821495Y-97852124D01*
X123845999Y-97850920D01*
X124496001Y-97850920D01*
X124520505Y-97852124D01*
G37*
G36*
X126570505Y-97852124D02*
G01*
X126594773Y-97855724D01*
X126618572Y-97861685D01*
X126641671Y-97869950D01*
X126663850Y-97880440D01*
X126684893Y-97893052D01*
X126704599Y-97907667D01*
X126722777Y-97924143D01*
X126739253Y-97942321D01*
X126753868Y-97962027D01*
X126766480Y-97983070D01*
X126776970Y-98005249D01*
X126785235Y-98028348D01*
X126791196Y-98052147D01*
X126794796Y-98076415D01*
X126796000Y-98100919D01*
X126796000Y-99000921D01*
X126794796Y-99025425D01*
X126791196Y-99049693D01*
X126785235Y-99073492D01*
X126776970Y-99096591D01*
X126766480Y-99118770D01*
X126753868Y-99139813D01*
X126739253Y-99159519D01*
X126722777Y-99177697D01*
X126704599Y-99194173D01*
X126684893Y-99208788D01*
X126663850Y-99221400D01*
X126641671Y-99231890D01*
X126618572Y-99240155D01*
X126594773Y-99246116D01*
X126570505Y-99249716D01*
X126546001Y-99250920D01*
X125895999Y-99250920D01*
X125871495Y-99249716D01*
X125847227Y-99246116D01*
X125823428Y-99240155D01*
X125800329Y-99231890D01*
X125778150Y-99221400D01*
X125757107Y-99208788D01*
X125737401Y-99194173D01*
X125719223Y-99177697D01*
X125702747Y-99159519D01*
X125688132Y-99139813D01*
X125675520Y-99118770D01*
X125665030Y-99096591D01*
X125656765Y-99073492D01*
X125650804Y-99049693D01*
X125647204Y-99025425D01*
X125646000Y-99000921D01*
X125646000Y-98100919D01*
X125647204Y-98076415D01*
X125650804Y-98052147D01*
X125656765Y-98028348D01*
X125665030Y-98005249D01*
X125675520Y-97983070D01*
X125688132Y-97962027D01*
X125702747Y-97942321D01*
X125719223Y-97924143D01*
X125737401Y-97907667D01*
X125757107Y-97893052D01*
X125778150Y-97880440D01*
X125800329Y-97869950D01*
X125823428Y-97861685D01*
X125847227Y-97855724D01*
X125871495Y-97852124D01*
X125895999Y-97850920D01*
X126546001Y-97850920D01*
X126570505Y-97852124D01*
G37*
G36*
X119828505Y-94430124D02*
G01*
X119852773Y-94433724D01*
X119876572Y-94439685D01*
X119899671Y-94447950D01*
X119921850Y-94458440D01*
X119942893Y-94471052D01*
X119962599Y-94485667D01*
X119980777Y-94502143D01*
X119997253Y-94520321D01*
X120011868Y-94540027D01*
X120024480Y-94561070D01*
X120034970Y-94583249D01*
X120043235Y-94606348D01*
X120049196Y-94630147D01*
X120052796Y-94654415D01*
X120054000Y-94678919D01*
X120054000Y-95328921D01*
X120052796Y-95353425D01*
X120049196Y-95377693D01*
X120043235Y-95401492D01*
X120034970Y-95424591D01*
X120024480Y-95446770D01*
X120011868Y-95467813D01*
X119997253Y-95487519D01*
X119980777Y-95505697D01*
X119962599Y-95522173D01*
X119942893Y-95536788D01*
X119921850Y-95549400D01*
X119899671Y-95559890D01*
X119876572Y-95568155D01*
X119852773Y-95574116D01*
X119828505Y-95577716D01*
X119804001Y-95578920D01*
X118903999Y-95578920D01*
X118879495Y-95577716D01*
X118855227Y-95574116D01*
X118831428Y-95568155D01*
X118808329Y-95559890D01*
X118786150Y-95549400D01*
X118765107Y-95536788D01*
X118745401Y-95522173D01*
X118727223Y-95505697D01*
X118710747Y-95487519D01*
X118696132Y-95467813D01*
X118683520Y-95446770D01*
X118673030Y-95424591D01*
X118664765Y-95401492D01*
X118658804Y-95377693D01*
X118655204Y-95353425D01*
X118654000Y-95328921D01*
X118654000Y-94678919D01*
X118655204Y-94654415D01*
X118658804Y-94630147D01*
X118664765Y-94606348D01*
X118673030Y-94583249D01*
X118683520Y-94561070D01*
X118696132Y-94540027D01*
X118710747Y-94520321D01*
X118727223Y-94502143D01*
X118745401Y-94485667D01*
X118765107Y-94471052D01*
X118786150Y-94458440D01*
X118808329Y-94447950D01*
X118831428Y-94439685D01*
X118855227Y-94433724D01*
X118879495Y-94430124D01*
X118903999Y-94428920D01*
X119804001Y-94428920D01*
X119828505Y-94430124D01*
G37*
G36*
X119828505Y-92380124D02*
G01*
X119852773Y-92383724D01*
X119876572Y-92389685D01*
X119899671Y-92397950D01*
X119921850Y-92408440D01*
X119942893Y-92421052D01*
X119962599Y-92435667D01*
X119980777Y-92452143D01*
X119997253Y-92470321D01*
X120011868Y-92490027D01*
X120024480Y-92511070D01*
X120034970Y-92533249D01*
X120043235Y-92556348D01*
X120049196Y-92580147D01*
X120052796Y-92604415D01*
X120054000Y-92628919D01*
X120054000Y-93278921D01*
X120052796Y-93303425D01*
X120049196Y-93327693D01*
X120043235Y-93351492D01*
X120034970Y-93374591D01*
X120024480Y-93396770D01*
X120011868Y-93417813D01*
X119997253Y-93437519D01*
X119980777Y-93455697D01*
X119962599Y-93472173D01*
X119942893Y-93486788D01*
X119921850Y-93499400D01*
X119899671Y-93509890D01*
X119876572Y-93518155D01*
X119852773Y-93524116D01*
X119828505Y-93527716D01*
X119804001Y-93528920D01*
X118903999Y-93528920D01*
X118879495Y-93527716D01*
X118855227Y-93524116D01*
X118831428Y-93518155D01*
X118808329Y-93509890D01*
X118786150Y-93499400D01*
X118765107Y-93486788D01*
X118745401Y-93472173D01*
X118727223Y-93455697D01*
X118710747Y-93437519D01*
X118696132Y-93417813D01*
X118683520Y-93396770D01*
X118673030Y-93374591D01*
X118664765Y-93351492D01*
X118658804Y-93327693D01*
X118655204Y-93303425D01*
X118654000Y-93278921D01*
X118654000Y-92628919D01*
X118655204Y-92604415D01*
X118658804Y-92580147D01*
X118664765Y-92556348D01*
X118673030Y-92533249D01*
X118683520Y-92511070D01*
X118696132Y-92490027D01*
X118710747Y-92470321D01*
X118727223Y-92452143D01*
X118745401Y-92435667D01*
X118765107Y-92421052D01*
X118786150Y-92408440D01*
X118808329Y-92397950D01*
X118831428Y-92389685D01*
X118855227Y-92383724D01*
X118879495Y-92380124D01*
X118903999Y-92378920D01*
X119804001Y-92378920D01*
X119828505Y-92380124D01*
G37*
G36*
X127194505Y-76632124D02*
G01*
X127218773Y-76635724D01*
X127242572Y-76641685D01*
X127265671Y-76649950D01*
X127287850Y-76660440D01*
X127308893Y-76673052D01*
X127328599Y-76687667D01*
X127346777Y-76704143D01*
X127363253Y-76722321D01*
X127377868Y-76742027D01*
X127390480Y-76763070D01*
X127400970Y-76785249D01*
X127409235Y-76808348D01*
X127415196Y-76832147D01*
X127418796Y-76856415D01*
X127420000Y-76880919D01*
X127420000Y-77530921D01*
X127418796Y-77555425D01*
X127415196Y-77579693D01*
X127409235Y-77603492D01*
X127400970Y-77626591D01*
X127390480Y-77648770D01*
X127377868Y-77669813D01*
X127363253Y-77689519D01*
X127346777Y-77707697D01*
X127328599Y-77724173D01*
X127308893Y-77738788D01*
X127287850Y-77751400D01*
X127265671Y-77761890D01*
X127242572Y-77770155D01*
X127218773Y-77776116D01*
X127194505Y-77779716D01*
X127170001Y-77780920D01*
X126269999Y-77780920D01*
X126245495Y-77779716D01*
X126221227Y-77776116D01*
X126197428Y-77770155D01*
X126174329Y-77761890D01*
X126152150Y-77751400D01*
X126131107Y-77738788D01*
X126111401Y-77724173D01*
X126093223Y-77707697D01*
X126076747Y-77689519D01*
X126062132Y-77669813D01*
X126049520Y-77648770D01*
X126039030Y-77626591D01*
X126030765Y-77603492D01*
X126024804Y-77579693D01*
X126021204Y-77555425D01*
X126020000Y-77530921D01*
X126020000Y-76880919D01*
X126021204Y-76856415D01*
X126024804Y-76832147D01*
X126030765Y-76808348D01*
X126039030Y-76785249D01*
X126049520Y-76763070D01*
X126062132Y-76742027D01*
X126076747Y-76722321D01*
X126093223Y-76704143D01*
X126111401Y-76687667D01*
X126131107Y-76673052D01*
X126152150Y-76660440D01*
X126174329Y-76649950D01*
X126197428Y-76641685D01*
X126221227Y-76635724D01*
X126245495Y-76632124D01*
X126269999Y-76630920D01*
X127170001Y-76630920D01*
X127194505Y-76632124D01*
G37*
G36*
X127194505Y-78682124D02*
G01*
X127218773Y-78685724D01*
X127242572Y-78691685D01*
X127265671Y-78699950D01*
X127287850Y-78710440D01*
X127308893Y-78723052D01*
X127328599Y-78737667D01*
X127346777Y-78754143D01*
X127363253Y-78772321D01*
X127377868Y-78792027D01*
X127390480Y-78813070D01*
X127400970Y-78835249D01*
X127409235Y-78858348D01*
X127415196Y-78882147D01*
X127418796Y-78906415D01*
X127420000Y-78930919D01*
X127420000Y-79580921D01*
X127418796Y-79605425D01*
X127415196Y-79629693D01*
X127409235Y-79653492D01*
X127400970Y-79676591D01*
X127390480Y-79698770D01*
X127377868Y-79719813D01*
X127363253Y-79739519D01*
X127346777Y-79757697D01*
X127328599Y-79774173D01*
X127308893Y-79788788D01*
X127287850Y-79801400D01*
X127265671Y-79811890D01*
X127242572Y-79820155D01*
X127218773Y-79826116D01*
X127194505Y-79829716D01*
X127170001Y-79830920D01*
X126269999Y-79830920D01*
X126245495Y-79829716D01*
X126221227Y-79826116D01*
X126197428Y-79820155D01*
X126174329Y-79811890D01*
X126152150Y-79801400D01*
X126131107Y-79788788D01*
X126111401Y-79774173D01*
X126093223Y-79757697D01*
X126076747Y-79739519D01*
X126062132Y-79719813D01*
X126049520Y-79698770D01*
X126039030Y-79676591D01*
X126030765Y-79653492D01*
X126024804Y-79629693D01*
X126021204Y-79605425D01*
X126020000Y-79580921D01*
X126020000Y-78930919D01*
X126021204Y-78906415D01*
X126024804Y-78882147D01*
X126030765Y-78858348D01*
X126039030Y-78835249D01*
X126049520Y-78813070D01*
X126062132Y-78792027D01*
X126076747Y-78772321D01*
X126093223Y-78754143D01*
X126111401Y-78737667D01*
X126131107Y-78723052D01*
X126152150Y-78710440D01*
X126174329Y-78699950D01*
X126197428Y-78691685D01*
X126221227Y-78685724D01*
X126245495Y-78682124D01*
X126269999Y-78680920D01*
X127170001Y-78680920D01*
X127194505Y-78682124D01*
G37*
G36*
X140286505Y-52132124D02*
G01*
X140310773Y-52135724D01*
X140334572Y-52141685D01*
X140357671Y-52149950D01*
X140379850Y-52160440D01*
X140400893Y-52173052D01*
X140420599Y-52187667D01*
X140438777Y-52204143D01*
X140455253Y-52222321D01*
X140469868Y-52242027D01*
X140482480Y-52263070D01*
X140492970Y-52285249D01*
X140501235Y-52308348D01*
X140507196Y-52332147D01*
X140510796Y-52356415D01*
X140512000Y-52380919D01*
X140512000Y-53280921D01*
X140510796Y-53305425D01*
X140507196Y-53329693D01*
X140501235Y-53353492D01*
X140492970Y-53376591D01*
X140482480Y-53398770D01*
X140469868Y-53419813D01*
X140455253Y-53439519D01*
X140438777Y-53457697D01*
X140420599Y-53474173D01*
X140400893Y-53488788D01*
X140379850Y-53501400D01*
X140357671Y-53511890D01*
X140334572Y-53520155D01*
X140310773Y-53526116D01*
X140286505Y-53529716D01*
X140262001Y-53530920D01*
X139611999Y-53530920D01*
X139587495Y-53529716D01*
X139563227Y-53526116D01*
X139539428Y-53520155D01*
X139516329Y-53511890D01*
X139494150Y-53501400D01*
X139473107Y-53488788D01*
X139453401Y-53474173D01*
X139435223Y-53457697D01*
X139418747Y-53439519D01*
X139404132Y-53419813D01*
X139391520Y-53398770D01*
X139381030Y-53376591D01*
X139372765Y-53353492D01*
X139366804Y-53329693D01*
X139363204Y-53305425D01*
X139362000Y-53280921D01*
X139362000Y-52380919D01*
X139363204Y-52356415D01*
X139366804Y-52332147D01*
X139372765Y-52308348D01*
X139381030Y-52285249D01*
X139391520Y-52263070D01*
X139404132Y-52242027D01*
X139418747Y-52222321D01*
X139435223Y-52204143D01*
X139453401Y-52187667D01*
X139473107Y-52173052D01*
X139494150Y-52160440D01*
X139516329Y-52149950D01*
X139539428Y-52141685D01*
X139563227Y-52135724D01*
X139587495Y-52132124D01*
X139611999Y-52130920D01*
X140262001Y-52130920D01*
X140286505Y-52132124D01*
G37*
G36*
X138236505Y-52132124D02*
G01*
X138260773Y-52135724D01*
X138284572Y-52141685D01*
X138307671Y-52149950D01*
X138329850Y-52160440D01*
X138350893Y-52173052D01*
X138370599Y-52187667D01*
X138388777Y-52204143D01*
X138405253Y-52222321D01*
X138419868Y-52242027D01*
X138432480Y-52263070D01*
X138442970Y-52285249D01*
X138451235Y-52308348D01*
X138457196Y-52332147D01*
X138460796Y-52356415D01*
X138462000Y-52380919D01*
X138462000Y-53280921D01*
X138460796Y-53305425D01*
X138457196Y-53329693D01*
X138451235Y-53353492D01*
X138442970Y-53376591D01*
X138432480Y-53398770D01*
X138419868Y-53419813D01*
X138405253Y-53439519D01*
X138388777Y-53457697D01*
X138370599Y-53474173D01*
X138350893Y-53488788D01*
X138329850Y-53501400D01*
X138307671Y-53511890D01*
X138284572Y-53520155D01*
X138260773Y-53526116D01*
X138236505Y-53529716D01*
X138212001Y-53530920D01*
X137561999Y-53530920D01*
X137537495Y-53529716D01*
X137513227Y-53526116D01*
X137489428Y-53520155D01*
X137466329Y-53511890D01*
X137444150Y-53501400D01*
X137423107Y-53488788D01*
X137403401Y-53474173D01*
X137385223Y-53457697D01*
X137368747Y-53439519D01*
X137354132Y-53419813D01*
X137341520Y-53398770D01*
X137331030Y-53376591D01*
X137322765Y-53353492D01*
X137316804Y-53329693D01*
X137313204Y-53305425D01*
X137312000Y-53280921D01*
X137312000Y-52380919D01*
X137313204Y-52356415D01*
X137316804Y-52332147D01*
X137322765Y-52308348D01*
X137331030Y-52285249D01*
X137341520Y-52263070D01*
X137354132Y-52242027D01*
X137368747Y-52222321D01*
X137385223Y-52204143D01*
X137403401Y-52187667D01*
X137423107Y-52173052D01*
X137444150Y-52160440D01*
X137466329Y-52149950D01*
X137489428Y-52141685D01*
X137513227Y-52135724D01*
X137537495Y-52132124D01*
X137561999Y-52130920D01*
X138212001Y-52130920D01*
X138236505Y-52132124D01*
G37*
D24*
X136223000Y-62290920D03*
X136223000Y-63690920D03*
X133473000Y-62290920D03*
X133473000Y-63690920D03*
D10*
G36*
X147006505Y-63696124D02*
G01*
X147030773Y-63699724D01*
X147054572Y-63705685D01*
X147077671Y-63713950D01*
X147099850Y-63724440D01*
X147120893Y-63737052D01*
X147140599Y-63751667D01*
X147158777Y-63768143D01*
X147175253Y-63786321D01*
X147189868Y-63806027D01*
X147202480Y-63827070D01*
X147212970Y-63849249D01*
X147221235Y-63872348D01*
X147227196Y-63896147D01*
X147230796Y-63920415D01*
X147232000Y-63944919D01*
X147232000Y-64594921D01*
X147230796Y-64619425D01*
X147227196Y-64643693D01*
X147221235Y-64667492D01*
X147212970Y-64690591D01*
X147202480Y-64712770D01*
X147189868Y-64733813D01*
X147175253Y-64753519D01*
X147158777Y-64771697D01*
X147140599Y-64788173D01*
X147120893Y-64802788D01*
X147099850Y-64815400D01*
X147077671Y-64825890D01*
X147054572Y-64834155D01*
X147030773Y-64840116D01*
X147006505Y-64843716D01*
X146982001Y-64844920D01*
X146081999Y-64844920D01*
X146057495Y-64843716D01*
X146033227Y-64840116D01*
X146009428Y-64834155D01*
X145986329Y-64825890D01*
X145964150Y-64815400D01*
X145943107Y-64802788D01*
X145923401Y-64788173D01*
X145905223Y-64771697D01*
X145888747Y-64753519D01*
X145874132Y-64733813D01*
X145861520Y-64712770D01*
X145851030Y-64690591D01*
X145842765Y-64667492D01*
X145836804Y-64643693D01*
X145833204Y-64619425D01*
X145832000Y-64594921D01*
X145832000Y-63944919D01*
X145833204Y-63920415D01*
X145836804Y-63896147D01*
X145842765Y-63872348D01*
X145851030Y-63849249D01*
X145861520Y-63827070D01*
X145874132Y-63806027D01*
X145888747Y-63786321D01*
X145905223Y-63768143D01*
X145923401Y-63751667D01*
X145943107Y-63737052D01*
X145964150Y-63724440D01*
X145986329Y-63713950D01*
X146009428Y-63705685D01*
X146033227Y-63699724D01*
X146057495Y-63696124D01*
X146081999Y-63694920D01*
X146982001Y-63694920D01*
X147006505Y-63696124D01*
G37*
G36*
X147006505Y-61646124D02*
G01*
X147030773Y-61649724D01*
X147054572Y-61655685D01*
X147077671Y-61663950D01*
X147099850Y-61674440D01*
X147120893Y-61687052D01*
X147140599Y-61701667D01*
X147158777Y-61718143D01*
X147175253Y-61736321D01*
X147189868Y-61756027D01*
X147202480Y-61777070D01*
X147212970Y-61799249D01*
X147221235Y-61822348D01*
X147227196Y-61846147D01*
X147230796Y-61870415D01*
X147232000Y-61894919D01*
X147232000Y-62544921D01*
X147230796Y-62569425D01*
X147227196Y-62593693D01*
X147221235Y-62617492D01*
X147212970Y-62640591D01*
X147202480Y-62662770D01*
X147189868Y-62683813D01*
X147175253Y-62703519D01*
X147158777Y-62721697D01*
X147140599Y-62738173D01*
X147120893Y-62752788D01*
X147099850Y-62765400D01*
X147077671Y-62775890D01*
X147054572Y-62784155D01*
X147030773Y-62790116D01*
X147006505Y-62793716D01*
X146982001Y-62794920D01*
X146081999Y-62794920D01*
X146057495Y-62793716D01*
X146033227Y-62790116D01*
X146009428Y-62784155D01*
X145986329Y-62775890D01*
X145964150Y-62765400D01*
X145943107Y-62752788D01*
X145923401Y-62738173D01*
X145905223Y-62721697D01*
X145888747Y-62703519D01*
X145874132Y-62683813D01*
X145861520Y-62662770D01*
X145851030Y-62640591D01*
X145842765Y-62617492D01*
X145836804Y-62593693D01*
X145833204Y-62569425D01*
X145832000Y-62544921D01*
X145832000Y-61894919D01*
X145833204Y-61870415D01*
X145836804Y-61846147D01*
X145842765Y-61822348D01*
X145851030Y-61799249D01*
X145861520Y-61777070D01*
X145874132Y-61756027D01*
X145888747Y-61736321D01*
X145905223Y-61718143D01*
X145923401Y-61701667D01*
X145943107Y-61687052D01*
X145964150Y-61674440D01*
X145986329Y-61663950D01*
X146009428Y-61655685D01*
X146033227Y-61649724D01*
X146057495Y-61646124D01*
X146081999Y-61644920D01*
X146982001Y-61644920D01*
X147006505Y-61646124D01*
G37*
G36*
X143704505Y-63696124D02*
G01*
X143728773Y-63699724D01*
X143752572Y-63705685D01*
X143775671Y-63713950D01*
X143797850Y-63724440D01*
X143818893Y-63737052D01*
X143838599Y-63751667D01*
X143856777Y-63768143D01*
X143873253Y-63786321D01*
X143887868Y-63806027D01*
X143900480Y-63827070D01*
X143910970Y-63849249D01*
X143919235Y-63872348D01*
X143925196Y-63896147D01*
X143928796Y-63920415D01*
X143930000Y-63944919D01*
X143930000Y-64594921D01*
X143928796Y-64619425D01*
X143925196Y-64643693D01*
X143919235Y-64667492D01*
X143910970Y-64690591D01*
X143900480Y-64712770D01*
X143887868Y-64733813D01*
X143873253Y-64753519D01*
X143856777Y-64771697D01*
X143838599Y-64788173D01*
X143818893Y-64802788D01*
X143797850Y-64815400D01*
X143775671Y-64825890D01*
X143752572Y-64834155D01*
X143728773Y-64840116D01*
X143704505Y-64843716D01*
X143680001Y-64844920D01*
X142779999Y-64844920D01*
X142755495Y-64843716D01*
X142731227Y-64840116D01*
X142707428Y-64834155D01*
X142684329Y-64825890D01*
X142662150Y-64815400D01*
X142641107Y-64802788D01*
X142621401Y-64788173D01*
X142603223Y-64771697D01*
X142586747Y-64753519D01*
X142572132Y-64733813D01*
X142559520Y-64712770D01*
X142549030Y-64690591D01*
X142540765Y-64667492D01*
X142534804Y-64643693D01*
X142531204Y-64619425D01*
X142530000Y-64594921D01*
X142530000Y-63944919D01*
X142531204Y-63920415D01*
X142534804Y-63896147D01*
X142540765Y-63872348D01*
X142549030Y-63849249D01*
X142559520Y-63827070D01*
X142572132Y-63806027D01*
X142586747Y-63786321D01*
X142603223Y-63768143D01*
X142621401Y-63751667D01*
X142641107Y-63737052D01*
X142662150Y-63724440D01*
X142684329Y-63713950D01*
X142707428Y-63705685D01*
X142731227Y-63699724D01*
X142755495Y-63696124D01*
X142779999Y-63694920D01*
X143680001Y-63694920D01*
X143704505Y-63696124D01*
G37*
G36*
X143704505Y-61646124D02*
G01*
X143728773Y-61649724D01*
X143752572Y-61655685D01*
X143775671Y-61663950D01*
X143797850Y-61674440D01*
X143818893Y-61687052D01*
X143838599Y-61701667D01*
X143856777Y-61718143D01*
X143873253Y-61736321D01*
X143887868Y-61756027D01*
X143900480Y-61777070D01*
X143910970Y-61799249D01*
X143919235Y-61822348D01*
X143925196Y-61846147D01*
X143928796Y-61870415D01*
X143930000Y-61894919D01*
X143930000Y-62544921D01*
X143928796Y-62569425D01*
X143925196Y-62593693D01*
X143919235Y-62617492D01*
X143910970Y-62640591D01*
X143900480Y-62662770D01*
X143887868Y-62683813D01*
X143873253Y-62703519D01*
X143856777Y-62721697D01*
X143838599Y-62738173D01*
X143818893Y-62752788D01*
X143797850Y-62765400D01*
X143775671Y-62775890D01*
X143752572Y-62784155D01*
X143728773Y-62790116D01*
X143704505Y-62793716D01*
X143680001Y-62794920D01*
X142779999Y-62794920D01*
X142755495Y-62793716D01*
X142731227Y-62790116D01*
X142707428Y-62784155D01*
X142684329Y-62775890D01*
X142662150Y-62765400D01*
X142641107Y-62752788D01*
X142621401Y-62738173D01*
X142603223Y-62721697D01*
X142586747Y-62703519D01*
X142572132Y-62683813D01*
X142559520Y-62662770D01*
X142549030Y-62640591D01*
X142540765Y-62617492D01*
X142534804Y-62593693D01*
X142531204Y-62569425D01*
X142530000Y-62544921D01*
X142530000Y-61894919D01*
X142531204Y-61870415D01*
X142534804Y-61846147D01*
X142540765Y-61822348D01*
X142549030Y-61799249D01*
X142559520Y-61777070D01*
X142572132Y-61756027D01*
X142586747Y-61736321D01*
X142603223Y-61718143D01*
X142621401Y-61701667D01*
X142641107Y-61687052D01*
X142662150Y-61674440D01*
X142684329Y-61663950D01*
X142707428Y-61655685D01*
X142731227Y-61649724D01*
X142755495Y-61646124D01*
X142779999Y-61644920D01*
X143680001Y-61644920D01*
X143704505Y-61646124D01*
G37*
G36*
X81866505Y-106996124D02*
G01*
X81890773Y-106999724D01*
X81914572Y-107005685D01*
X81937671Y-107013950D01*
X81959850Y-107024440D01*
X81980893Y-107037052D01*
X82000599Y-107051667D01*
X82018777Y-107068143D01*
X82035253Y-107086321D01*
X82049868Y-107106027D01*
X82062480Y-107127070D01*
X82072970Y-107149249D01*
X82081235Y-107172348D01*
X82087196Y-107196147D01*
X82090796Y-107220415D01*
X82092000Y-107244919D01*
X82092000Y-108144921D01*
X82090796Y-108169425D01*
X82087196Y-108193693D01*
X82081235Y-108217492D01*
X82072970Y-108240591D01*
X82062480Y-108262770D01*
X82049868Y-108283813D01*
X82035253Y-108303519D01*
X82018777Y-108321697D01*
X82000599Y-108338173D01*
X81980893Y-108352788D01*
X81959850Y-108365400D01*
X81937671Y-108375890D01*
X81914572Y-108384155D01*
X81890773Y-108390116D01*
X81866505Y-108393716D01*
X81842001Y-108394920D01*
X81191999Y-108394920D01*
X81167495Y-108393716D01*
X81143227Y-108390116D01*
X81119428Y-108384155D01*
X81096329Y-108375890D01*
X81074150Y-108365400D01*
X81053107Y-108352788D01*
X81033401Y-108338173D01*
X81015223Y-108321697D01*
X80998747Y-108303519D01*
X80984132Y-108283813D01*
X80971520Y-108262770D01*
X80961030Y-108240591D01*
X80952765Y-108217492D01*
X80946804Y-108193693D01*
X80943204Y-108169425D01*
X80942000Y-108144921D01*
X80942000Y-107244919D01*
X80943204Y-107220415D01*
X80946804Y-107196147D01*
X80952765Y-107172348D01*
X80961030Y-107149249D01*
X80971520Y-107127070D01*
X80984132Y-107106027D01*
X80998747Y-107086321D01*
X81015223Y-107068143D01*
X81033401Y-107051667D01*
X81053107Y-107037052D01*
X81074150Y-107024440D01*
X81096329Y-107013950D01*
X81119428Y-107005685D01*
X81143227Y-106999724D01*
X81167495Y-106996124D01*
X81191999Y-106994920D01*
X81842001Y-106994920D01*
X81866505Y-106996124D01*
G37*
G36*
X79816505Y-106996124D02*
G01*
X79840773Y-106999724D01*
X79864572Y-107005685D01*
X79887671Y-107013950D01*
X79909850Y-107024440D01*
X79930893Y-107037052D01*
X79950599Y-107051667D01*
X79968777Y-107068143D01*
X79985253Y-107086321D01*
X79999868Y-107106027D01*
X80012480Y-107127070D01*
X80022970Y-107149249D01*
X80031235Y-107172348D01*
X80037196Y-107196147D01*
X80040796Y-107220415D01*
X80042000Y-107244919D01*
X80042000Y-108144921D01*
X80040796Y-108169425D01*
X80037196Y-108193693D01*
X80031235Y-108217492D01*
X80022970Y-108240591D01*
X80012480Y-108262770D01*
X79999868Y-108283813D01*
X79985253Y-108303519D01*
X79968777Y-108321697D01*
X79950599Y-108338173D01*
X79930893Y-108352788D01*
X79909850Y-108365400D01*
X79887671Y-108375890D01*
X79864572Y-108384155D01*
X79840773Y-108390116D01*
X79816505Y-108393716D01*
X79792001Y-108394920D01*
X79141999Y-108394920D01*
X79117495Y-108393716D01*
X79093227Y-108390116D01*
X79069428Y-108384155D01*
X79046329Y-108375890D01*
X79024150Y-108365400D01*
X79003107Y-108352788D01*
X78983401Y-108338173D01*
X78965223Y-108321697D01*
X78948747Y-108303519D01*
X78934132Y-108283813D01*
X78921520Y-108262770D01*
X78911030Y-108240591D01*
X78902765Y-108217492D01*
X78896804Y-108193693D01*
X78893204Y-108169425D01*
X78892000Y-108144921D01*
X78892000Y-107244919D01*
X78893204Y-107220415D01*
X78896804Y-107196147D01*
X78902765Y-107172348D01*
X78911030Y-107149249D01*
X78921520Y-107127070D01*
X78934132Y-107106027D01*
X78948747Y-107086321D01*
X78965223Y-107068143D01*
X78983401Y-107051667D01*
X79003107Y-107037052D01*
X79024150Y-107024440D01*
X79046329Y-107013950D01*
X79069428Y-107005685D01*
X79093227Y-106999724D01*
X79117495Y-106996124D01*
X79141999Y-106994920D01*
X79792001Y-106994920D01*
X79816505Y-106996124D01*
G37*
G36*
X79816505Y-103948124D02*
G01*
X79840773Y-103951724D01*
X79864572Y-103957685D01*
X79887671Y-103965950D01*
X79909850Y-103976440D01*
X79930893Y-103989052D01*
X79950599Y-104003667D01*
X79968777Y-104020143D01*
X79985253Y-104038321D01*
X79999868Y-104058027D01*
X80012480Y-104079070D01*
X80022970Y-104101249D01*
X80031235Y-104124348D01*
X80037196Y-104148147D01*
X80040796Y-104172415D01*
X80042000Y-104196919D01*
X80042000Y-105096921D01*
X80040796Y-105121425D01*
X80037196Y-105145693D01*
X80031235Y-105169492D01*
X80022970Y-105192591D01*
X80012480Y-105214770D01*
X79999868Y-105235813D01*
X79985253Y-105255519D01*
X79968777Y-105273697D01*
X79950599Y-105290173D01*
X79930893Y-105304788D01*
X79909850Y-105317400D01*
X79887671Y-105327890D01*
X79864572Y-105336155D01*
X79840773Y-105342116D01*
X79816505Y-105345716D01*
X79792001Y-105346920D01*
X79141999Y-105346920D01*
X79117495Y-105345716D01*
X79093227Y-105342116D01*
X79069428Y-105336155D01*
X79046329Y-105327890D01*
X79024150Y-105317400D01*
X79003107Y-105304788D01*
X78983401Y-105290173D01*
X78965223Y-105273697D01*
X78948747Y-105255519D01*
X78934132Y-105235813D01*
X78921520Y-105214770D01*
X78911030Y-105192591D01*
X78902765Y-105169492D01*
X78896804Y-105145693D01*
X78893204Y-105121425D01*
X78892000Y-105096921D01*
X78892000Y-104196919D01*
X78893204Y-104172415D01*
X78896804Y-104148147D01*
X78902765Y-104124348D01*
X78911030Y-104101249D01*
X78921520Y-104079070D01*
X78934132Y-104058027D01*
X78948747Y-104038321D01*
X78965223Y-104020143D01*
X78983401Y-104003667D01*
X79003107Y-103989052D01*
X79024150Y-103976440D01*
X79046329Y-103965950D01*
X79069428Y-103957685D01*
X79093227Y-103951724D01*
X79117495Y-103948124D01*
X79141999Y-103946920D01*
X79792001Y-103946920D01*
X79816505Y-103948124D01*
G37*
G36*
X81866505Y-103948124D02*
G01*
X81890773Y-103951724D01*
X81914572Y-103957685D01*
X81937671Y-103965950D01*
X81959850Y-103976440D01*
X81980893Y-103989052D01*
X82000599Y-104003667D01*
X82018777Y-104020143D01*
X82035253Y-104038321D01*
X82049868Y-104058027D01*
X82062480Y-104079070D01*
X82072970Y-104101249D01*
X82081235Y-104124348D01*
X82087196Y-104148147D01*
X82090796Y-104172415D01*
X82092000Y-104196919D01*
X82092000Y-105096921D01*
X82090796Y-105121425D01*
X82087196Y-105145693D01*
X82081235Y-105169492D01*
X82072970Y-105192591D01*
X82062480Y-105214770D01*
X82049868Y-105235813D01*
X82035253Y-105255519D01*
X82018777Y-105273697D01*
X82000599Y-105290173D01*
X81980893Y-105304788D01*
X81959850Y-105317400D01*
X81937671Y-105327890D01*
X81914572Y-105336155D01*
X81890773Y-105342116D01*
X81866505Y-105345716D01*
X81842001Y-105346920D01*
X81191999Y-105346920D01*
X81167495Y-105345716D01*
X81143227Y-105342116D01*
X81119428Y-105336155D01*
X81096329Y-105327890D01*
X81074150Y-105317400D01*
X81053107Y-105304788D01*
X81033401Y-105290173D01*
X81015223Y-105273697D01*
X80998747Y-105255519D01*
X80984132Y-105235813D01*
X80971520Y-105214770D01*
X80961030Y-105192591D01*
X80952765Y-105169492D01*
X80946804Y-105145693D01*
X80943204Y-105121425D01*
X80942000Y-105096921D01*
X80942000Y-104196919D01*
X80943204Y-104172415D01*
X80946804Y-104148147D01*
X80952765Y-104124348D01*
X80961030Y-104101249D01*
X80971520Y-104079070D01*
X80984132Y-104058027D01*
X80998747Y-104038321D01*
X81015223Y-104020143D01*
X81033401Y-104003667D01*
X81053107Y-103989052D01*
X81074150Y-103976440D01*
X81096329Y-103965950D01*
X81119428Y-103957685D01*
X81143227Y-103951724D01*
X81167495Y-103948124D01*
X81191999Y-103946920D01*
X81842001Y-103946920D01*
X81866505Y-103948124D01*
G37*
G36*
X70672505Y-111822124D02*
G01*
X70696773Y-111825724D01*
X70720572Y-111831685D01*
X70743671Y-111839950D01*
X70765850Y-111850440D01*
X70786893Y-111863052D01*
X70806599Y-111877667D01*
X70824777Y-111894143D01*
X70841253Y-111912321D01*
X70855868Y-111932027D01*
X70868480Y-111953070D01*
X70878970Y-111975249D01*
X70887235Y-111998348D01*
X70893196Y-112022147D01*
X70896796Y-112046415D01*
X70898000Y-112070919D01*
X70898000Y-112970921D01*
X70896796Y-112995425D01*
X70893196Y-113019693D01*
X70887235Y-113043492D01*
X70878970Y-113066591D01*
X70868480Y-113088770D01*
X70855868Y-113109813D01*
X70841253Y-113129519D01*
X70824777Y-113147697D01*
X70806599Y-113164173D01*
X70786893Y-113178788D01*
X70765850Y-113191400D01*
X70743671Y-113201890D01*
X70720572Y-113210155D01*
X70696773Y-113216116D01*
X70672505Y-113219716D01*
X70648001Y-113220920D01*
X69997999Y-113220920D01*
X69973495Y-113219716D01*
X69949227Y-113216116D01*
X69925428Y-113210155D01*
X69902329Y-113201890D01*
X69880150Y-113191400D01*
X69859107Y-113178788D01*
X69839401Y-113164173D01*
X69821223Y-113147697D01*
X69804747Y-113129519D01*
X69790132Y-113109813D01*
X69777520Y-113088770D01*
X69767030Y-113066591D01*
X69758765Y-113043492D01*
X69752804Y-113019693D01*
X69749204Y-112995425D01*
X69748000Y-112970921D01*
X69748000Y-112070919D01*
X69749204Y-112046415D01*
X69752804Y-112022147D01*
X69758765Y-111998348D01*
X69767030Y-111975249D01*
X69777520Y-111953070D01*
X69790132Y-111932027D01*
X69804747Y-111912321D01*
X69821223Y-111894143D01*
X69839401Y-111877667D01*
X69859107Y-111863052D01*
X69880150Y-111850440D01*
X69902329Y-111839950D01*
X69925428Y-111831685D01*
X69949227Y-111825724D01*
X69973495Y-111822124D01*
X69997999Y-111820920D01*
X70648001Y-111820920D01*
X70672505Y-111822124D01*
G37*
G36*
X72722505Y-111822124D02*
G01*
X72746773Y-111825724D01*
X72770572Y-111831685D01*
X72793671Y-111839950D01*
X72815850Y-111850440D01*
X72836893Y-111863052D01*
X72856599Y-111877667D01*
X72874777Y-111894143D01*
X72891253Y-111912321D01*
X72905868Y-111932027D01*
X72918480Y-111953070D01*
X72928970Y-111975249D01*
X72937235Y-111998348D01*
X72943196Y-112022147D01*
X72946796Y-112046415D01*
X72948000Y-112070919D01*
X72948000Y-112970921D01*
X72946796Y-112995425D01*
X72943196Y-113019693D01*
X72937235Y-113043492D01*
X72928970Y-113066591D01*
X72918480Y-113088770D01*
X72905868Y-113109813D01*
X72891253Y-113129519D01*
X72874777Y-113147697D01*
X72856599Y-113164173D01*
X72836893Y-113178788D01*
X72815850Y-113191400D01*
X72793671Y-113201890D01*
X72770572Y-113210155D01*
X72746773Y-113216116D01*
X72722505Y-113219716D01*
X72698001Y-113220920D01*
X72047999Y-113220920D01*
X72023495Y-113219716D01*
X71999227Y-113216116D01*
X71975428Y-113210155D01*
X71952329Y-113201890D01*
X71930150Y-113191400D01*
X71909107Y-113178788D01*
X71889401Y-113164173D01*
X71871223Y-113147697D01*
X71854747Y-113129519D01*
X71840132Y-113109813D01*
X71827520Y-113088770D01*
X71817030Y-113066591D01*
X71808765Y-113043492D01*
X71802804Y-113019693D01*
X71799204Y-112995425D01*
X71798000Y-112970921D01*
X71798000Y-112070919D01*
X71799204Y-112046415D01*
X71802804Y-112022147D01*
X71808765Y-111998348D01*
X71817030Y-111975249D01*
X71827520Y-111953070D01*
X71840132Y-111932027D01*
X71854747Y-111912321D01*
X71871223Y-111894143D01*
X71889401Y-111877667D01*
X71909107Y-111863052D01*
X71930150Y-111850440D01*
X71952329Y-111839950D01*
X71975428Y-111831685D01*
X71999227Y-111825724D01*
X72023495Y-111822124D01*
X72047999Y-111820920D01*
X72698001Y-111820920D01*
X72722505Y-111822124D01*
G37*
G36*
X73600505Y-62680124D02*
G01*
X73624773Y-62683724D01*
X73648572Y-62689685D01*
X73671671Y-62697950D01*
X73693850Y-62708440D01*
X73714893Y-62721052D01*
X73734599Y-62735667D01*
X73752777Y-62752143D01*
X73769253Y-62770321D01*
X73783868Y-62790027D01*
X73796480Y-62811070D01*
X73806970Y-62833249D01*
X73815235Y-62856348D01*
X73821196Y-62880147D01*
X73824796Y-62904415D01*
X73826000Y-62928919D01*
X73826000Y-63578921D01*
X73824796Y-63603425D01*
X73821196Y-63627693D01*
X73815235Y-63651492D01*
X73806970Y-63674591D01*
X73796480Y-63696770D01*
X73783868Y-63717813D01*
X73769253Y-63737519D01*
X73752777Y-63755697D01*
X73734599Y-63772173D01*
X73714893Y-63786788D01*
X73693850Y-63799400D01*
X73671671Y-63809890D01*
X73648572Y-63818155D01*
X73624773Y-63824116D01*
X73600505Y-63827716D01*
X73576001Y-63828920D01*
X72675999Y-63828920D01*
X72651495Y-63827716D01*
X72627227Y-63824116D01*
X72603428Y-63818155D01*
X72580329Y-63809890D01*
X72558150Y-63799400D01*
X72537107Y-63786788D01*
X72517401Y-63772173D01*
X72499223Y-63755697D01*
X72482747Y-63737519D01*
X72468132Y-63717813D01*
X72455520Y-63696770D01*
X72445030Y-63674591D01*
X72436765Y-63651492D01*
X72430804Y-63627693D01*
X72427204Y-63603425D01*
X72426000Y-63578921D01*
X72426000Y-62928919D01*
X72427204Y-62904415D01*
X72430804Y-62880147D01*
X72436765Y-62856348D01*
X72445030Y-62833249D01*
X72455520Y-62811070D01*
X72468132Y-62790027D01*
X72482747Y-62770321D01*
X72499223Y-62752143D01*
X72517401Y-62735667D01*
X72537107Y-62721052D01*
X72558150Y-62708440D01*
X72580329Y-62697950D01*
X72603428Y-62689685D01*
X72627227Y-62683724D01*
X72651495Y-62680124D01*
X72675999Y-62678920D01*
X73576001Y-62678920D01*
X73600505Y-62680124D01*
G37*
G36*
X73600505Y-60630124D02*
G01*
X73624773Y-60633724D01*
X73648572Y-60639685D01*
X73671671Y-60647950D01*
X73693850Y-60658440D01*
X73714893Y-60671052D01*
X73734599Y-60685667D01*
X73752777Y-60702143D01*
X73769253Y-60720321D01*
X73783868Y-60740027D01*
X73796480Y-60761070D01*
X73806970Y-60783249D01*
X73815235Y-60806348D01*
X73821196Y-60830147D01*
X73824796Y-60854415D01*
X73826000Y-60878919D01*
X73826000Y-61528921D01*
X73824796Y-61553425D01*
X73821196Y-61577693D01*
X73815235Y-61601492D01*
X73806970Y-61624591D01*
X73796480Y-61646770D01*
X73783868Y-61667813D01*
X73769253Y-61687519D01*
X73752777Y-61705697D01*
X73734599Y-61722173D01*
X73714893Y-61736788D01*
X73693850Y-61749400D01*
X73671671Y-61759890D01*
X73648572Y-61768155D01*
X73624773Y-61774116D01*
X73600505Y-61777716D01*
X73576001Y-61778920D01*
X72675999Y-61778920D01*
X72651495Y-61777716D01*
X72627227Y-61774116D01*
X72603428Y-61768155D01*
X72580329Y-61759890D01*
X72558150Y-61749400D01*
X72537107Y-61736788D01*
X72517401Y-61722173D01*
X72499223Y-61705697D01*
X72482747Y-61687519D01*
X72468132Y-61667813D01*
X72455520Y-61646770D01*
X72445030Y-61624591D01*
X72436765Y-61601492D01*
X72430804Y-61577693D01*
X72427204Y-61553425D01*
X72426000Y-61528921D01*
X72426000Y-60878919D01*
X72427204Y-60854415D01*
X72430804Y-60830147D01*
X72436765Y-60806348D01*
X72445030Y-60783249D01*
X72455520Y-60761070D01*
X72468132Y-60740027D01*
X72482747Y-60720321D01*
X72499223Y-60702143D01*
X72517401Y-60685667D01*
X72537107Y-60671052D01*
X72558150Y-60658440D01*
X72580329Y-60647950D01*
X72603428Y-60639685D01*
X72627227Y-60633724D01*
X72651495Y-60630124D01*
X72675999Y-60628920D01*
X73576001Y-60628920D01*
X73600505Y-60630124D01*
G37*
G36*
X134814505Y-126666124D02*
G01*
X134838773Y-126669724D01*
X134862572Y-126675685D01*
X134885671Y-126683950D01*
X134907850Y-126694440D01*
X134928893Y-126707052D01*
X134948599Y-126721667D01*
X134966777Y-126738143D01*
X134983253Y-126756321D01*
X134997868Y-126776027D01*
X135010480Y-126797070D01*
X135020970Y-126819249D01*
X135029235Y-126842348D01*
X135035196Y-126866147D01*
X135038796Y-126890415D01*
X135040000Y-126914919D01*
X135040000Y-127814921D01*
X135038796Y-127839425D01*
X135035196Y-127863693D01*
X135029235Y-127887492D01*
X135020970Y-127910591D01*
X135010480Y-127932770D01*
X134997868Y-127953813D01*
X134983253Y-127973519D01*
X134966777Y-127991697D01*
X134948599Y-128008173D01*
X134928893Y-128022788D01*
X134907850Y-128035400D01*
X134885671Y-128045890D01*
X134862572Y-128054155D01*
X134838773Y-128060116D01*
X134814505Y-128063716D01*
X134790001Y-128064920D01*
X134139999Y-128064920D01*
X134115495Y-128063716D01*
X134091227Y-128060116D01*
X134067428Y-128054155D01*
X134044329Y-128045890D01*
X134022150Y-128035400D01*
X134001107Y-128022788D01*
X133981401Y-128008173D01*
X133963223Y-127991697D01*
X133946747Y-127973519D01*
X133932132Y-127953813D01*
X133919520Y-127932770D01*
X133909030Y-127910591D01*
X133900765Y-127887492D01*
X133894804Y-127863693D01*
X133891204Y-127839425D01*
X133890000Y-127814921D01*
X133890000Y-126914919D01*
X133891204Y-126890415D01*
X133894804Y-126866147D01*
X133900765Y-126842348D01*
X133909030Y-126819249D01*
X133919520Y-126797070D01*
X133932132Y-126776027D01*
X133946747Y-126756321D01*
X133963223Y-126738143D01*
X133981401Y-126721667D01*
X134001107Y-126707052D01*
X134022150Y-126694440D01*
X134044329Y-126683950D01*
X134067428Y-126675685D01*
X134091227Y-126669724D01*
X134115495Y-126666124D01*
X134139999Y-126664920D01*
X134790001Y-126664920D01*
X134814505Y-126666124D01*
G37*
G36*
X132764505Y-126666124D02*
G01*
X132788773Y-126669724D01*
X132812572Y-126675685D01*
X132835671Y-126683950D01*
X132857850Y-126694440D01*
X132878893Y-126707052D01*
X132898599Y-126721667D01*
X132916777Y-126738143D01*
X132933253Y-126756321D01*
X132947868Y-126776027D01*
X132960480Y-126797070D01*
X132970970Y-126819249D01*
X132979235Y-126842348D01*
X132985196Y-126866147D01*
X132988796Y-126890415D01*
X132990000Y-126914919D01*
X132990000Y-127814921D01*
X132988796Y-127839425D01*
X132985196Y-127863693D01*
X132979235Y-127887492D01*
X132970970Y-127910591D01*
X132960480Y-127932770D01*
X132947868Y-127953813D01*
X132933253Y-127973519D01*
X132916777Y-127991697D01*
X132898599Y-128008173D01*
X132878893Y-128022788D01*
X132857850Y-128035400D01*
X132835671Y-128045890D01*
X132812572Y-128054155D01*
X132788773Y-128060116D01*
X132764505Y-128063716D01*
X132740001Y-128064920D01*
X132089999Y-128064920D01*
X132065495Y-128063716D01*
X132041227Y-128060116D01*
X132017428Y-128054155D01*
X131994329Y-128045890D01*
X131972150Y-128035400D01*
X131951107Y-128022788D01*
X131931401Y-128008173D01*
X131913223Y-127991697D01*
X131896747Y-127973519D01*
X131882132Y-127953813D01*
X131869520Y-127932770D01*
X131859030Y-127910591D01*
X131850765Y-127887492D01*
X131844804Y-127863693D01*
X131841204Y-127839425D01*
X131840000Y-127814921D01*
X131840000Y-126914919D01*
X131841204Y-126890415D01*
X131844804Y-126866147D01*
X131850765Y-126842348D01*
X131859030Y-126819249D01*
X131869520Y-126797070D01*
X131882132Y-126776027D01*
X131896747Y-126756321D01*
X131913223Y-126738143D01*
X131931401Y-126721667D01*
X131951107Y-126707052D01*
X131972150Y-126694440D01*
X131994329Y-126683950D01*
X132017428Y-126675685D01*
X132041227Y-126669724D01*
X132065495Y-126666124D01*
X132089999Y-126664920D01*
X132740001Y-126664920D01*
X132764505Y-126666124D01*
G37*
D25*
X72680000Y-54503920D03*
X74080000Y-54503920D03*
X72680000Y-57253920D03*
X74080000Y-57253920D03*
D10*
G36*
X82236505Y-66744124D02*
G01*
X82260773Y-66747724D01*
X82284572Y-66753685D01*
X82307671Y-66761950D01*
X82329850Y-66772440D01*
X82350893Y-66785052D01*
X82370599Y-66799667D01*
X82388777Y-66816143D01*
X82405253Y-66834321D01*
X82419868Y-66854027D01*
X82432480Y-66875070D01*
X82442970Y-66897249D01*
X82451235Y-66920348D01*
X82457196Y-66944147D01*
X82460796Y-66968415D01*
X82462000Y-66992919D01*
X82462000Y-67642921D01*
X82460796Y-67667425D01*
X82457196Y-67691693D01*
X82451235Y-67715492D01*
X82442970Y-67738591D01*
X82432480Y-67760770D01*
X82419868Y-67781813D01*
X82405253Y-67801519D01*
X82388777Y-67819697D01*
X82370599Y-67836173D01*
X82350893Y-67850788D01*
X82329850Y-67863400D01*
X82307671Y-67873890D01*
X82284572Y-67882155D01*
X82260773Y-67888116D01*
X82236505Y-67891716D01*
X82212001Y-67892920D01*
X81311999Y-67892920D01*
X81287495Y-67891716D01*
X81263227Y-67888116D01*
X81239428Y-67882155D01*
X81216329Y-67873890D01*
X81194150Y-67863400D01*
X81173107Y-67850788D01*
X81153401Y-67836173D01*
X81135223Y-67819697D01*
X81118747Y-67801519D01*
X81104132Y-67781813D01*
X81091520Y-67760770D01*
X81081030Y-67738591D01*
X81072765Y-67715492D01*
X81066804Y-67691693D01*
X81063204Y-67667425D01*
X81062000Y-67642921D01*
X81062000Y-66992919D01*
X81063204Y-66968415D01*
X81066804Y-66944147D01*
X81072765Y-66920348D01*
X81081030Y-66897249D01*
X81091520Y-66875070D01*
X81104132Y-66854027D01*
X81118747Y-66834321D01*
X81135223Y-66816143D01*
X81153401Y-66799667D01*
X81173107Y-66785052D01*
X81194150Y-66772440D01*
X81216329Y-66761950D01*
X81239428Y-66753685D01*
X81263227Y-66747724D01*
X81287495Y-66744124D01*
X81311999Y-66742920D01*
X82212001Y-66742920D01*
X82236505Y-66744124D01*
G37*
G36*
X82236505Y-64694124D02*
G01*
X82260773Y-64697724D01*
X82284572Y-64703685D01*
X82307671Y-64711950D01*
X82329850Y-64722440D01*
X82350893Y-64735052D01*
X82370599Y-64749667D01*
X82388777Y-64766143D01*
X82405253Y-64784321D01*
X82419868Y-64804027D01*
X82432480Y-64825070D01*
X82442970Y-64847249D01*
X82451235Y-64870348D01*
X82457196Y-64894147D01*
X82460796Y-64918415D01*
X82462000Y-64942919D01*
X82462000Y-65592921D01*
X82460796Y-65617425D01*
X82457196Y-65641693D01*
X82451235Y-65665492D01*
X82442970Y-65688591D01*
X82432480Y-65710770D01*
X82419868Y-65731813D01*
X82405253Y-65751519D01*
X82388777Y-65769697D01*
X82370599Y-65786173D01*
X82350893Y-65800788D01*
X82329850Y-65813400D01*
X82307671Y-65823890D01*
X82284572Y-65832155D01*
X82260773Y-65838116D01*
X82236505Y-65841716D01*
X82212001Y-65842920D01*
X81311999Y-65842920D01*
X81287495Y-65841716D01*
X81263227Y-65838116D01*
X81239428Y-65832155D01*
X81216329Y-65823890D01*
X81194150Y-65813400D01*
X81173107Y-65800788D01*
X81153401Y-65786173D01*
X81135223Y-65769697D01*
X81118747Y-65751519D01*
X81104132Y-65731813D01*
X81091520Y-65710770D01*
X81081030Y-65688591D01*
X81072765Y-65665492D01*
X81066804Y-65641693D01*
X81063204Y-65617425D01*
X81062000Y-65592921D01*
X81062000Y-64942919D01*
X81063204Y-64918415D01*
X81066804Y-64894147D01*
X81072765Y-64870348D01*
X81081030Y-64847249D01*
X81091520Y-64825070D01*
X81104132Y-64804027D01*
X81118747Y-64784321D01*
X81135223Y-64766143D01*
X81153401Y-64749667D01*
X81173107Y-64735052D01*
X81194150Y-64722440D01*
X81216329Y-64711950D01*
X81239428Y-64703685D01*
X81263227Y-64697724D01*
X81287495Y-64694124D01*
X81311999Y-64692920D01*
X82212001Y-64692920D01*
X82236505Y-64694124D01*
G37*
G36*
X157674505Y-73584124D02*
G01*
X157698773Y-73587724D01*
X157722572Y-73593685D01*
X157745671Y-73601950D01*
X157767850Y-73612440D01*
X157788893Y-73625052D01*
X157808599Y-73639667D01*
X157826777Y-73656143D01*
X157843253Y-73674321D01*
X157857868Y-73694027D01*
X157870480Y-73715070D01*
X157880970Y-73737249D01*
X157889235Y-73760348D01*
X157895196Y-73784147D01*
X157898796Y-73808415D01*
X157900000Y-73832919D01*
X157900000Y-74482921D01*
X157898796Y-74507425D01*
X157895196Y-74531693D01*
X157889235Y-74555492D01*
X157880970Y-74578591D01*
X157870480Y-74600770D01*
X157857868Y-74621813D01*
X157843253Y-74641519D01*
X157826777Y-74659697D01*
X157808599Y-74676173D01*
X157788893Y-74690788D01*
X157767850Y-74703400D01*
X157745671Y-74713890D01*
X157722572Y-74722155D01*
X157698773Y-74728116D01*
X157674505Y-74731716D01*
X157650001Y-74732920D01*
X156749999Y-74732920D01*
X156725495Y-74731716D01*
X156701227Y-74728116D01*
X156677428Y-74722155D01*
X156654329Y-74713890D01*
X156632150Y-74703400D01*
X156611107Y-74690788D01*
X156591401Y-74676173D01*
X156573223Y-74659697D01*
X156556747Y-74641519D01*
X156542132Y-74621813D01*
X156529520Y-74600770D01*
X156519030Y-74578591D01*
X156510765Y-74555492D01*
X156504804Y-74531693D01*
X156501204Y-74507425D01*
X156500000Y-74482921D01*
X156500000Y-73832919D01*
X156501204Y-73808415D01*
X156504804Y-73784147D01*
X156510765Y-73760348D01*
X156519030Y-73737249D01*
X156529520Y-73715070D01*
X156542132Y-73694027D01*
X156556747Y-73674321D01*
X156573223Y-73656143D01*
X156591401Y-73639667D01*
X156611107Y-73625052D01*
X156632150Y-73612440D01*
X156654329Y-73601950D01*
X156677428Y-73593685D01*
X156701227Y-73587724D01*
X156725495Y-73584124D01*
X156749999Y-73582920D01*
X157650001Y-73582920D01*
X157674505Y-73584124D01*
G37*
G36*
X157674505Y-75634124D02*
G01*
X157698773Y-75637724D01*
X157722572Y-75643685D01*
X157745671Y-75651950D01*
X157767850Y-75662440D01*
X157788893Y-75675052D01*
X157808599Y-75689667D01*
X157826777Y-75706143D01*
X157843253Y-75724321D01*
X157857868Y-75744027D01*
X157870480Y-75765070D01*
X157880970Y-75787249D01*
X157889235Y-75810348D01*
X157895196Y-75834147D01*
X157898796Y-75858415D01*
X157900000Y-75882919D01*
X157900000Y-76532921D01*
X157898796Y-76557425D01*
X157895196Y-76581693D01*
X157889235Y-76605492D01*
X157880970Y-76628591D01*
X157870480Y-76650770D01*
X157857868Y-76671813D01*
X157843253Y-76691519D01*
X157826777Y-76709697D01*
X157808599Y-76726173D01*
X157788893Y-76740788D01*
X157767850Y-76753400D01*
X157745671Y-76763890D01*
X157722572Y-76772155D01*
X157698773Y-76778116D01*
X157674505Y-76781716D01*
X157650001Y-76782920D01*
X156749999Y-76782920D01*
X156725495Y-76781716D01*
X156701227Y-76778116D01*
X156677428Y-76772155D01*
X156654329Y-76763890D01*
X156632150Y-76753400D01*
X156611107Y-76740788D01*
X156591401Y-76726173D01*
X156573223Y-76709697D01*
X156556747Y-76691519D01*
X156542132Y-76671813D01*
X156529520Y-76650770D01*
X156519030Y-76628591D01*
X156510765Y-76605492D01*
X156504804Y-76581693D01*
X156501204Y-76557425D01*
X156500000Y-76532921D01*
X156500000Y-75882919D01*
X156501204Y-75858415D01*
X156504804Y-75834147D01*
X156510765Y-75810348D01*
X156519030Y-75787249D01*
X156529520Y-75765070D01*
X156542132Y-75744027D01*
X156556747Y-75724321D01*
X156573223Y-75706143D01*
X156591401Y-75689667D01*
X156611107Y-75675052D01*
X156632150Y-75662440D01*
X156654329Y-75651950D01*
X156677428Y-75643685D01*
X156701227Y-75637724D01*
X156725495Y-75634124D01*
X156749999Y-75632920D01*
X157650001Y-75632920D01*
X157674505Y-75634124D01*
G37*
G36*
X160468505Y-73584124D02*
G01*
X160492773Y-73587724D01*
X160516572Y-73593685D01*
X160539671Y-73601950D01*
X160561850Y-73612440D01*
X160582893Y-73625052D01*
X160602599Y-73639667D01*
X160620777Y-73656143D01*
X160637253Y-73674321D01*
X160651868Y-73694027D01*
X160664480Y-73715070D01*
X160674970Y-73737249D01*
X160683235Y-73760348D01*
X160689196Y-73784147D01*
X160692796Y-73808415D01*
X160694000Y-73832919D01*
X160694000Y-74482921D01*
X160692796Y-74507425D01*
X160689196Y-74531693D01*
X160683235Y-74555492D01*
X160674970Y-74578591D01*
X160664480Y-74600770D01*
X160651868Y-74621813D01*
X160637253Y-74641519D01*
X160620777Y-74659697D01*
X160602599Y-74676173D01*
X160582893Y-74690788D01*
X160561850Y-74703400D01*
X160539671Y-74713890D01*
X160516572Y-74722155D01*
X160492773Y-74728116D01*
X160468505Y-74731716D01*
X160444001Y-74732920D01*
X159543999Y-74732920D01*
X159519495Y-74731716D01*
X159495227Y-74728116D01*
X159471428Y-74722155D01*
X159448329Y-74713890D01*
X159426150Y-74703400D01*
X159405107Y-74690788D01*
X159385401Y-74676173D01*
X159367223Y-74659697D01*
X159350747Y-74641519D01*
X159336132Y-74621813D01*
X159323520Y-74600770D01*
X159313030Y-74578591D01*
X159304765Y-74555492D01*
X159298804Y-74531693D01*
X159295204Y-74507425D01*
X159294000Y-74482921D01*
X159294000Y-73832919D01*
X159295204Y-73808415D01*
X159298804Y-73784147D01*
X159304765Y-73760348D01*
X159313030Y-73737249D01*
X159323520Y-73715070D01*
X159336132Y-73694027D01*
X159350747Y-73674321D01*
X159367223Y-73656143D01*
X159385401Y-73639667D01*
X159405107Y-73625052D01*
X159426150Y-73612440D01*
X159448329Y-73601950D01*
X159471428Y-73593685D01*
X159495227Y-73587724D01*
X159519495Y-73584124D01*
X159543999Y-73582920D01*
X160444001Y-73582920D01*
X160468505Y-73584124D01*
G37*
G36*
X160468505Y-75634124D02*
G01*
X160492773Y-75637724D01*
X160516572Y-75643685D01*
X160539671Y-75651950D01*
X160561850Y-75662440D01*
X160582893Y-75675052D01*
X160602599Y-75689667D01*
X160620777Y-75706143D01*
X160637253Y-75724321D01*
X160651868Y-75744027D01*
X160664480Y-75765070D01*
X160674970Y-75787249D01*
X160683235Y-75810348D01*
X160689196Y-75834147D01*
X160692796Y-75858415D01*
X160694000Y-75882919D01*
X160694000Y-76532921D01*
X160692796Y-76557425D01*
X160689196Y-76581693D01*
X160683235Y-76605492D01*
X160674970Y-76628591D01*
X160664480Y-76650770D01*
X160651868Y-76671813D01*
X160637253Y-76691519D01*
X160620777Y-76709697D01*
X160602599Y-76726173D01*
X160582893Y-76740788D01*
X160561850Y-76753400D01*
X160539671Y-76763890D01*
X160516572Y-76772155D01*
X160492773Y-76778116D01*
X160468505Y-76781716D01*
X160444001Y-76782920D01*
X159543999Y-76782920D01*
X159519495Y-76781716D01*
X159495227Y-76778116D01*
X159471428Y-76772155D01*
X159448329Y-76763890D01*
X159426150Y-76753400D01*
X159405107Y-76740788D01*
X159385401Y-76726173D01*
X159367223Y-76709697D01*
X159350747Y-76691519D01*
X159336132Y-76671813D01*
X159323520Y-76650770D01*
X159313030Y-76628591D01*
X159304765Y-76605492D01*
X159298804Y-76581693D01*
X159295204Y-76557425D01*
X159294000Y-76532921D01*
X159294000Y-75882919D01*
X159295204Y-75858415D01*
X159298804Y-75834147D01*
X159304765Y-75810348D01*
X159313030Y-75787249D01*
X159323520Y-75765070D01*
X159336132Y-75744027D01*
X159350747Y-75724321D01*
X159367223Y-75706143D01*
X159385401Y-75689667D01*
X159405107Y-75675052D01*
X159426150Y-75662440D01*
X159448329Y-75651950D01*
X159471428Y-75643685D01*
X159495227Y-75637724D01*
X159519495Y-75634124D01*
X159543999Y-75632920D01*
X160444001Y-75632920D01*
X160468505Y-75634124D01*
G37*
D26*
X126305000Y-61839920D03*
D27*
X120005000Y-64119920D03*
X120005000Y-59559920D03*
D28*
X83980000Y-56264920D03*
D29*
X86260000Y-62564920D03*
X81700000Y-62564920D03*
D30*
X98170000Y-47364920D03*
X98170000Y-55364920D03*
X103250000Y-47364920D03*
X108330000Y-47364920D03*
X103250000Y-55364920D03*
X108330000Y-55364920D03*
X100710000Y-47364920D03*
X100710000Y-55364920D03*
D11*
X101066000Y-92454920D03*
X98526000Y-92454920D03*
D12*
X95986000Y-92454920D03*
D11*
X170980000Y-131444920D03*
X170980000Y-128904920D03*
D12*
X170980000Y-126364920D03*
D31*
X173378000Y-40130920D03*
X169878000Y-40130920D03*
X166378000Y-40130920D03*
X162878000Y-40130920D03*
X159378000Y-40130920D03*
X155878000Y-40130920D03*
X152378000Y-40130920D03*
X148878000Y-40130920D03*
X145378000Y-40130920D03*
X141878000Y-40130920D03*
X138378000Y-40130920D03*
X134878000Y-40130920D03*
X131378000Y-40130920D03*
X127878000Y-40130920D03*
X124378000Y-40130920D03*
D32*
X120878000Y-40130920D03*
D11*
X101066000Y-87374920D03*
X98526000Y-87374920D03*
X95986000Y-87374920D03*
X93446000Y-87374920D03*
X90906000Y-87374920D03*
D12*
X88366000Y-87374920D03*
D33*
X72612000Y-119910000D03*
D10*
G36*
X70716505Y-118811204D02*
G01*
X70740773Y-118814804D01*
X70764572Y-118820765D01*
X70787671Y-118829030D01*
X70809850Y-118839520D01*
X70830893Y-118852132D01*
X70850599Y-118866747D01*
X70868777Y-118883223D01*
X70885253Y-118901401D01*
X70899868Y-118921107D01*
X70912480Y-118942150D01*
X70922970Y-118964329D01*
X70931235Y-118987428D01*
X70937196Y-119011227D01*
X70940796Y-119035495D01*
X70942000Y-119059999D01*
X70942000Y-120760001D01*
X70940796Y-120784505D01*
X70937196Y-120808773D01*
X70931235Y-120832572D01*
X70922970Y-120855671D01*
X70912480Y-120877850D01*
X70899868Y-120898893D01*
X70885253Y-120918599D01*
X70868777Y-120936777D01*
X70850599Y-120953253D01*
X70830893Y-120967868D01*
X70809850Y-120980480D01*
X70787671Y-120990970D01*
X70764572Y-120999235D01*
X70740773Y-121005196D01*
X70716505Y-121008796D01*
X70692001Y-121010000D01*
X69451999Y-121010000D01*
X69427495Y-121008796D01*
X69403227Y-121005196D01*
X69379428Y-120999235D01*
X69356329Y-120990970D01*
X69334150Y-120980480D01*
X69313107Y-120967868D01*
X69293401Y-120953253D01*
X69275223Y-120936777D01*
X69258747Y-120918599D01*
X69244132Y-120898893D01*
X69231520Y-120877850D01*
X69221030Y-120855671D01*
X69212765Y-120832572D01*
X69206804Y-120808773D01*
X69203204Y-120784505D01*
X69202000Y-120760001D01*
X69202000Y-119059999D01*
X69203204Y-119035495D01*
X69206804Y-119011227D01*
X69212765Y-118987428D01*
X69221030Y-118964329D01*
X69231520Y-118942150D01*
X69244132Y-118921107D01*
X69258747Y-118901401D01*
X69275223Y-118883223D01*
X69293401Y-118866747D01*
X69313107Y-118852132D01*
X69334150Y-118839520D01*
X69356329Y-118829030D01*
X69379428Y-118820765D01*
X69403227Y-118814804D01*
X69427495Y-118811204D01*
X69451999Y-118810000D01*
X70692001Y-118810000D01*
X70716505Y-118811204D01*
G37*
D33*
X143520000Y-126364920D03*
X140980000Y-126364920D03*
D10*
G36*
X139084505Y-125266124D02*
G01*
X139108773Y-125269724D01*
X139132572Y-125275685D01*
X139155671Y-125283950D01*
X139177850Y-125294440D01*
X139198893Y-125307052D01*
X139218599Y-125321667D01*
X139236777Y-125338143D01*
X139253253Y-125356321D01*
X139267868Y-125376027D01*
X139280480Y-125397070D01*
X139290970Y-125419249D01*
X139299235Y-125442348D01*
X139305196Y-125466147D01*
X139308796Y-125490415D01*
X139310000Y-125514919D01*
X139310000Y-127214921D01*
X139308796Y-127239425D01*
X139305196Y-127263693D01*
X139299235Y-127287492D01*
X139290970Y-127310591D01*
X139280480Y-127332770D01*
X139267868Y-127353813D01*
X139253253Y-127373519D01*
X139236777Y-127391697D01*
X139218599Y-127408173D01*
X139198893Y-127422788D01*
X139177850Y-127435400D01*
X139155671Y-127445890D01*
X139132572Y-127454155D01*
X139108773Y-127460116D01*
X139084505Y-127463716D01*
X139060001Y-127464920D01*
X137819999Y-127464920D01*
X137795495Y-127463716D01*
X137771227Y-127460116D01*
X137747428Y-127454155D01*
X137724329Y-127445890D01*
X137702150Y-127435400D01*
X137681107Y-127422788D01*
X137661401Y-127408173D01*
X137643223Y-127391697D01*
X137626747Y-127373519D01*
X137612132Y-127353813D01*
X137599520Y-127332770D01*
X137589030Y-127310591D01*
X137580765Y-127287492D01*
X137574804Y-127263693D01*
X137571204Y-127239425D01*
X137570000Y-127214921D01*
X137570000Y-125514919D01*
X137571204Y-125490415D01*
X137574804Y-125466147D01*
X137580765Y-125442348D01*
X137589030Y-125419249D01*
X137599520Y-125397070D01*
X137612132Y-125376027D01*
X137626747Y-125356321D01*
X137643223Y-125338143D01*
X137661401Y-125321667D01*
X137681107Y-125307052D01*
X137702150Y-125294440D01*
X137724329Y-125283950D01*
X137747428Y-125275685D01*
X137771227Y-125269724D01*
X137795495Y-125266124D01*
X137819999Y-125264920D01*
X139060001Y-125264920D01*
X139084505Y-125266124D01*
G37*
D33*
X56360000Y-40364920D03*
X58900000Y-40364920D03*
X61440000Y-40364920D03*
D10*
G36*
X64624505Y-39266124D02*
G01*
X64648773Y-39269724D01*
X64672572Y-39275685D01*
X64695671Y-39283950D01*
X64717850Y-39294440D01*
X64738893Y-39307052D01*
X64758599Y-39321667D01*
X64776777Y-39338143D01*
X64793253Y-39356321D01*
X64807868Y-39376027D01*
X64820480Y-39397070D01*
X64830970Y-39419249D01*
X64839235Y-39442348D01*
X64845196Y-39466147D01*
X64848796Y-39490415D01*
X64850000Y-39514919D01*
X64850000Y-41214921D01*
X64848796Y-41239425D01*
X64845196Y-41263693D01*
X64839235Y-41287492D01*
X64830970Y-41310591D01*
X64820480Y-41332770D01*
X64807868Y-41353813D01*
X64793253Y-41373519D01*
X64776777Y-41391697D01*
X64758599Y-41408173D01*
X64738893Y-41422788D01*
X64717850Y-41435400D01*
X64695671Y-41445890D01*
X64672572Y-41454155D01*
X64648773Y-41460116D01*
X64624505Y-41463716D01*
X64600001Y-41464920D01*
X63359999Y-41464920D01*
X63335495Y-41463716D01*
X63311227Y-41460116D01*
X63287428Y-41454155D01*
X63264329Y-41445890D01*
X63242150Y-41435400D01*
X63221107Y-41422788D01*
X63201401Y-41408173D01*
X63183223Y-41391697D01*
X63166747Y-41373519D01*
X63152132Y-41353813D01*
X63139520Y-41332770D01*
X63129030Y-41310591D01*
X63120765Y-41287492D01*
X63114804Y-41263693D01*
X63111204Y-41239425D01*
X63110000Y-41214921D01*
X63110000Y-39514919D01*
X63111204Y-39490415D01*
X63114804Y-39466147D01*
X63120765Y-39442348D01*
X63129030Y-39419249D01*
X63139520Y-39397070D01*
X63152132Y-39376027D01*
X63166747Y-39356321D01*
X63183223Y-39338143D01*
X63201401Y-39321667D01*
X63221107Y-39307052D01*
X63242150Y-39294440D01*
X63264329Y-39283950D01*
X63287428Y-39275685D01*
X63311227Y-39269724D01*
X63335495Y-39266124D01*
X63359999Y-39264920D01*
X64600001Y-39264920D01*
X64624505Y-39266124D01*
G37*
D33*
X196140000Y-130364920D03*
D10*
G36*
X194244505Y-129266124D02*
G01*
X194268773Y-129269724D01*
X194292572Y-129275685D01*
X194315671Y-129283950D01*
X194337850Y-129294440D01*
X194358893Y-129307052D01*
X194378599Y-129321667D01*
X194396777Y-129338143D01*
X194413253Y-129356321D01*
X194427868Y-129376027D01*
X194440480Y-129397070D01*
X194450970Y-129419249D01*
X194459235Y-129442348D01*
X194465196Y-129466147D01*
X194468796Y-129490415D01*
X194470000Y-129514919D01*
X194470000Y-131214921D01*
X194468796Y-131239425D01*
X194465196Y-131263693D01*
X194459235Y-131287492D01*
X194450970Y-131310591D01*
X194440480Y-131332770D01*
X194427868Y-131353813D01*
X194413253Y-131373519D01*
X194396777Y-131391697D01*
X194378599Y-131408173D01*
X194358893Y-131422788D01*
X194337850Y-131435400D01*
X194315671Y-131445890D01*
X194292572Y-131454155D01*
X194268773Y-131460116D01*
X194244505Y-131463716D01*
X194220001Y-131464920D01*
X192979999Y-131464920D01*
X192955495Y-131463716D01*
X192931227Y-131460116D01*
X192907428Y-131454155D01*
X192884329Y-131445890D01*
X192862150Y-131435400D01*
X192841107Y-131422788D01*
X192821401Y-131408173D01*
X192803223Y-131391697D01*
X192786747Y-131373519D01*
X192772132Y-131353813D01*
X192759520Y-131332770D01*
X192749030Y-131310591D01*
X192740765Y-131287492D01*
X192734804Y-131263693D01*
X192731204Y-131239425D01*
X192730000Y-131214921D01*
X192730000Y-129514919D01*
X192731204Y-129490415D01*
X192734804Y-129466147D01*
X192740765Y-129442348D01*
X192749030Y-129419249D01*
X192759520Y-129397070D01*
X192772132Y-129376027D01*
X192786747Y-129356321D01*
X192803223Y-129338143D01*
X192821401Y-129321667D01*
X192841107Y-129307052D01*
X192862150Y-129294440D01*
X192884329Y-129283950D01*
X192907428Y-129275685D01*
X192931227Y-129269724D01*
X192955495Y-129266124D01*
X192979999Y-129264920D01*
X194220001Y-129264920D01*
X194244505Y-129266124D01*
G37*
D33*
X98520000Y-39364920D03*
D10*
G36*
X96624505Y-38266124D02*
G01*
X96648773Y-38269724D01*
X96672572Y-38275685D01*
X96695671Y-38283950D01*
X96717850Y-38294440D01*
X96738893Y-38307052D01*
X96758599Y-38321667D01*
X96776777Y-38338143D01*
X96793253Y-38356321D01*
X96807868Y-38376027D01*
X96820480Y-38397070D01*
X96830970Y-38419249D01*
X96839235Y-38442348D01*
X96845196Y-38466147D01*
X96848796Y-38490415D01*
X96850000Y-38514919D01*
X96850000Y-40214921D01*
X96848796Y-40239425D01*
X96845196Y-40263693D01*
X96839235Y-40287492D01*
X96830970Y-40310591D01*
X96820480Y-40332770D01*
X96807868Y-40353813D01*
X96793253Y-40373519D01*
X96776777Y-40391697D01*
X96758599Y-40408173D01*
X96738893Y-40422788D01*
X96717850Y-40435400D01*
X96695671Y-40445890D01*
X96672572Y-40454155D01*
X96648773Y-40460116D01*
X96624505Y-40463716D01*
X96600001Y-40464920D01*
X95359999Y-40464920D01*
X95335495Y-40463716D01*
X95311227Y-40460116D01*
X95287428Y-40454155D01*
X95264329Y-40445890D01*
X95242150Y-40435400D01*
X95221107Y-40422788D01*
X95201401Y-40408173D01*
X95183223Y-40391697D01*
X95166747Y-40373519D01*
X95152132Y-40353813D01*
X95139520Y-40332770D01*
X95129030Y-40310591D01*
X95120765Y-40287492D01*
X95114804Y-40263693D01*
X95111204Y-40239425D01*
X95110000Y-40214921D01*
X95110000Y-38514919D01*
X95111204Y-38490415D01*
X95114804Y-38466147D01*
X95120765Y-38442348D01*
X95129030Y-38419249D01*
X95139520Y-38397070D01*
X95152132Y-38376027D01*
X95166747Y-38356321D01*
X95183223Y-38338143D01*
X95201401Y-38321667D01*
X95221107Y-38307052D01*
X95242150Y-38294440D01*
X95264329Y-38283950D01*
X95287428Y-38275685D01*
X95311227Y-38269724D01*
X95335495Y-38266124D01*
X95359999Y-38264920D01*
X96600001Y-38264920D01*
X96624505Y-38266124D01*
G37*
D33*
X105520000Y-39364920D03*
D10*
G36*
X103624505Y-38266124D02*
G01*
X103648773Y-38269724D01*
X103672572Y-38275685D01*
X103695671Y-38283950D01*
X103717850Y-38294440D01*
X103738893Y-38307052D01*
X103758599Y-38321667D01*
X103776777Y-38338143D01*
X103793253Y-38356321D01*
X103807868Y-38376027D01*
X103820480Y-38397070D01*
X103830970Y-38419249D01*
X103839235Y-38442348D01*
X103845196Y-38466147D01*
X103848796Y-38490415D01*
X103850000Y-38514919D01*
X103850000Y-40214921D01*
X103848796Y-40239425D01*
X103845196Y-40263693D01*
X103839235Y-40287492D01*
X103830970Y-40310591D01*
X103820480Y-40332770D01*
X103807868Y-40353813D01*
X103793253Y-40373519D01*
X103776777Y-40391697D01*
X103758599Y-40408173D01*
X103738893Y-40422788D01*
X103717850Y-40435400D01*
X103695671Y-40445890D01*
X103672572Y-40454155D01*
X103648773Y-40460116D01*
X103624505Y-40463716D01*
X103600001Y-40464920D01*
X102359999Y-40464920D01*
X102335495Y-40463716D01*
X102311227Y-40460116D01*
X102287428Y-40454155D01*
X102264329Y-40445890D01*
X102242150Y-40435400D01*
X102221107Y-40422788D01*
X102201401Y-40408173D01*
X102183223Y-40391697D01*
X102166747Y-40373519D01*
X102152132Y-40353813D01*
X102139520Y-40332770D01*
X102129030Y-40310591D01*
X102120765Y-40287492D01*
X102114804Y-40263693D01*
X102111204Y-40239425D01*
X102110000Y-40214921D01*
X102110000Y-38514919D01*
X102111204Y-38490415D01*
X102114804Y-38466147D01*
X102120765Y-38442348D01*
X102129030Y-38419249D01*
X102139520Y-38397070D01*
X102152132Y-38376027D01*
X102166747Y-38356321D01*
X102183223Y-38338143D01*
X102201401Y-38321667D01*
X102221107Y-38307052D01*
X102242150Y-38294440D01*
X102264329Y-38283950D01*
X102287428Y-38275685D01*
X102311227Y-38269724D01*
X102335495Y-38266124D01*
X102359999Y-38264920D01*
X103600001Y-38264920D01*
X103624505Y-38266124D01*
G37*
D33*
X83032000Y-39364920D03*
X80492000Y-39364920D03*
D10*
G36*
X78596505Y-38266124D02*
G01*
X78620773Y-38269724D01*
X78644572Y-38275685D01*
X78667671Y-38283950D01*
X78689850Y-38294440D01*
X78710893Y-38307052D01*
X78730599Y-38321667D01*
X78748777Y-38338143D01*
X78765253Y-38356321D01*
X78779868Y-38376027D01*
X78792480Y-38397070D01*
X78802970Y-38419249D01*
X78811235Y-38442348D01*
X78817196Y-38466147D01*
X78820796Y-38490415D01*
X78822000Y-38514919D01*
X78822000Y-40214921D01*
X78820796Y-40239425D01*
X78817196Y-40263693D01*
X78811235Y-40287492D01*
X78802970Y-40310591D01*
X78792480Y-40332770D01*
X78779868Y-40353813D01*
X78765253Y-40373519D01*
X78748777Y-40391697D01*
X78730599Y-40408173D01*
X78710893Y-40422788D01*
X78689850Y-40435400D01*
X78667671Y-40445890D01*
X78644572Y-40454155D01*
X78620773Y-40460116D01*
X78596505Y-40463716D01*
X78572001Y-40464920D01*
X77331999Y-40464920D01*
X77307495Y-40463716D01*
X77283227Y-40460116D01*
X77259428Y-40454155D01*
X77236329Y-40445890D01*
X77214150Y-40435400D01*
X77193107Y-40422788D01*
X77173401Y-40408173D01*
X77155223Y-40391697D01*
X77138747Y-40373519D01*
X77124132Y-40353813D01*
X77111520Y-40332770D01*
X77101030Y-40310591D01*
X77092765Y-40287492D01*
X77086804Y-40263693D01*
X77083204Y-40239425D01*
X77082000Y-40214921D01*
X77082000Y-38514919D01*
X77083204Y-38490415D01*
X77086804Y-38466147D01*
X77092765Y-38442348D01*
X77101030Y-38419249D01*
X77111520Y-38397070D01*
X77124132Y-38376027D01*
X77138747Y-38356321D01*
X77155223Y-38338143D01*
X77173401Y-38321667D01*
X77193107Y-38307052D01*
X77214150Y-38294440D01*
X77236329Y-38283950D01*
X77259428Y-38275685D01*
X77283227Y-38269724D01*
X77307495Y-38266124D01*
X77331999Y-38264920D01*
X78572001Y-38264920D01*
X78596505Y-38266124D01*
G37*
D33*
X189680000Y-130364920D03*
X187140000Y-130364920D03*
D10*
G36*
X185244505Y-129266124D02*
G01*
X185268773Y-129269724D01*
X185292572Y-129275685D01*
X185315671Y-129283950D01*
X185337850Y-129294440D01*
X185358893Y-129307052D01*
X185378599Y-129321667D01*
X185396777Y-129338143D01*
X185413253Y-129356321D01*
X185427868Y-129376027D01*
X185440480Y-129397070D01*
X185450970Y-129419249D01*
X185459235Y-129442348D01*
X185465196Y-129466147D01*
X185468796Y-129490415D01*
X185470000Y-129514919D01*
X185470000Y-131214921D01*
X185468796Y-131239425D01*
X185465196Y-131263693D01*
X185459235Y-131287492D01*
X185450970Y-131310591D01*
X185440480Y-131332770D01*
X185427868Y-131353813D01*
X185413253Y-131373519D01*
X185396777Y-131391697D01*
X185378599Y-131408173D01*
X185358893Y-131422788D01*
X185337850Y-131435400D01*
X185315671Y-131445890D01*
X185292572Y-131454155D01*
X185268773Y-131460116D01*
X185244505Y-131463716D01*
X185220001Y-131464920D01*
X183979999Y-131464920D01*
X183955495Y-131463716D01*
X183931227Y-131460116D01*
X183907428Y-131454155D01*
X183884329Y-131445890D01*
X183862150Y-131435400D01*
X183841107Y-131422788D01*
X183821401Y-131408173D01*
X183803223Y-131391697D01*
X183786747Y-131373519D01*
X183772132Y-131353813D01*
X183759520Y-131332770D01*
X183749030Y-131310591D01*
X183740765Y-131287492D01*
X183734804Y-131263693D01*
X183731204Y-131239425D01*
X183730000Y-131214921D01*
X183730000Y-129514919D01*
X183731204Y-129490415D01*
X183734804Y-129466147D01*
X183740765Y-129442348D01*
X183749030Y-129419249D01*
X183759520Y-129397070D01*
X183772132Y-129376027D01*
X183786747Y-129356321D01*
X183803223Y-129338143D01*
X183821401Y-129321667D01*
X183841107Y-129307052D01*
X183862150Y-129294440D01*
X183884329Y-129283950D01*
X183907428Y-129275685D01*
X183931227Y-129269724D01*
X183955495Y-129266124D01*
X183979999Y-129264920D01*
X185220001Y-129264920D01*
X185244505Y-129266124D01*
G37*
D33*
X112520000Y-39364920D03*
D10*
G36*
X110624505Y-38266124D02*
G01*
X110648773Y-38269724D01*
X110672572Y-38275685D01*
X110695671Y-38283950D01*
X110717850Y-38294440D01*
X110738893Y-38307052D01*
X110758599Y-38321667D01*
X110776777Y-38338143D01*
X110793253Y-38356321D01*
X110807868Y-38376027D01*
X110820480Y-38397070D01*
X110830970Y-38419249D01*
X110839235Y-38442348D01*
X110845196Y-38466147D01*
X110848796Y-38490415D01*
X110850000Y-38514919D01*
X110850000Y-40214921D01*
X110848796Y-40239425D01*
X110845196Y-40263693D01*
X110839235Y-40287492D01*
X110830970Y-40310591D01*
X110820480Y-40332770D01*
X110807868Y-40353813D01*
X110793253Y-40373519D01*
X110776777Y-40391697D01*
X110758599Y-40408173D01*
X110738893Y-40422788D01*
X110717850Y-40435400D01*
X110695671Y-40445890D01*
X110672572Y-40454155D01*
X110648773Y-40460116D01*
X110624505Y-40463716D01*
X110600001Y-40464920D01*
X109359999Y-40464920D01*
X109335495Y-40463716D01*
X109311227Y-40460116D01*
X109287428Y-40454155D01*
X109264329Y-40445890D01*
X109242150Y-40435400D01*
X109221107Y-40422788D01*
X109201401Y-40408173D01*
X109183223Y-40391697D01*
X109166747Y-40373519D01*
X109152132Y-40353813D01*
X109139520Y-40332770D01*
X109129030Y-40310591D01*
X109120765Y-40287492D01*
X109114804Y-40263693D01*
X109111204Y-40239425D01*
X109110000Y-40214921D01*
X109110000Y-38514919D01*
X109111204Y-38490415D01*
X109114804Y-38466147D01*
X109120765Y-38442348D01*
X109129030Y-38419249D01*
X109139520Y-38397070D01*
X109152132Y-38376027D01*
X109166747Y-38356321D01*
X109183223Y-38338143D01*
X109201401Y-38321667D01*
X109221107Y-38307052D01*
X109242150Y-38294440D01*
X109264329Y-38283950D01*
X109287428Y-38275685D01*
X109311227Y-38269724D01*
X109335495Y-38266124D01*
X109359999Y-38264920D01*
X110600001Y-38264920D01*
X110624505Y-38266124D01*
G37*
D34*
X59980000Y-128364920D03*
D35*
X59980000Y-125864920D03*
X59980000Y-123864920D03*
X59980000Y-121364920D03*
D36*
X57270000Y-131434920D03*
X57270000Y-118294920D03*
D37*
X134848000Y-52164920D03*
X147548000Y-52164920D03*
X134848000Y-47164920D03*
X147548000Y-47164920D03*
X163550000Y-131824920D03*
X150850000Y-131824920D03*
X163550000Y-126824920D03*
X150850000Y-126824920D03*
D10*
G36*
X129658505Y-104870124D02*
G01*
X129682773Y-104873724D01*
X129706572Y-104879685D01*
X129729671Y-104887950D01*
X129751850Y-104898440D01*
X129772893Y-104911052D01*
X129792599Y-104925667D01*
X129810777Y-104942143D01*
X129827253Y-104960321D01*
X129841868Y-104980027D01*
X129854480Y-105001070D01*
X129864970Y-105023249D01*
X129873235Y-105046348D01*
X129879196Y-105070147D01*
X129882796Y-105094415D01*
X129884000Y-105118919D01*
X129884000Y-105768921D01*
X129882796Y-105793425D01*
X129879196Y-105817693D01*
X129873235Y-105841492D01*
X129864970Y-105864591D01*
X129854480Y-105886770D01*
X129841868Y-105907813D01*
X129827253Y-105927519D01*
X129810777Y-105945697D01*
X129792599Y-105962173D01*
X129772893Y-105976788D01*
X129751850Y-105989400D01*
X129729671Y-105999890D01*
X129706572Y-106008155D01*
X129682773Y-106014116D01*
X129658505Y-106017716D01*
X129634001Y-106018920D01*
X128733999Y-106018920D01*
X128709495Y-106017716D01*
X128685227Y-106014116D01*
X128661428Y-106008155D01*
X128638329Y-105999890D01*
X128616150Y-105989400D01*
X128595107Y-105976788D01*
X128575401Y-105962173D01*
X128557223Y-105945697D01*
X128540747Y-105927519D01*
X128526132Y-105907813D01*
X128513520Y-105886770D01*
X128503030Y-105864591D01*
X128494765Y-105841492D01*
X128488804Y-105817693D01*
X128485204Y-105793425D01*
X128484000Y-105768921D01*
X128484000Y-105118919D01*
X128485204Y-105094415D01*
X128488804Y-105070147D01*
X128494765Y-105046348D01*
X128503030Y-105023249D01*
X128513520Y-105001070D01*
X128526132Y-104980027D01*
X128540747Y-104960321D01*
X128557223Y-104942143D01*
X128575401Y-104925667D01*
X128595107Y-104911052D01*
X128616150Y-104898440D01*
X128638329Y-104887950D01*
X128661428Y-104879685D01*
X128685227Y-104873724D01*
X128709495Y-104870124D01*
X128733999Y-104868920D01*
X129634001Y-104868920D01*
X129658505Y-104870124D01*
G37*
G36*
X129658505Y-102820124D02*
G01*
X129682773Y-102823724D01*
X129706572Y-102829685D01*
X129729671Y-102837950D01*
X129751850Y-102848440D01*
X129772893Y-102861052D01*
X129792599Y-102875667D01*
X129810777Y-102892143D01*
X129827253Y-102910321D01*
X129841868Y-102930027D01*
X129854480Y-102951070D01*
X129864970Y-102973249D01*
X129873235Y-102996348D01*
X129879196Y-103020147D01*
X129882796Y-103044415D01*
X129884000Y-103068919D01*
X129884000Y-103718921D01*
X129882796Y-103743425D01*
X129879196Y-103767693D01*
X129873235Y-103791492D01*
X129864970Y-103814591D01*
X129854480Y-103836770D01*
X129841868Y-103857813D01*
X129827253Y-103877519D01*
X129810777Y-103895697D01*
X129792599Y-103912173D01*
X129772893Y-103926788D01*
X129751850Y-103939400D01*
X129729671Y-103949890D01*
X129706572Y-103958155D01*
X129682773Y-103964116D01*
X129658505Y-103967716D01*
X129634001Y-103968920D01*
X128733999Y-103968920D01*
X128709495Y-103967716D01*
X128685227Y-103964116D01*
X128661428Y-103958155D01*
X128638329Y-103949890D01*
X128616150Y-103939400D01*
X128595107Y-103926788D01*
X128575401Y-103912173D01*
X128557223Y-103895697D01*
X128540747Y-103877519D01*
X128526132Y-103857813D01*
X128513520Y-103836770D01*
X128503030Y-103814591D01*
X128494765Y-103791492D01*
X128488804Y-103767693D01*
X128485204Y-103743425D01*
X128484000Y-103718921D01*
X128484000Y-103068919D01*
X128485204Y-103044415D01*
X128488804Y-103020147D01*
X128494765Y-102996348D01*
X128503030Y-102973249D01*
X128513520Y-102951070D01*
X128526132Y-102930027D01*
X128540747Y-102910321D01*
X128557223Y-102892143D01*
X128575401Y-102875667D01*
X128595107Y-102861052D01*
X128616150Y-102848440D01*
X128638329Y-102837950D01*
X128661428Y-102829685D01*
X128685227Y-102823724D01*
X128709495Y-102820124D01*
X128733999Y-102818920D01*
X129634001Y-102818920D01*
X129658505Y-102820124D01*
G37*
G36*
X138878505Y-55042124D02*
G01*
X138902773Y-55045724D01*
X138926572Y-55051685D01*
X138949671Y-55059950D01*
X138971850Y-55070440D01*
X138992893Y-55083052D01*
X139012599Y-55097667D01*
X139030777Y-55114143D01*
X139047253Y-55132321D01*
X139061868Y-55152027D01*
X139074480Y-55173070D01*
X139084970Y-55195249D01*
X139093235Y-55218348D01*
X139099196Y-55242147D01*
X139102796Y-55266415D01*
X139104000Y-55290919D01*
X139104000Y-55940921D01*
X139102796Y-55965425D01*
X139099196Y-55989693D01*
X139093235Y-56013492D01*
X139084970Y-56036591D01*
X139074480Y-56058770D01*
X139061868Y-56079813D01*
X139047253Y-56099519D01*
X139030777Y-56117697D01*
X139012599Y-56134173D01*
X138992893Y-56148788D01*
X138971850Y-56161400D01*
X138949671Y-56171890D01*
X138926572Y-56180155D01*
X138902773Y-56186116D01*
X138878505Y-56189716D01*
X138854001Y-56190920D01*
X137953999Y-56190920D01*
X137929495Y-56189716D01*
X137905227Y-56186116D01*
X137881428Y-56180155D01*
X137858329Y-56171890D01*
X137836150Y-56161400D01*
X137815107Y-56148788D01*
X137795401Y-56134173D01*
X137777223Y-56117697D01*
X137760747Y-56099519D01*
X137746132Y-56079813D01*
X137733520Y-56058770D01*
X137723030Y-56036591D01*
X137714765Y-56013492D01*
X137708804Y-55989693D01*
X137705204Y-55965425D01*
X137704000Y-55940921D01*
X137704000Y-55290919D01*
X137705204Y-55266415D01*
X137708804Y-55242147D01*
X137714765Y-55218348D01*
X137723030Y-55195249D01*
X137733520Y-55173070D01*
X137746132Y-55152027D01*
X137760747Y-55132321D01*
X137777223Y-55114143D01*
X137795401Y-55097667D01*
X137815107Y-55083052D01*
X137836150Y-55070440D01*
X137858329Y-55059950D01*
X137881428Y-55051685D01*
X137905227Y-55045724D01*
X137929495Y-55042124D01*
X137953999Y-55040920D01*
X138854001Y-55040920D01*
X138878505Y-55042124D01*
G37*
G36*
X138878505Y-57092124D02*
G01*
X138902773Y-57095724D01*
X138926572Y-57101685D01*
X138949671Y-57109950D01*
X138971850Y-57120440D01*
X138992893Y-57133052D01*
X139012599Y-57147667D01*
X139030777Y-57164143D01*
X139047253Y-57182321D01*
X139061868Y-57202027D01*
X139074480Y-57223070D01*
X139084970Y-57245249D01*
X139093235Y-57268348D01*
X139099196Y-57292147D01*
X139102796Y-57316415D01*
X139104000Y-57340919D01*
X139104000Y-57990921D01*
X139102796Y-58015425D01*
X139099196Y-58039693D01*
X139093235Y-58063492D01*
X139084970Y-58086591D01*
X139074480Y-58108770D01*
X139061868Y-58129813D01*
X139047253Y-58149519D01*
X139030777Y-58167697D01*
X139012599Y-58184173D01*
X138992893Y-58198788D01*
X138971850Y-58211400D01*
X138949671Y-58221890D01*
X138926572Y-58230155D01*
X138902773Y-58236116D01*
X138878505Y-58239716D01*
X138854001Y-58240920D01*
X137953999Y-58240920D01*
X137929495Y-58239716D01*
X137905227Y-58236116D01*
X137881428Y-58230155D01*
X137858329Y-58221890D01*
X137836150Y-58211400D01*
X137815107Y-58198788D01*
X137795401Y-58184173D01*
X137777223Y-58167697D01*
X137760747Y-58149519D01*
X137746132Y-58129813D01*
X137733520Y-58108770D01*
X137723030Y-58086591D01*
X137714765Y-58063492D01*
X137708804Y-58039693D01*
X137705204Y-58015425D01*
X137704000Y-57990921D01*
X137704000Y-57340919D01*
X137705204Y-57316415D01*
X137708804Y-57292147D01*
X137714765Y-57268348D01*
X137723030Y-57245249D01*
X137733520Y-57223070D01*
X137746132Y-57202027D01*
X137760747Y-57182321D01*
X137777223Y-57164143D01*
X137795401Y-57147667D01*
X137815107Y-57133052D01*
X137836150Y-57120440D01*
X137858329Y-57109950D01*
X137881428Y-57101685D01*
X137905227Y-57095724D01*
X137929495Y-57092124D01*
X137953999Y-57090920D01*
X138854001Y-57090920D01*
X138878505Y-57092124D01*
G37*
G36*
X76768505Y-64832124D02*
G01*
X76792773Y-64835724D01*
X76816572Y-64841685D01*
X76839671Y-64849950D01*
X76861850Y-64860440D01*
X76882893Y-64873052D01*
X76902599Y-64887667D01*
X76920777Y-64904143D01*
X76937253Y-64922321D01*
X76951868Y-64942027D01*
X76964480Y-64963070D01*
X76974970Y-64985249D01*
X76983235Y-65008348D01*
X76989196Y-65032147D01*
X76992796Y-65056415D01*
X76994000Y-65080919D01*
X76994000Y-65980921D01*
X76992796Y-66005425D01*
X76989196Y-66029693D01*
X76983235Y-66053492D01*
X76974970Y-66076591D01*
X76964480Y-66098770D01*
X76951868Y-66119813D01*
X76937253Y-66139519D01*
X76920777Y-66157697D01*
X76902599Y-66174173D01*
X76882893Y-66188788D01*
X76861850Y-66201400D01*
X76839671Y-66211890D01*
X76816572Y-66220155D01*
X76792773Y-66226116D01*
X76768505Y-66229716D01*
X76744001Y-66230920D01*
X76093999Y-66230920D01*
X76069495Y-66229716D01*
X76045227Y-66226116D01*
X76021428Y-66220155D01*
X75998329Y-66211890D01*
X75976150Y-66201400D01*
X75955107Y-66188788D01*
X75935401Y-66174173D01*
X75917223Y-66157697D01*
X75900747Y-66139519D01*
X75886132Y-66119813D01*
X75873520Y-66098770D01*
X75863030Y-66076591D01*
X75854765Y-66053492D01*
X75848804Y-66029693D01*
X75845204Y-66005425D01*
X75844000Y-65980921D01*
X75844000Y-65080919D01*
X75845204Y-65056415D01*
X75848804Y-65032147D01*
X75854765Y-65008348D01*
X75863030Y-64985249D01*
X75873520Y-64963070D01*
X75886132Y-64942027D01*
X75900747Y-64922321D01*
X75917223Y-64904143D01*
X75935401Y-64887667D01*
X75955107Y-64873052D01*
X75976150Y-64860440D01*
X75998329Y-64849950D01*
X76021428Y-64841685D01*
X76045227Y-64835724D01*
X76069495Y-64832124D01*
X76093999Y-64830920D01*
X76744001Y-64830920D01*
X76768505Y-64832124D01*
G37*
G36*
X78818505Y-64832124D02*
G01*
X78842773Y-64835724D01*
X78866572Y-64841685D01*
X78889671Y-64849950D01*
X78911850Y-64860440D01*
X78932893Y-64873052D01*
X78952599Y-64887667D01*
X78970777Y-64904143D01*
X78987253Y-64922321D01*
X79001868Y-64942027D01*
X79014480Y-64963070D01*
X79024970Y-64985249D01*
X79033235Y-65008348D01*
X79039196Y-65032147D01*
X79042796Y-65056415D01*
X79044000Y-65080919D01*
X79044000Y-65980921D01*
X79042796Y-66005425D01*
X79039196Y-66029693D01*
X79033235Y-66053492D01*
X79024970Y-66076591D01*
X79014480Y-66098770D01*
X79001868Y-66119813D01*
X78987253Y-66139519D01*
X78970777Y-66157697D01*
X78952599Y-66174173D01*
X78932893Y-66188788D01*
X78911850Y-66201400D01*
X78889671Y-66211890D01*
X78866572Y-66220155D01*
X78842773Y-66226116D01*
X78818505Y-66229716D01*
X78794001Y-66230920D01*
X78143999Y-66230920D01*
X78119495Y-66229716D01*
X78095227Y-66226116D01*
X78071428Y-66220155D01*
X78048329Y-66211890D01*
X78026150Y-66201400D01*
X78005107Y-66188788D01*
X77985401Y-66174173D01*
X77967223Y-66157697D01*
X77950747Y-66139519D01*
X77936132Y-66119813D01*
X77923520Y-66098770D01*
X77913030Y-66076591D01*
X77904765Y-66053492D01*
X77898804Y-66029693D01*
X77895204Y-66005425D01*
X77894000Y-65980921D01*
X77894000Y-65080919D01*
X77895204Y-65056415D01*
X77898804Y-65032147D01*
X77904765Y-65008348D01*
X77913030Y-64985249D01*
X77923520Y-64963070D01*
X77936132Y-64942027D01*
X77950747Y-64922321D01*
X77967223Y-64904143D01*
X77985401Y-64887667D01*
X78005107Y-64873052D01*
X78026150Y-64860440D01*
X78048329Y-64849950D01*
X78071428Y-64841685D01*
X78095227Y-64835724D01*
X78119495Y-64832124D01*
X78143999Y-64830920D01*
X78794001Y-64830920D01*
X78818505Y-64832124D01*
G37*
G36*
X128329505Y-88666124D02*
G01*
X128353773Y-88669724D01*
X128377572Y-88675685D01*
X128400671Y-88683950D01*
X128422850Y-88694440D01*
X128443893Y-88707052D01*
X128463599Y-88721667D01*
X128481777Y-88738143D01*
X128498253Y-88756321D01*
X128512868Y-88776027D01*
X128525480Y-88797070D01*
X128535970Y-88819249D01*
X128544235Y-88842348D01*
X128550196Y-88866147D01*
X128553796Y-88890415D01*
X128555000Y-88914919D01*
X128555000Y-89814921D01*
X128553796Y-89839425D01*
X128550196Y-89863693D01*
X128544235Y-89887492D01*
X128535970Y-89910591D01*
X128525480Y-89932770D01*
X128512868Y-89953813D01*
X128498253Y-89973519D01*
X128481777Y-89991697D01*
X128463599Y-90008173D01*
X128443893Y-90022788D01*
X128422850Y-90035400D01*
X128400671Y-90045890D01*
X128377572Y-90054155D01*
X128353773Y-90060116D01*
X128329505Y-90063716D01*
X128305001Y-90064920D01*
X127654999Y-90064920D01*
X127630495Y-90063716D01*
X127606227Y-90060116D01*
X127582428Y-90054155D01*
X127559329Y-90045890D01*
X127537150Y-90035400D01*
X127516107Y-90022788D01*
X127496401Y-90008173D01*
X127478223Y-89991697D01*
X127461747Y-89973519D01*
X127447132Y-89953813D01*
X127434520Y-89932770D01*
X127424030Y-89910591D01*
X127415765Y-89887492D01*
X127409804Y-89863693D01*
X127406204Y-89839425D01*
X127405000Y-89814921D01*
X127405000Y-88914919D01*
X127406204Y-88890415D01*
X127409804Y-88866147D01*
X127415765Y-88842348D01*
X127424030Y-88819249D01*
X127434520Y-88797070D01*
X127447132Y-88776027D01*
X127461747Y-88756321D01*
X127478223Y-88738143D01*
X127496401Y-88721667D01*
X127516107Y-88707052D01*
X127537150Y-88694440D01*
X127559329Y-88683950D01*
X127582428Y-88675685D01*
X127606227Y-88669724D01*
X127630495Y-88666124D01*
X127654999Y-88664920D01*
X128305001Y-88664920D01*
X128329505Y-88666124D01*
G37*
G36*
X126279505Y-88666124D02*
G01*
X126303773Y-88669724D01*
X126327572Y-88675685D01*
X126350671Y-88683950D01*
X126372850Y-88694440D01*
X126393893Y-88707052D01*
X126413599Y-88721667D01*
X126431777Y-88738143D01*
X126448253Y-88756321D01*
X126462868Y-88776027D01*
X126475480Y-88797070D01*
X126485970Y-88819249D01*
X126494235Y-88842348D01*
X126500196Y-88866147D01*
X126503796Y-88890415D01*
X126505000Y-88914919D01*
X126505000Y-89814921D01*
X126503796Y-89839425D01*
X126500196Y-89863693D01*
X126494235Y-89887492D01*
X126485970Y-89910591D01*
X126475480Y-89932770D01*
X126462868Y-89953813D01*
X126448253Y-89973519D01*
X126431777Y-89991697D01*
X126413599Y-90008173D01*
X126393893Y-90022788D01*
X126372850Y-90035400D01*
X126350671Y-90045890D01*
X126327572Y-90054155D01*
X126303773Y-90060116D01*
X126279505Y-90063716D01*
X126255001Y-90064920D01*
X125604999Y-90064920D01*
X125580495Y-90063716D01*
X125556227Y-90060116D01*
X125532428Y-90054155D01*
X125509329Y-90045890D01*
X125487150Y-90035400D01*
X125466107Y-90022788D01*
X125446401Y-90008173D01*
X125428223Y-89991697D01*
X125411747Y-89973519D01*
X125397132Y-89953813D01*
X125384520Y-89932770D01*
X125374030Y-89910591D01*
X125365765Y-89887492D01*
X125359804Y-89863693D01*
X125356204Y-89839425D01*
X125355000Y-89814921D01*
X125355000Y-88914919D01*
X125356204Y-88890415D01*
X125359804Y-88866147D01*
X125365765Y-88842348D01*
X125374030Y-88819249D01*
X125384520Y-88797070D01*
X125397132Y-88776027D01*
X125411747Y-88756321D01*
X125428223Y-88738143D01*
X125446401Y-88721667D01*
X125466107Y-88707052D01*
X125487150Y-88694440D01*
X125509329Y-88683950D01*
X125532428Y-88675685D01*
X125556227Y-88669724D01*
X125580495Y-88666124D01*
X125604999Y-88664920D01*
X126255001Y-88664920D01*
X126279505Y-88666124D01*
G37*
G36*
X123354505Y-86666124D02*
G01*
X123378773Y-86669724D01*
X123402572Y-86675685D01*
X123425671Y-86683950D01*
X123447850Y-86694440D01*
X123468893Y-86707052D01*
X123488599Y-86721667D01*
X123506777Y-86738143D01*
X123523253Y-86756321D01*
X123537868Y-86776027D01*
X123550480Y-86797070D01*
X123560970Y-86819249D01*
X123569235Y-86842348D01*
X123575196Y-86866147D01*
X123578796Y-86890415D01*
X123580000Y-86914919D01*
X123580000Y-87814921D01*
X123578796Y-87839425D01*
X123575196Y-87863693D01*
X123569235Y-87887492D01*
X123560970Y-87910591D01*
X123550480Y-87932770D01*
X123537868Y-87953813D01*
X123523253Y-87973519D01*
X123506777Y-87991697D01*
X123488599Y-88008173D01*
X123468893Y-88022788D01*
X123447850Y-88035400D01*
X123425671Y-88045890D01*
X123402572Y-88054155D01*
X123378773Y-88060116D01*
X123354505Y-88063716D01*
X123330001Y-88064920D01*
X122679999Y-88064920D01*
X122655495Y-88063716D01*
X122631227Y-88060116D01*
X122607428Y-88054155D01*
X122584329Y-88045890D01*
X122562150Y-88035400D01*
X122541107Y-88022788D01*
X122521401Y-88008173D01*
X122503223Y-87991697D01*
X122486747Y-87973519D01*
X122472132Y-87953813D01*
X122459520Y-87932770D01*
X122449030Y-87910591D01*
X122440765Y-87887492D01*
X122434804Y-87863693D01*
X122431204Y-87839425D01*
X122430000Y-87814921D01*
X122430000Y-86914919D01*
X122431204Y-86890415D01*
X122434804Y-86866147D01*
X122440765Y-86842348D01*
X122449030Y-86819249D01*
X122459520Y-86797070D01*
X122472132Y-86776027D01*
X122486747Y-86756321D01*
X122503223Y-86738143D01*
X122521401Y-86721667D01*
X122541107Y-86707052D01*
X122562150Y-86694440D01*
X122584329Y-86683950D01*
X122607428Y-86675685D01*
X122631227Y-86669724D01*
X122655495Y-86666124D01*
X122679999Y-86664920D01*
X123330001Y-86664920D01*
X123354505Y-86666124D01*
G37*
G36*
X121304505Y-86666124D02*
G01*
X121328773Y-86669724D01*
X121352572Y-86675685D01*
X121375671Y-86683950D01*
X121397850Y-86694440D01*
X121418893Y-86707052D01*
X121438599Y-86721667D01*
X121456777Y-86738143D01*
X121473253Y-86756321D01*
X121487868Y-86776027D01*
X121500480Y-86797070D01*
X121510970Y-86819249D01*
X121519235Y-86842348D01*
X121525196Y-86866147D01*
X121528796Y-86890415D01*
X121530000Y-86914919D01*
X121530000Y-87814921D01*
X121528796Y-87839425D01*
X121525196Y-87863693D01*
X121519235Y-87887492D01*
X121510970Y-87910591D01*
X121500480Y-87932770D01*
X121487868Y-87953813D01*
X121473253Y-87973519D01*
X121456777Y-87991697D01*
X121438599Y-88008173D01*
X121418893Y-88022788D01*
X121397850Y-88035400D01*
X121375671Y-88045890D01*
X121352572Y-88054155D01*
X121328773Y-88060116D01*
X121304505Y-88063716D01*
X121280001Y-88064920D01*
X120629999Y-88064920D01*
X120605495Y-88063716D01*
X120581227Y-88060116D01*
X120557428Y-88054155D01*
X120534329Y-88045890D01*
X120512150Y-88035400D01*
X120491107Y-88022788D01*
X120471401Y-88008173D01*
X120453223Y-87991697D01*
X120436747Y-87973519D01*
X120422132Y-87953813D01*
X120409520Y-87932770D01*
X120399030Y-87910591D01*
X120390765Y-87887492D01*
X120384804Y-87863693D01*
X120381204Y-87839425D01*
X120380000Y-87814921D01*
X120380000Y-86914919D01*
X120381204Y-86890415D01*
X120384804Y-86866147D01*
X120390765Y-86842348D01*
X120399030Y-86819249D01*
X120409520Y-86797070D01*
X120422132Y-86776027D01*
X120436747Y-86756321D01*
X120453223Y-86738143D01*
X120471401Y-86721667D01*
X120491107Y-86707052D01*
X120512150Y-86694440D01*
X120534329Y-86683950D01*
X120557428Y-86675685D01*
X120581227Y-86669724D01*
X120605495Y-86666124D01*
X120629999Y-86664920D01*
X121280001Y-86664920D01*
X121304505Y-86666124D01*
G37*
G36*
X131904505Y-78548124D02*
G01*
X131928773Y-78551724D01*
X131952572Y-78557685D01*
X131975671Y-78565950D01*
X131997850Y-78576440D01*
X132018893Y-78589052D01*
X132038599Y-78603667D01*
X132056777Y-78620143D01*
X132073253Y-78638321D01*
X132087868Y-78658027D01*
X132100480Y-78679070D01*
X132110970Y-78701249D01*
X132119235Y-78724348D01*
X132125196Y-78748147D01*
X132128796Y-78772415D01*
X132130000Y-78796919D01*
X132130000Y-79696921D01*
X132128796Y-79721425D01*
X132125196Y-79745693D01*
X132119235Y-79769492D01*
X132110970Y-79792591D01*
X132100480Y-79814770D01*
X132087868Y-79835813D01*
X132073253Y-79855519D01*
X132056777Y-79873697D01*
X132038599Y-79890173D01*
X132018893Y-79904788D01*
X131997850Y-79917400D01*
X131975671Y-79927890D01*
X131952572Y-79936155D01*
X131928773Y-79942116D01*
X131904505Y-79945716D01*
X131880001Y-79946920D01*
X131229999Y-79946920D01*
X131205495Y-79945716D01*
X131181227Y-79942116D01*
X131157428Y-79936155D01*
X131134329Y-79927890D01*
X131112150Y-79917400D01*
X131091107Y-79904788D01*
X131071401Y-79890173D01*
X131053223Y-79873697D01*
X131036747Y-79855519D01*
X131022132Y-79835813D01*
X131009520Y-79814770D01*
X130999030Y-79792591D01*
X130990765Y-79769492D01*
X130984804Y-79745693D01*
X130981204Y-79721425D01*
X130980000Y-79696921D01*
X130980000Y-78796919D01*
X130981204Y-78772415D01*
X130984804Y-78748147D01*
X130990765Y-78724348D01*
X130999030Y-78701249D01*
X131009520Y-78679070D01*
X131022132Y-78658027D01*
X131036747Y-78638321D01*
X131053223Y-78620143D01*
X131071401Y-78603667D01*
X131091107Y-78589052D01*
X131112150Y-78576440D01*
X131134329Y-78565950D01*
X131157428Y-78557685D01*
X131181227Y-78551724D01*
X131205495Y-78548124D01*
X131229999Y-78546920D01*
X131880001Y-78546920D01*
X131904505Y-78548124D01*
G37*
G36*
X129854505Y-78548124D02*
G01*
X129878773Y-78551724D01*
X129902572Y-78557685D01*
X129925671Y-78565950D01*
X129947850Y-78576440D01*
X129968893Y-78589052D01*
X129988599Y-78603667D01*
X130006777Y-78620143D01*
X130023253Y-78638321D01*
X130037868Y-78658027D01*
X130050480Y-78679070D01*
X130060970Y-78701249D01*
X130069235Y-78724348D01*
X130075196Y-78748147D01*
X130078796Y-78772415D01*
X130080000Y-78796919D01*
X130080000Y-79696921D01*
X130078796Y-79721425D01*
X130075196Y-79745693D01*
X130069235Y-79769492D01*
X130060970Y-79792591D01*
X130050480Y-79814770D01*
X130037868Y-79835813D01*
X130023253Y-79855519D01*
X130006777Y-79873697D01*
X129988599Y-79890173D01*
X129968893Y-79904788D01*
X129947850Y-79917400D01*
X129925671Y-79927890D01*
X129902572Y-79936155D01*
X129878773Y-79942116D01*
X129854505Y-79945716D01*
X129830001Y-79946920D01*
X129179999Y-79946920D01*
X129155495Y-79945716D01*
X129131227Y-79942116D01*
X129107428Y-79936155D01*
X129084329Y-79927890D01*
X129062150Y-79917400D01*
X129041107Y-79904788D01*
X129021401Y-79890173D01*
X129003223Y-79873697D01*
X128986747Y-79855519D01*
X128972132Y-79835813D01*
X128959520Y-79814770D01*
X128949030Y-79792591D01*
X128940765Y-79769492D01*
X128934804Y-79745693D01*
X128931204Y-79721425D01*
X128930000Y-79696921D01*
X128930000Y-78796919D01*
X128931204Y-78772415D01*
X128934804Y-78748147D01*
X128940765Y-78724348D01*
X128949030Y-78701249D01*
X128959520Y-78679070D01*
X128972132Y-78658027D01*
X128986747Y-78638321D01*
X129003223Y-78620143D01*
X129021401Y-78603667D01*
X129041107Y-78589052D01*
X129062150Y-78576440D01*
X129084329Y-78565950D01*
X129107428Y-78557685D01*
X129131227Y-78551724D01*
X129155495Y-78548124D01*
X129179999Y-78546920D01*
X129830001Y-78546920D01*
X129854505Y-78548124D01*
G37*
G36*
X123522505Y-89978124D02*
G01*
X123546773Y-89981724D01*
X123570572Y-89987685D01*
X123593671Y-89995950D01*
X123615850Y-90006440D01*
X123636893Y-90019052D01*
X123656599Y-90033667D01*
X123674777Y-90050143D01*
X123691253Y-90068321D01*
X123705868Y-90088027D01*
X123718480Y-90109070D01*
X123728970Y-90131249D01*
X123737235Y-90154348D01*
X123743196Y-90178147D01*
X123746796Y-90202415D01*
X123748000Y-90226919D01*
X123748000Y-91126921D01*
X123746796Y-91151425D01*
X123743196Y-91175693D01*
X123737235Y-91199492D01*
X123728970Y-91222591D01*
X123718480Y-91244770D01*
X123705868Y-91265813D01*
X123691253Y-91285519D01*
X123674777Y-91303697D01*
X123656599Y-91320173D01*
X123636893Y-91334788D01*
X123615850Y-91347400D01*
X123593671Y-91357890D01*
X123570572Y-91366155D01*
X123546773Y-91372116D01*
X123522505Y-91375716D01*
X123498001Y-91376920D01*
X122847999Y-91376920D01*
X122823495Y-91375716D01*
X122799227Y-91372116D01*
X122775428Y-91366155D01*
X122752329Y-91357890D01*
X122730150Y-91347400D01*
X122709107Y-91334788D01*
X122689401Y-91320173D01*
X122671223Y-91303697D01*
X122654747Y-91285519D01*
X122640132Y-91265813D01*
X122627520Y-91244770D01*
X122617030Y-91222591D01*
X122608765Y-91199492D01*
X122602804Y-91175693D01*
X122599204Y-91151425D01*
X122598000Y-91126921D01*
X122598000Y-90226919D01*
X122599204Y-90202415D01*
X122602804Y-90178147D01*
X122608765Y-90154348D01*
X122617030Y-90131249D01*
X122627520Y-90109070D01*
X122640132Y-90088027D01*
X122654747Y-90068321D01*
X122671223Y-90050143D01*
X122689401Y-90033667D01*
X122709107Y-90019052D01*
X122730150Y-90006440D01*
X122752329Y-89995950D01*
X122775428Y-89987685D01*
X122799227Y-89981724D01*
X122823495Y-89978124D01*
X122847999Y-89976920D01*
X123498001Y-89976920D01*
X123522505Y-89978124D01*
G37*
G36*
X121472505Y-89978124D02*
G01*
X121496773Y-89981724D01*
X121520572Y-89987685D01*
X121543671Y-89995950D01*
X121565850Y-90006440D01*
X121586893Y-90019052D01*
X121606599Y-90033667D01*
X121624777Y-90050143D01*
X121641253Y-90068321D01*
X121655868Y-90088027D01*
X121668480Y-90109070D01*
X121678970Y-90131249D01*
X121687235Y-90154348D01*
X121693196Y-90178147D01*
X121696796Y-90202415D01*
X121698000Y-90226919D01*
X121698000Y-91126921D01*
X121696796Y-91151425D01*
X121693196Y-91175693D01*
X121687235Y-91199492D01*
X121678970Y-91222591D01*
X121668480Y-91244770D01*
X121655868Y-91265813D01*
X121641253Y-91285519D01*
X121624777Y-91303697D01*
X121606599Y-91320173D01*
X121586893Y-91334788D01*
X121565850Y-91347400D01*
X121543671Y-91357890D01*
X121520572Y-91366155D01*
X121496773Y-91372116D01*
X121472505Y-91375716D01*
X121448001Y-91376920D01*
X120797999Y-91376920D01*
X120773495Y-91375716D01*
X120749227Y-91372116D01*
X120725428Y-91366155D01*
X120702329Y-91357890D01*
X120680150Y-91347400D01*
X120659107Y-91334788D01*
X120639401Y-91320173D01*
X120621223Y-91303697D01*
X120604747Y-91285519D01*
X120590132Y-91265813D01*
X120577520Y-91244770D01*
X120567030Y-91222591D01*
X120558765Y-91199492D01*
X120552804Y-91175693D01*
X120549204Y-91151425D01*
X120548000Y-91126921D01*
X120548000Y-90226919D01*
X120549204Y-90202415D01*
X120552804Y-90178147D01*
X120558765Y-90154348D01*
X120567030Y-90131249D01*
X120577520Y-90109070D01*
X120590132Y-90088027D01*
X120604747Y-90068321D01*
X120621223Y-90050143D01*
X120639401Y-90033667D01*
X120659107Y-90019052D01*
X120680150Y-90006440D01*
X120702329Y-89995950D01*
X120725428Y-89987685D01*
X120749227Y-89981724D01*
X120773495Y-89978124D01*
X120797999Y-89976920D01*
X121448001Y-89976920D01*
X121472505Y-89978124D01*
G37*
G36*
X86692505Y-112330124D02*
G01*
X86716773Y-112333724D01*
X86740572Y-112339685D01*
X86763671Y-112347950D01*
X86785850Y-112358440D01*
X86806893Y-112371052D01*
X86826599Y-112385667D01*
X86844777Y-112402143D01*
X86861253Y-112420321D01*
X86875868Y-112440027D01*
X86888480Y-112461070D01*
X86898970Y-112483249D01*
X86907235Y-112506348D01*
X86913196Y-112530147D01*
X86916796Y-112554415D01*
X86918000Y-112578919D01*
X86918000Y-113478921D01*
X86916796Y-113503425D01*
X86913196Y-113527693D01*
X86907235Y-113551492D01*
X86898970Y-113574591D01*
X86888480Y-113596770D01*
X86875868Y-113617813D01*
X86861253Y-113637519D01*
X86844777Y-113655697D01*
X86826599Y-113672173D01*
X86806893Y-113686788D01*
X86785850Y-113699400D01*
X86763671Y-113709890D01*
X86740572Y-113718155D01*
X86716773Y-113724116D01*
X86692505Y-113727716D01*
X86668001Y-113728920D01*
X86017999Y-113728920D01*
X85993495Y-113727716D01*
X85969227Y-113724116D01*
X85945428Y-113718155D01*
X85922329Y-113709890D01*
X85900150Y-113699400D01*
X85879107Y-113686788D01*
X85859401Y-113672173D01*
X85841223Y-113655697D01*
X85824747Y-113637519D01*
X85810132Y-113617813D01*
X85797520Y-113596770D01*
X85787030Y-113574591D01*
X85778765Y-113551492D01*
X85772804Y-113527693D01*
X85769204Y-113503425D01*
X85768000Y-113478921D01*
X85768000Y-112578919D01*
X85769204Y-112554415D01*
X85772804Y-112530147D01*
X85778765Y-112506348D01*
X85787030Y-112483249D01*
X85797520Y-112461070D01*
X85810132Y-112440027D01*
X85824747Y-112420321D01*
X85841223Y-112402143D01*
X85859401Y-112385667D01*
X85879107Y-112371052D01*
X85900150Y-112358440D01*
X85922329Y-112347950D01*
X85945428Y-112339685D01*
X85969227Y-112333724D01*
X85993495Y-112330124D01*
X86017999Y-112328920D01*
X86668001Y-112328920D01*
X86692505Y-112330124D01*
G37*
G36*
X84642505Y-112330124D02*
G01*
X84666773Y-112333724D01*
X84690572Y-112339685D01*
X84713671Y-112347950D01*
X84735850Y-112358440D01*
X84756893Y-112371052D01*
X84776599Y-112385667D01*
X84794777Y-112402143D01*
X84811253Y-112420321D01*
X84825868Y-112440027D01*
X84838480Y-112461070D01*
X84848970Y-112483249D01*
X84857235Y-112506348D01*
X84863196Y-112530147D01*
X84866796Y-112554415D01*
X84868000Y-112578919D01*
X84868000Y-113478921D01*
X84866796Y-113503425D01*
X84863196Y-113527693D01*
X84857235Y-113551492D01*
X84848970Y-113574591D01*
X84838480Y-113596770D01*
X84825868Y-113617813D01*
X84811253Y-113637519D01*
X84794777Y-113655697D01*
X84776599Y-113672173D01*
X84756893Y-113686788D01*
X84735850Y-113699400D01*
X84713671Y-113709890D01*
X84690572Y-113718155D01*
X84666773Y-113724116D01*
X84642505Y-113727716D01*
X84618001Y-113728920D01*
X83967999Y-113728920D01*
X83943495Y-113727716D01*
X83919227Y-113724116D01*
X83895428Y-113718155D01*
X83872329Y-113709890D01*
X83850150Y-113699400D01*
X83829107Y-113686788D01*
X83809401Y-113672173D01*
X83791223Y-113655697D01*
X83774747Y-113637519D01*
X83760132Y-113617813D01*
X83747520Y-113596770D01*
X83737030Y-113574591D01*
X83728765Y-113551492D01*
X83722804Y-113527693D01*
X83719204Y-113503425D01*
X83718000Y-113478921D01*
X83718000Y-112578919D01*
X83719204Y-112554415D01*
X83722804Y-112530147D01*
X83728765Y-112506348D01*
X83737030Y-112483249D01*
X83747520Y-112461070D01*
X83760132Y-112440027D01*
X83774747Y-112420321D01*
X83791223Y-112402143D01*
X83809401Y-112385667D01*
X83829107Y-112371052D01*
X83850150Y-112358440D01*
X83872329Y-112347950D01*
X83895428Y-112339685D01*
X83919227Y-112333724D01*
X83943495Y-112330124D01*
X83967999Y-112328920D01*
X84618001Y-112328920D01*
X84642505Y-112330124D01*
G37*
G36*
X81866505Y-109790124D02*
G01*
X81890773Y-109793724D01*
X81914572Y-109799685D01*
X81937671Y-109807950D01*
X81959850Y-109818440D01*
X81980893Y-109831052D01*
X82000599Y-109845667D01*
X82018777Y-109862143D01*
X82035253Y-109880321D01*
X82049868Y-109900027D01*
X82062480Y-109921070D01*
X82072970Y-109943249D01*
X82081235Y-109966348D01*
X82087196Y-109990147D01*
X82090796Y-110014415D01*
X82092000Y-110038919D01*
X82092000Y-110938921D01*
X82090796Y-110963425D01*
X82087196Y-110987693D01*
X82081235Y-111011492D01*
X82072970Y-111034591D01*
X82062480Y-111056770D01*
X82049868Y-111077813D01*
X82035253Y-111097519D01*
X82018777Y-111115697D01*
X82000599Y-111132173D01*
X81980893Y-111146788D01*
X81959850Y-111159400D01*
X81937671Y-111169890D01*
X81914572Y-111178155D01*
X81890773Y-111184116D01*
X81866505Y-111187716D01*
X81842001Y-111188920D01*
X81191999Y-111188920D01*
X81167495Y-111187716D01*
X81143227Y-111184116D01*
X81119428Y-111178155D01*
X81096329Y-111169890D01*
X81074150Y-111159400D01*
X81053107Y-111146788D01*
X81033401Y-111132173D01*
X81015223Y-111115697D01*
X80998747Y-111097519D01*
X80984132Y-111077813D01*
X80971520Y-111056770D01*
X80961030Y-111034591D01*
X80952765Y-111011492D01*
X80946804Y-110987693D01*
X80943204Y-110963425D01*
X80942000Y-110938921D01*
X80942000Y-110038919D01*
X80943204Y-110014415D01*
X80946804Y-109990147D01*
X80952765Y-109966348D01*
X80961030Y-109943249D01*
X80971520Y-109921070D01*
X80984132Y-109900027D01*
X80998747Y-109880321D01*
X81015223Y-109862143D01*
X81033401Y-109845667D01*
X81053107Y-109831052D01*
X81074150Y-109818440D01*
X81096329Y-109807950D01*
X81119428Y-109799685D01*
X81143227Y-109793724D01*
X81167495Y-109790124D01*
X81191999Y-109788920D01*
X81842001Y-109788920D01*
X81866505Y-109790124D01*
G37*
G36*
X79816505Y-109790124D02*
G01*
X79840773Y-109793724D01*
X79864572Y-109799685D01*
X79887671Y-109807950D01*
X79909850Y-109818440D01*
X79930893Y-109831052D01*
X79950599Y-109845667D01*
X79968777Y-109862143D01*
X79985253Y-109880321D01*
X79999868Y-109900027D01*
X80012480Y-109921070D01*
X80022970Y-109943249D01*
X80031235Y-109966348D01*
X80037196Y-109990147D01*
X80040796Y-110014415D01*
X80042000Y-110038919D01*
X80042000Y-110938921D01*
X80040796Y-110963425D01*
X80037196Y-110987693D01*
X80031235Y-111011492D01*
X80022970Y-111034591D01*
X80012480Y-111056770D01*
X79999868Y-111077813D01*
X79985253Y-111097519D01*
X79968777Y-111115697D01*
X79950599Y-111132173D01*
X79930893Y-111146788D01*
X79909850Y-111159400D01*
X79887671Y-111169890D01*
X79864572Y-111178155D01*
X79840773Y-111184116D01*
X79816505Y-111187716D01*
X79792001Y-111188920D01*
X79141999Y-111188920D01*
X79117495Y-111187716D01*
X79093227Y-111184116D01*
X79069428Y-111178155D01*
X79046329Y-111169890D01*
X79024150Y-111159400D01*
X79003107Y-111146788D01*
X78983401Y-111132173D01*
X78965223Y-111115697D01*
X78948747Y-111097519D01*
X78934132Y-111077813D01*
X78921520Y-111056770D01*
X78911030Y-111034591D01*
X78902765Y-111011492D01*
X78896804Y-110987693D01*
X78893204Y-110963425D01*
X78892000Y-110938921D01*
X78892000Y-110038919D01*
X78893204Y-110014415D01*
X78896804Y-109990147D01*
X78902765Y-109966348D01*
X78911030Y-109943249D01*
X78921520Y-109921070D01*
X78934132Y-109900027D01*
X78948747Y-109880321D01*
X78965223Y-109862143D01*
X78983401Y-109845667D01*
X79003107Y-109831052D01*
X79024150Y-109818440D01*
X79046329Y-109807950D01*
X79069428Y-109799685D01*
X79093227Y-109793724D01*
X79117495Y-109790124D01*
X79141999Y-109788920D01*
X79792001Y-109788920D01*
X79816505Y-109790124D01*
G37*
G36*
X72722505Y-114362124D02*
G01*
X72746773Y-114365724D01*
X72770572Y-114371685D01*
X72793671Y-114379950D01*
X72815850Y-114390440D01*
X72836893Y-114403052D01*
X72856599Y-114417667D01*
X72874777Y-114434143D01*
X72891253Y-114452321D01*
X72905868Y-114472027D01*
X72918480Y-114493070D01*
X72928970Y-114515249D01*
X72937235Y-114538348D01*
X72943196Y-114562147D01*
X72946796Y-114586415D01*
X72948000Y-114610919D01*
X72948000Y-115510921D01*
X72946796Y-115535425D01*
X72943196Y-115559693D01*
X72937235Y-115583492D01*
X72928970Y-115606591D01*
X72918480Y-115628770D01*
X72905868Y-115649813D01*
X72891253Y-115669519D01*
X72874777Y-115687697D01*
X72856599Y-115704173D01*
X72836893Y-115718788D01*
X72815850Y-115731400D01*
X72793671Y-115741890D01*
X72770572Y-115750155D01*
X72746773Y-115756116D01*
X72722505Y-115759716D01*
X72698001Y-115760920D01*
X72047999Y-115760920D01*
X72023495Y-115759716D01*
X71999227Y-115756116D01*
X71975428Y-115750155D01*
X71952329Y-115741890D01*
X71930150Y-115731400D01*
X71909107Y-115718788D01*
X71889401Y-115704173D01*
X71871223Y-115687697D01*
X71854747Y-115669519D01*
X71840132Y-115649813D01*
X71827520Y-115628770D01*
X71817030Y-115606591D01*
X71808765Y-115583492D01*
X71802804Y-115559693D01*
X71799204Y-115535425D01*
X71798000Y-115510921D01*
X71798000Y-114610919D01*
X71799204Y-114586415D01*
X71802804Y-114562147D01*
X71808765Y-114538348D01*
X71817030Y-114515249D01*
X71827520Y-114493070D01*
X71840132Y-114472027D01*
X71854747Y-114452321D01*
X71871223Y-114434143D01*
X71889401Y-114417667D01*
X71909107Y-114403052D01*
X71930150Y-114390440D01*
X71952329Y-114379950D01*
X71975428Y-114371685D01*
X71999227Y-114365724D01*
X72023495Y-114362124D01*
X72047999Y-114360920D01*
X72698001Y-114360920D01*
X72722505Y-114362124D01*
G37*
G36*
X70672505Y-114362124D02*
G01*
X70696773Y-114365724D01*
X70720572Y-114371685D01*
X70743671Y-114379950D01*
X70765850Y-114390440D01*
X70786893Y-114403052D01*
X70806599Y-114417667D01*
X70824777Y-114434143D01*
X70841253Y-114452321D01*
X70855868Y-114472027D01*
X70868480Y-114493070D01*
X70878970Y-114515249D01*
X70887235Y-114538348D01*
X70893196Y-114562147D01*
X70896796Y-114586415D01*
X70898000Y-114610919D01*
X70898000Y-115510921D01*
X70896796Y-115535425D01*
X70893196Y-115559693D01*
X70887235Y-115583492D01*
X70878970Y-115606591D01*
X70868480Y-115628770D01*
X70855868Y-115649813D01*
X70841253Y-115669519D01*
X70824777Y-115687697D01*
X70806599Y-115704173D01*
X70786893Y-115718788D01*
X70765850Y-115731400D01*
X70743671Y-115741890D01*
X70720572Y-115750155D01*
X70696773Y-115756116D01*
X70672505Y-115759716D01*
X70648001Y-115760920D01*
X69997999Y-115760920D01*
X69973495Y-115759716D01*
X69949227Y-115756116D01*
X69925428Y-115750155D01*
X69902329Y-115741890D01*
X69880150Y-115731400D01*
X69859107Y-115718788D01*
X69839401Y-115704173D01*
X69821223Y-115687697D01*
X69804747Y-115669519D01*
X69790132Y-115649813D01*
X69777520Y-115628770D01*
X69767030Y-115606591D01*
X69758765Y-115583492D01*
X69752804Y-115559693D01*
X69749204Y-115535425D01*
X69748000Y-115510921D01*
X69748000Y-114610919D01*
X69749204Y-114586415D01*
X69752804Y-114562147D01*
X69758765Y-114538348D01*
X69767030Y-114515249D01*
X69777520Y-114493070D01*
X69790132Y-114472027D01*
X69804747Y-114452321D01*
X69821223Y-114434143D01*
X69839401Y-114417667D01*
X69859107Y-114403052D01*
X69880150Y-114390440D01*
X69902329Y-114379950D01*
X69925428Y-114371685D01*
X69949227Y-114365724D01*
X69973495Y-114362124D01*
X69997999Y-114360920D01*
X70648001Y-114360920D01*
X70672505Y-114362124D01*
G37*
D38*
X167358000Y-114046000D03*
D39*
X169898000Y-114046000D03*
X167358000Y-111506000D03*
X169898000Y-111506000D03*
X167358000Y-108966000D03*
X169898000Y-108966000D03*
X167358000Y-106426000D03*
X169898000Y-106426000D03*
X167358000Y-103886000D03*
X169898000Y-103886000D03*
X167358000Y-101346000D03*
X169898000Y-101346000D03*
X167358000Y-98806000D03*
X169898000Y-98806000D03*
X167358000Y-96266000D03*
X169898000Y-96266000D03*
X167358000Y-93726000D03*
X169898000Y-93726000D03*
X167358000Y-91186000D03*
X169898000Y-91186000D03*
X167358000Y-88646000D03*
X169898000Y-88646000D03*
X167358000Y-86106000D03*
X169898000Y-86106000D03*
X167358000Y-83566000D03*
X169898000Y-83566000D03*
X167358000Y-81026000D03*
X169898000Y-81026000D03*
X167358000Y-78486000D03*
X169898000Y-78486000D03*
X167358000Y-75946000D03*
X169898000Y-75946000D03*
X167358000Y-73406000D03*
X169898000Y-73406000D03*
X167358000Y-70866000D03*
X169898000Y-70866000D03*
D40*
X147038000Y-119126000D03*
X149578000Y-119126000D03*
X152118000Y-119126000D03*
X154658000Y-119126000D03*
X157198000Y-119126000D03*
X159738000Y-119126000D03*
X162278000Y-119126000D03*
X164818000Y-119126000D03*
X101318000Y-119126000D03*
X103858000Y-119126000D03*
X106398000Y-119126000D03*
X108938000Y-119126000D03*
X111478000Y-119126000D03*
X114018000Y-119126000D03*
X116558000Y-119126000D03*
X119098000Y-119126000D03*
X124178000Y-119126000D03*
X126718000Y-119126000D03*
X129258000Y-119126000D03*
X131798000Y-119126000D03*
X134338000Y-119126000D03*
X136878000Y-119126000D03*
X139418000Y-119126000D03*
X141958000Y-119126000D03*
X92174000Y-70866000D03*
X94714000Y-70866000D03*
X97254000Y-70866000D03*
X99794000Y-70866000D03*
X102334000Y-70866000D03*
X104874000Y-70866000D03*
X107414000Y-70866000D03*
X109954000Y-70866000D03*
X112494000Y-70866000D03*
X115034000Y-70866000D03*
X119098000Y-70866000D03*
X121638000Y-70866000D03*
X124178000Y-70866000D03*
X126718000Y-70866000D03*
X129258000Y-70866000D03*
X131798000Y-70866000D03*
X134338000Y-70866000D03*
X136878000Y-70866000D03*
X141958000Y-70866000D03*
X144498000Y-70866000D03*
X147038000Y-70866000D03*
X149578000Y-70866000D03*
X152118000Y-70866000D03*
X154658000Y-70866000D03*
X157198000Y-70866000D03*
X159738000Y-70866000D03*
D41*
X169898000Y-119126000D03*
X88618000Y-70866000D03*
X163548000Y-70866000D03*
M02*
