M48
; DRILL file {KiCad (5.1.5)-3} date 4/11/2020 11:56:21 PM
; FORMAT={-:-/ absolute / inch / decimal}
; #@! TF.CreationDate,2020-04-11T23:56:21-04:00
; #@! TF.GenerationSoftware,Kicad,Pcbnew,(5.1.5)-3
; #@! TF.FileFunction,Plated,1,2,PTH
FMAT,2
INCH
T1C0.0157
T2C0.0315
T3C0.0354
T4C0.0394
T5C0.0400
T6C0.0461
T7C0.0472
T8C0.0906
T9C0.1200
%
G90
G05
T1
X2.169Y-2.23
X2.179Y-2.04
X2.659Y-2.21
X2.749Y-2.8
X2.7562Y-2.315
X2.879Y-2.53
X2.889Y-1.99
X2.8892Y-1.9502
X2.909Y-2.34
X2.949Y-2.49
X2.958Y-2.315
X2.969Y-2.46
X2.969Y-2.58
X3.0308Y-1.4696
X3.0674Y-1.4696
X3.119Y-4.18
X3.169Y-4.49
X3.469Y-4.45
X3.659Y-1.8
X3.7435Y-4.7155
X3.7435Y-4.9356
X3.78Y-3.961
X4.349Y-2.17
X4.353Y-4.29
X4.3923Y-2.23
X4.449Y-3.28
X4.55Y-3.998
X4.639Y-2.48
X4.639Y-2.52
X4.639Y-3.09
X4.679Y-4.28
X4.689Y-4.33
X4.769Y-4.25
X4.7715Y-4.3674
X4.789Y-3.29
X4.789Y-4.21
X4.829Y-3.21
X4.839Y-2.71
X4.839Y-2.99
X4.849Y-3.63
X4.849Y-3.88
X4.877Y-4.437
X4.909Y-4.11
X4.959Y-3.44
X4.9768Y-4.4488
X4.989Y-2.99
X5.089Y-4.19
X5.179Y-4.23
X5.229Y-3.12
X5.249Y-3.34
X5.269Y-3.37
X5.2994Y-2.3195
X5.37Y-3.094
X5.411Y-3.144
X5.429Y-2.45
X5.449Y-2.15
X5.469Y-2.45
X5.486Y-3.971
X5.486Y-4.173
X5.495Y-2.987
X5.524Y-4.182
X5.525Y-3.048
X5.535Y-3.998
X5.549Y-2.45
X5.569Y-4.03
X5.659Y-4.03
X5.6742Y-4.08
X5.6742Y-4.186
X5.759Y-4.03
X5.759Y-4.12
X5.769Y-2.57
X5.799Y-4.08
X5.8458Y-4.1741
X5.9489Y-3.09
X6.0789Y-3.09
X6.909Y-4.52
X7.024Y-1.445
X7.049Y-1.47
X7.089Y-1.66
X7.129Y-1.7
X7.249Y-3.42
X7.959Y-3.15
X7.999Y-3.15
T2
X2.5976Y-3.7033
X2.5976Y-4.227
X2.6976Y-3.7033
X2.6976Y-4.227
X2.7976Y-3.7033
X2.7976Y-4.227
X2.8976Y-3.7033
X2.8976Y-4.227
X2.0858Y-3.7033
X2.0858Y-4.227
X2.1858Y-3.7033
X2.1858Y-4.227
X2.2858Y-3.7033
X2.2858Y-4.227
X2.3858Y-3.7033
X2.3858Y-4.227
T3
X2.3614Y-4.7781
X2.3614Y-4.8766
X2.3614Y-4.9553
X2.3614Y-5.0537
T4
X7.1646Y-1.4711
X7.1646Y-3.0065
X7.8339Y-1.4711
X7.8339Y-3.0065
X7.1646Y-3.2821
X7.1646Y-4.8175
X7.8339Y-3.2821
X7.8339Y-4.8175
X6.7315Y-4.975
X6.7315Y-5.075
X6.7315Y-5.175
X2.0551Y-1.8648
X2.1051Y-1.9648
X2.1551Y-1.8648
X2.2051Y-1.9648
X2.2551Y-1.8648
X2.3051Y-1.9648
X2.3551Y-1.8648
X2.4051Y-1.9648
X2.4551Y-1.8648
X2.5051Y-1.9648
X2.5551Y-1.8648
X2.6051Y-1.9648
X2.6551Y-1.8648
X2.7051Y-1.9648
X2.7551Y-1.8648
X3.479Y-3.44
X3.579Y-3.44
X3.679Y-3.44
X3.779Y-3.44
X3.879Y-3.44
X3.979Y-3.44
X3.779Y-3.64
X3.879Y-3.64
X3.979Y-3.64
T5
X4.6889Y-2.79
X4.7889Y-2.79
X4.8889Y-2.79
X4.9889Y-2.79
X5.0889Y-2.79
X5.1889Y-2.79
X5.2889Y-2.79
X5.3889Y-2.79
X6.5889Y-2.79
X6.5889Y-2.89
X6.5889Y-2.99
X6.5889Y-3.09
X6.5889Y-3.19
X6.5889Y-3.29
X6.5889Y-3.39
X6.5889Y-3.49
X6.5889Y-3.59
X6.5889Y-3.69
X6.5889Y-3.79
X6.5889Y-3.89
X6.5889Y-3.99
X6.5889Y-4.09
X6.5889Y-4.19
X6.5889Y-4.29
X6.5889Y-4.39
X6.5889Y-4.49
X6.6889Y-2.79
X6.6889Y-2.89
X6.6889Y-2.99
X6.6889Y-3.09
X6.6889Y-3.19
X6.6889Y-3.29
X6.6889Y-3.39
X6.6889Y-3.49
X6.6889Y-3.59
X6.6889Y-3.69
X6.6889Y-3.79
X6.6889Y-3.89
X6.6889Y-3.99
X6.6889Y-4.09
X6.6889Y-4.19
X6.6889Y-4.29
X6.6889Y-4.39
X6.6889Y-4.49
X3.9889Y-4.69
X4.0889Y-4.69
X4.1889Y-4.69
X4.2889Y-4.69
X4.3889Y-4.69
X4.4889Y-4.69
X4.5889Y-4.69
X4.6889Y-4.69
X3.6289Y-2.79
X3.7289Y-2.79
X3.8289Y-2.79
X3.9289Y-2.79
X4.0289Y-2.79
X4.1289Y-2.79
X4.2289Y-2.79
X4.3289Y-2.79
X4.4289Y-2.79
X4.5289Y-2.79
X5.5889Y-2.79
X5.6889Y-2.79
X5.7889Y-2.79
X5.8889Y-2.79
X5.9889Y-2.79
X6.0889Y-2.79
X6.1889Y-2.79
X6.2889Y-2.79
X5.7889Y-4.69
X5.8889Y-4.69
X5.9889Y-4.69
X6.0889Y-4.69
X6.1889Y-4.69
X6.2889Y-4.69
X6.3889Y-4.69
X6.4889Y-4.69
X4.8889Y-4.69
X4.9889Y-4.69
X5.0889Y-4.69
X5.1889Y-4.69
X5.2889Y-4.69
X5.3889Y-4.69
X5.4889Y-4.69
X5.5889Y-4.69
T6
X5.939Y-4.9931
X5.939Y-5.19
X6.439Y-4.9931
X6.439Y-5.19
X5.309Y-1.8569
X5.309Y-2.0537
X5.809Y-1.8569
X5.809Y-2.0537
T7
X2.2189Y-1.5892
X2.3189Y-1.5892
X2.4189Y-1.5892
X2.5189Y-1.5892
X3.7787Y-1.5498
X3.8787Y-1.5498
X3.069Y-1.5498
X3.169Y-1.5498
X3.269Y-1.5498
X4.3299Y-1.5498
X4.4299Y-1.5498
X5.4504Y-4.975
X5.5504Y-4.975
X5.6504Y-4.975
X4.759Y-1.58
X4.8968Y-1.58
X5.0346Y-1.58
X5.1724Y-1.58
X5.3102Y-1.58
X5.448Y-1.58
X5.5857Y-1.58
X5.7235Y-1.58
X5.8613Y-1.58
X5.9991Y-1.58
X6.1369Y-1.58
X6.2747Y-1.58
X6.4125Y-1.58
X6.5503Y-1.58
X6.6881Y-1.58
X6.8259Y-1.58
X7.622Y-5.1325
X7.722Y-5.1325
X4.0543Y-1.5498
X4.1543Y-1.5498
X7.2677Y-5.1325
X7.3677Y-5.1325
X7.4677Y-5.1325
X2.7587Y-4.7209
X2.8587Y-4.7209
T8
X2.2547Y-4.6573
X2.2547Y-5.1746
T9
X3.4889Y-2.79
X6.6889Y-4.69
X6.4389Y-2.79
T0
M30
