G04 #@! TF.GenerationSoftware,KiCad,Pcbnew,(5.1.5)-3*
G04 #@! TF.CreationDate,2020-04-11T23:56:02-04:00*
G04 #@! TF.ProjectId,ventilator_shield,76656e74-696c-4617-946f-725f73686965,rev?*
G04 #@! TF.SameCoordinates,Original*
G04 #@! TF.FileFunction,Soldermask,Bot*
G04 #@! TF.FilePolarity,Negative*
%FSLAX46Y46*%
G04 Gerber Fmt 4.6, Leading zero omitted, Abs format (unit mm)*
G04 Created by KiCad (PCBNEW (5.1.5)-3) date 2020-04-11 23:56:02*
%MOMM*%
%LPD*%
G04 APERTURE LIST*
%ADD10O,1.700000X1.700000*%
%ADD11R,1.700000X1.700000*%
%ADD12C,1.700000*%
%ADD13C,4.300000*%
%ADD14C,3.200000*%
%ADD15O,1.800000X1.800000*%
%ADD16R,1.800000X1.800000*%
%ADD17O,3.500000X3.500000*%
%ADD18R,0.650000X0.400000*%
%ADD19R,1.600000X1.600000*%
%ADD20O,1.600000X1.600000*%
%ADD21C,2.400000*%
%ADD22R,2.400000X2.400000*%
%ADD23O,1.740000X2.200000*%
%ADD24C,0.100000*%
%ADD25R,1.300000X1.300000*%
%ADD26C,1.300000*%
%ADD27C,3.500000*%
%ADD28C,2.000000*%
%ADD29C,1.727200*%
%ADD30O,1.727200X1.727200*%
%ADD31O,1.727200X2.032000*%
%ADD32C,4.064000*%
G04 APERTURE END LIST*
D10*
X198980000Y-83364920D03*
X198980000Y-122364920D03*
D11*
X181980000Y-122364920D03*
D12*
X181980000Y-83364920D03*
D10*
X198980000Y-37364920D03*
X198980000Y-76364920D03*
D11*
X181980000Y-76364920D03*
D12*
X181980000Y-37364920D03*
D13*
X202480000Y-54364920D03*
X174980000Y-54364920D03*
X174980000Y-109364920D03*
X202480000Y-109364920D03*
D14*
X204980000Y-37364920D03*
X204980000Y-131364920D03*
X50980000Y-37364920D03*
D15*
X52200000Y-47364920D03*
X53470000Y-49904920D03*
X54740000Y-47364920D03*
X56010000Y-49904920D03*
X57280000Y-47364920D03*
X58550000Y-49904920D03*
X59820000Y-47364920D03*
X61090000Y-49904920D03*
X62360000Y-47364920D03*
X63630000Y-49904920D03*
X64900000Y-47364920D03*
X66170000Y-49904920D03*
X67440000Y-47364920D03*
X68710000Y-49904920D03*
D16*
X69980000Y-47364920D03*
D17*
X61090000Y-67904920D03*
D18*
X53192000Y-54324920D03*
X53192000Y-55624920D03*
X55092000Y-54974920D03*
X53192000Y-54974920D03*
X55092000Y-55624920D03*
X55092000Y-54324920D03*
X65572000Y-54212920D03*
X65572000Y-55512920D03*
X67472000Y-54862920D03*
X65572000Y-54862920D03*
X67472000Y-55512920D03*
X67472000Y-54212920D03*
D19*
X52980000Y-107364920D03*
D20*
X60600000Y-94064920D03*
X55520000Y-107364920D03*
X58060000Y-94064920D03*
X58060000Y-107364920D03*
X55520000Y-94064920D03*
X60600000Y-107364920D03*
X52980000Y-94064920D03*
D19*
X65980000Y-107364920D03*
D20*
X73600000Y-94064920D03*
X68520000Y-107364920D03*
X71060000Y-94064920D03*
X71060000Y-107364920D03*
X68520000Y-94064920D03*
X73600000Y-107364920D03*
X65980000Y-94064920D03*
D10*
X101066000Y-92454920D03*
X98526000Y-92454920D03*
D11*
X95986000Y-92454920D03*
D10*
X170980000Y-131444920D03*
X170980000Y-128904920D03*
D11*
X170980000Y-126364920D03*
D21*
X173378000Y-40130920D03*
X169878000Y-40130920D03*
X166378000Y-40130920D03*
X162878000Y-40130920D03*
X159378000Y-40130920D03*
X155878000Y-40130920D03*
X152378000Y-40130920D03*
X148878000Y-40130920D03*
X145378000Y-40130920D03*
X141878000Y-40130920D03*
X138378000Y-40130920D03*
X134878000Y-40130920D03*
X131378000Y-40130920D03*
X127878000Y-40130920D03*
X124378000Y-40130920D03*
D22*
X120878000Y-40130920D03*
D10*
X101066000Y-87374920D03*
X98526000Y-87374920D03*
X95986000Y-87374920D03*
X93446000Y-87374920D03*
X90906000Y-87374920D03*
D11*
X88366000Y-87374920D03*
D23*
X72612000Y-119910000D03*
D24*
G36*
X70716505Y-118811204D02*
G01*
X70740773Y-118814804D01*
X70764572Y-118820765D01*
X70787671Y-118829030D01*
X70809850Y-118839520D01*
X70830893Y-118852132D01*
X70850599Y-118866747D01*
X70868777Y-118883223D01*
X70885253Y-118901401D01*
X70899868Y-118921107D01*
X70912480Y-118942150D01*
X70922970Y-118964329D01*
X70931235Y-118987428D01*
X70937196Y-119011227D01*
X70940796Y-119035495D01*
X70942000Y-119059999D01*
X70942000Y-120760001D01*
X70940796Y-120784505D01*
X70937196Y-120808773D01*
X70931235Y-120832572D01*
X70922970Y-120855671D01*
X70912480Y-120877850D01*
X70899868Y-120898893D01*
X70885253Y-120918599D01*
X70868777Y-120936777D01*
X70850599Y-120953253D01*
X70830893Y-120967868D01*
X70809850Y-120980480D01*
X70787671Y-120990970D01*
X70764572Y-120999235D01*
X70740773Y-121005196D01*
X70716505Y-121008796D01*
X70692001Y-121010000D01*
X69451999Y-121010000D01*
X69427495Y-121008796D01*
X69403227Y-121005196D01*
X69379428Y-120999235D01*
X69356329Y-120990970D01*
X69334150Y-120980480D01*
X69313107Y-120967868D01*
X69293401Y-120953253D01*
X69275223Y-120936777D01*
X69258747Y-120918599D01*
X69244132Y-120898893D01*
X69231520Y-120877850D01*
X69221030Y-120855671D01*
X69212765Y-120832572D01*
X69206804Y-120808773D01*
X69203204Y-120784505D01*
X69202000Y-120760001D01*
X69202000Y-119059999D01*
X69203204Y-119035495D01*
X69206804Y-119011227D01*
X69212765Y-118987428D01*
X69221030Y-118964329D01*
X69231520Y-118942150D01*
X69244132Y-118921107D01*
X69258747Y-118901401D01*
X69275223Y-118883223D01*
X69293401Y-118866747D01*
X69313107Y-118852132D01*
X69334150Y-118839520D01*
X69356329Y-118829030D01*
X69379428Y-118820765D01*
X69403227Y-118814804D01*
X69427495Y-118811204D01*
X69451999Y-118810000D01*
X70692001Y-118810000D01*
X70716505Y-118811204D01*
G37*
D23*
X143520000Y-126364920D03*
X140980000Y-126364920D03*
D24*
G36*
X139084505Y-125266124D02*
G01*
X139108773Y-125269724D01*
X139132572Y-125275685D01*
X139155671Y-125283950D01*
X139177850Y-125294440D01*
X139198893Y-125307052D01*
X139218599Y-125321667D01*
X139236777Y-125338143D01*
X139253253Y-125356321D01*
X139267868Y-125376027D01*
X139280480Y-125397070D01*
X139290970Y-125419249D01*
X139299235Y-125442348D01*
X139305196Y-125466147D01*
X139308796Y-125490415D01*
X139310000Y-125514919D01*
X139310000Y-127214921D01*
X139308796Y-127239425D01*
X139305196Y-127263693D01*
X139299235Y-127287492D01*
X139290970Y-127310591D01*
X139280480Y-127332770D01*
X139267868Y-127353813D01*
X139253253Y-127373519D01*
X139236777Y-127391697D01*
X139218599Y-127408173D01*
X139198893Y-127422788D01*
X139177850Y-127435400D01*
X139155671Y-127445890D01*
X139132572Y-127454155D01*
X139108773Y-127460116D01*
X139084505Y-127463716D01*
X139060001Y-127464920D01*
X137819999Y-127464920D01*
X137795495Y-127463716D01*
X137771227Y-127460116D01*
X137747428Y-127454155D01*
X137724329Y-127445890D01*
X137702150Y-127435400D01*
X137681107Y-127422788D01*
X137661401Y-127408173D01*
X137643223Y-127391697D01*
X137626747Y-127373519D01*
X137612132Y-127353813D01*
X137599520Y-127332770D01*
X137589030Y-127310591D01*
X137580765Y-127287492D01*
X137574804Y-127263693D01*
X137571204Y-127239425D01*
X137570000Y-127214921D01*
X137570000Y-125514919D01*
X137571204Y-125490415D01*
X137574804Y-125466147D01*
X137580765Y-125442348D01*
X137589030Y-125419249D01*
X137599520Y-125397070D01*
X137612132Y-125376027D01*
X137626747Y-125356321D01*
X137643223Y-125338143D01*
X137661401Y-125321667D01*
X137681107Y-125307052D01*
X137702150Y-125294440D01*
X137724329Y-125283950D01*
X137747428Y-125275685D01*
X137771227Y-125269724D01*
X137795495Y-125266124D01*
X137819999Y-125264920D01*
X139060001Y-125264920D01*
X139084505Y-125266124D01*
G37*
D23*
X56360000Y-40364920D03*
X58900000Y-40364920D03*
X61440000Y-40364920D03*
D24*
G36*
X64624505Y-39266124D02*
G01*
X64648773Y-39269724D01*
X64672572Y-39275685D01*
X64695671Y-39283950D01*
X64717850Y-39294440D01*
X64738893Y-39307052D01*
X64758599Y-39321667D01*
X64776777Y-39338143D01*
X64793253Y-39356321D01*
X64807868Y-39376027D01*
X64820480Y-39397070D01*
X64830970Y-39419249D01*
X64839235Y-39442348D01*
X64845196Y-39466147D01*
X64848796Y-39490415D01*
X64850000Y-39514919D01*
X64850000Y-41214921D01*
X64848796Y-41239425D01*
X64845196Y-41263693D01*
X64839235Y-41287492D01*
X64830970Y-41310591D01*
X64820480Y-41332770D01*
X64807868Y-41353813D01*
X64793253Y-41373519D01*
X64776777Y-41391697D01*
X64758599Y-41408173D01*
X64738893Y-41422788D01*
X64717850Y-41435400D01*
X64695671Y-41445890D01*
X64672572Y-41454155D01*
X64648773Y-41460116D01*
X64624505Y-41463716D01*
X64600001Y-41464920D01*
X63359999Y-41464920D01*
X63335495Y-41463716D01*
X63311227Y-41460116D01*
X63287428Y-41454155D01*
X63264329Y-41445890D01*
X63242150Y-41435400D01*
X63221107Y-41422788D01*
X63201401Y-41408173D01*
X63183223Y-41391697D01*
X63166747Y-41373519D01*
X63152132Y-41353813D01*
X63139520Y-41332770D01*
X63129030Y-41310591D01*
X63120765Y-41287492D01*
X63114804Y-41263693D01*
X63111204Y-41239425D01*
X63110000Y-41214921D01*
X63110000Y-39514919D01*
X63111204Y-39490415D01*
X63114804Y-39466147D01*
X63120765Y-39442348D01*
X63129030Y-39419249D01*
X63139520Y-39397070D01*
X63152132Y-39376027D01*
X63166747Y-39356321D01*
X63183223Y-39338143D01*
X63201401Y-39321667D01*
X63221107Y-39307052D01*
X63242150Y-39294440D01*
X63264329Y-39283950D01*
X63287428Y-39275685D01*
X63311227Y-39269724D01*
X63335495Y-39266124D01*
X63359999Y-39264920D01*
X64600001Y-39264920D01*
X64624505Y-39266124D01*
G37*
D23*
X196140000Y-130364920D03*
D24*
G36*
X194244505Y-129266124D02*
G01*
X194268773Y-129269724D01*
X194292572Y-129275685D01*
X194315671Y-129283950D01*
X194337850Y-129294440D01*
X194358893Y-129307052D01*
X194378599Y-129321667D01*
X194396777Y-129338143D01*
X194413253Y-129356321D01*
X194427868Y-129376027D01*
X194440480Y-129397070D01*
X194450970Y-129419249D01*
X194459235Y-129442348D01*
X194465196Y-129466147D01*
X194468796Y-129490415D01*
X194470000Y-129514919D01*
X194470000Y-131214921D01*
X194468796Y-131239425D01*
X194465196Y-131263693D01*
X194459235Y-131287492D01*
X194450970Y-131310591D01*
X194440480Y-131332770D01*
X194427868Y-131353813D01*
X194413253Y-131373519D01*
X194396777Y-131391697D01*
X194378599Y-131408173D01*
X194358893Y-131422788D01*
X194337850Y-131435400D01*
X194315671Y-131445890D01*
X194292572Y-131454155D01*
X194268773Y-131460116D01*
X194244505Y-131463716D01*
X194220001Y-131464920D01*
X192979999Y-131464920D01*
X192955495Y-131463716D01*
X192931227Y-131460116D01*
X192907428Y-131454155D01*
X192884329Y-131445890D01*
X192862150Y-131435400D01*
X192841107Y-131422788D01*
X192821401Y-131408173D01*
X192803223Y-131391697D01*
X192786747Y-131373519D01*
X192772132Y-131353813D01*
X192759520Y-131332770D01*
X192749030Y-131310591D01*
X192740765Y-131287492D01*
X192734804Y-131263693D01*
X192731204Y-131239425D01*
X192730000Y-131214921D01*
X192730000Y-129514919D01*
X192731204Y-129490415D01*
X192734804Y-129466147D01*
X192740765Y-129442348D01*
X192749030Y-129419249D01*
X192759520Y-129397070D01*
X192772132Y-129376027D01*
X192786747Y-129356321D01*
X192803223Y-129338143D01*
X192821401Y-129321667D01*
X192841107Y-129307052D01*
X192862150Y-129294440D01*
X192884329Y-129283950D01*
X192907428Y-129275685D01*
X192931227Y-129269724D01*
X192955495Y-129266124D01*
X192979999Y-129264920D01*
X194220001Y-129264920D01*
X194244505Y-129266124D01*
G37*
D23*
X98520000Y-39364920D03*
D24*
G36*
X96624505Y-38266124D02*
G01*
X96648773Y-38269724D01*
X96672572Y-38275685D01*
X96695671Y-38283950D01*
X96717850Y-38294440D01*
X96738893Y-38307052D01*
X96758599Y-38321667D01*
X96776777Y-38338143D01*
X96793253Y-38356321D01*
X96807868Y-38376027D01*
X96820480Y-38397070D01*
X96830970Y-38419249D01*
X96839235Y-38442348D01*
X96845196Y-38466147D01*
X96848796Y-38490415D01*
X96850000Y-38514919D01*
X96850000Y-40214921D01*
X96848796Y-40239425D01*
X96845196Y-40263693D01*
X96839235Y-40287492D01*
X96830970Y-40310591D01*
X96820480Y-40332770D01*
X96807868Y-40353813D01*
X96793253Y-40373519D01*
X96776777Y-40391697D01*
X96758599Y-40408173D01*
X96738893Y-40422788D01*
X96717850Y-40435400D01*
X96695671Y-40445890D01*
X96672572Y-40454155D01*
X96648773Y-40460116D01*
X96624505Y-40463716D01*
X96600001Y-40464920D01*
X95359999Y-40464920D01*
X95335495Y-40463716D01*
X95311227Y-40460116D01*
X95287428Y-40454155D01*
X95264329Y-40445890D01*
X95242150Y-40435400D01*
X95221107Y-40422788D01*
X95201401Y-40408173D01*
X95183223Y-40391697D01*
X95166747Y-40373519D01*
X95152132Y-40353813D01*
X95139520Y-40332770D01*
X95129030Y-40310591D01*
X95120765Y-40287492D01*
X95114804Y-40263693D01*
X95111204Y-40239425D01*
X95110000Y-40214921D01*
X95110000Y-38514919D01*
X95111204Y-38490415D01*
X95114804Y-38466147D01*
X95120765Y-38442348D01*
X95129030Y-38419249D01*
X95139520Y-38397070D01*
X95152132Y-38376027D01*
X95166747Y-38356321D01*
X95183223Y-38338143D01*
X95201401Y-38321667D01*
X95221107Y-38307052D01*
X95242150Y-38294440D01*
X95264329Y-38283950D01*
X95287428Y-38275685D01*
X95311227Y-38269724D01*
X95335495Y-38266124D01*
X95359999Y-38264920D01*
X96600001Y-38264920D01*
X96624505Y-38266124D01*
G37*
D23*
X105520000Y-39364920D03*
D24*
G36*
X103624505Y-38266124D02*
G01*
X103648773Y-38269724D01*
X103672572Y-38275685D01*
X103695671Y-38283950D01*
X103717850Y-38294440D01*
X103738893Y-38307052D01*
X103758599Y-38321667D01*
X103776777Y-38338143D01*
X103793253Y-38356321D01*
X103807868Y-38376027D01*
X103820480Y-38397070D01*
X103830970Y-38419249D01*
X103839235Y-38442348D01*
X103845196Y-38466147D01*
X103848796Y-38490415D01*
X103850000Y-38514919D01*
X103850000Y-40214921D01*
X103848796Y-40239425D01*
X103845196Y-40263693D01*
X103839235Y-40287492D01*
X103830970Y-40310591D01*
X103820480Y-40332770D01*
X103807868Y-40353813D01*
X103793253Y-40373519D01*
X103776777Y-40391697D01*
X103758599Y-40408173D01*
X103738893Y-40422788D01*
X103717850Y-40435400D01*
X103695671Y-40445890D01*
X103672572Y-40454155D01*
X103648773Y-40460116D01*
X103624505Y-40463716D01*
X103600001Y-40464920D01*
X102359999Y-40464920D01*
X102335495Y-40463716D01*
X102311227Y-40460116D01*
X102287428Y-40454155D01*
X102264329Y-40445890D01*
X102242150Y-40435400D01*
X102221107Y-40422788D01*
X102201401Y-40408173D01*
X102183223Y-40391697D01*
X102166747Y-40373519D01*
X102152132Y-40353813D01*
X102139520Y-40332770D01*
X102129030Y-40310591D01*
X102120765Y-40287492D01*
X102114804Y-40263693D01*
X102111204Y-40239425D01*
X102110000Y-40214921D01*
X102110000Y-38514919D01*
X102111204Y-38490415D01*
X102114804Y-38466147D01*
X102120765Y-38442348D01*
X102129030Y-38419249D01*
X102139520Y-38397070D01*
X102152132Y-38376027D01*
X102166747Y-38356321D01*
X102183223Y-38338143D01*
X102201401Y-38321667D01*
X102221107Y-38307052D01*
X102242150Y-38294440D01*
X102264329Y-38283950D01*
X102287428Y-38275685D01*
X102311227Y-38269724D01*
X102335495Y-38266124D01*
X102359999Y-38264920D01*
X103600001Y-38264920D01*
X103624505Y-38266124D01*
G37*
D23*
X83032000Y-39364920D03*
X80492000Y-39364920D03*
D24*
G36*
X78596505Y-38266124D02*
G01*
X78620773Y-38269724D01*
X78644572Y-38275685D01*
X78667671Y-38283950D01*
X78689850Y-38294440D01*
X78710893Y-38307052D01*
X78730599Y-38321667D01*
X78748777Y-38338143D01*
X78765253Y-38356321D01*
X78779868Y-38376027D01*
X78792480Y-38397070D01*
X78802970Y-38419249D01*
X78811235Y-38442348D01*
X78817196Y-38466147D01*
X78820796Y-38490415D01*
X78822000Y-38514919D01*
X78822000Y-40214921D01*
X78820796Y-40239425D01*
X78817196Y-40263693D01*
X78811235Y-40287492D01*
X78802970Y-40310591D01*
X78792480Y-40332770D01*
X78779868Y-40353813D01*
X78765253Y-40373519D01*
X78748777Y-40391697D01*
X78730599Y-40408173D01*
X78710893Y-40422788D01*
X78689850Y-40435400D01*
X78667671Y-40445890D01*
X78644572Y-40454155D01*
X78620773Y-40460116D01*
X78596505Y-40463716D01*
X78572001Y-40464920D01*
X77331999Y-40464920D01*
X77307495Y-40463716D01*
X77283227Y-40460116D01*
X77259428Y-40454155D01*
X77236329Y-40445890D01*
X77214150Y-40435400D01*
X77193107Y-40422788D01*
X77173401Y-40408173D01*
X77155223Y-40391697D01*
X77138747Y-40373519D01*
X77124132Y-40353813D01*
X77111520Y-40332770D01*
X77101030Y-40310591D01*
X77092765Y-40287492D01*
X77086804Y-40263693D01*
X77083204Y-40239425D01*
X77082000Y-40214921D01*
X77082000Y-38514919D01*
X77083204Y-38490415D01*
X77086804Y-38466147D01*
X77092765Y-38442348D01*
X77101030Y-38419249D01*
X77111520Y-38397070D01*
X77124132Y-38376027D01*
X77138747Y-38356321D01*
X77155223Y-38338143D01*
X77173401Y-38321667D01*
X77193107Y-38307052D01*
X77214150Y-38294440D01*
X77236329Y-38283950D01*
X77259428Y-38275685D01*
X77283227Y-38269724D01*
X77307495Y-38266124D01*
X77331999Y-38264920D01*
X78572001Y-38264920D01*
X78596505Y-38266124D01*
G37*
D23*
X189680000Y-130364920D03*
X187140000Y-130364920D03*
D24*
G36*
X185244505Y-129266124D02*
G01*
X185268773Y-129269724D01*
X185292572Y-129275685D01*
X185315671Y-129283950D01*
X185337850Y-129294440D01*
X185358893Y-129307052D01*
X185378599Y-129321667D01*
X185396777Y-129338143D01*
X185413253Y-129356321D01*
X185427868Y-129376027D01*
X185440480Y-129397070D01*
X185450970Y-129419249D01*
X185459235Y-129442348D01*
X185465196Y-129466147D01*
X185468796Y-129490415D01*
X185470000Y-129514919D01*
X185470000Y-131214921D01*
X185468796Y-131239425D01*
X185465196Y-131263693D01*
X185459235Y-131287492D01*
X185450970Y-131310591D01*
X185440480Y-131332770D01*
X185427868Y-131353813D01*
X185413253Y-131373519D01*
X185396777Y-131391697D01*
X185378599Y-131408173D01*
X185358893Y-131422788D01*
X185337850Y-131435400D01*
X185315671Y-131445890D01*
X185292572Y-131454155D01*
X185268773Y-131460116D01*
X185244505Y-131463716D01*
X185220001Y-131464920D01*
X183979999Y-131464920D01*
X183955495Y-131463716D01*
X183931227Y-131460116D01*
X183907428Y-131454155D01*
X183884329Y-131445890D01*
X183862150Y-131435400D01*
X183841107Y-131422788D01*
X183821401Y-131408173D01*
X183803223Y-131391697D01*
X183786747Y-131373519D01*
X183772132Y-131353813D01*
X183759520Y-131332770D01*
X183749030Y-131310591D01*
X183740765Y-131287492D01*
X183734804Y-131263693D01*
X183731204Y-131239425D01*
X183730000Y-131214921D01*
X183730000Y-129514919D01*
X183731204Y-129490415D01*
X183734804Y-129466147D01*
X183740765Y-129442348D01*
X183749030Y-129419249D01*
X183759520Y-129397070D01*
X183772132Y-129376027D01*
X183786747Y-129356321D01*
X183803223Y-129338143D01*
X183821401Y-129321667D01*
X183841107Y-129307052D01*
X183862150Y-129294440D01*
X183884329Y-129283950D01*
X183907428Y-129275685D01*
X183931227Y-129269724D01*
X183955495Y-129266124D01*
X183979999Y-129264920D01*
X185220001Y-129264920D01*
X185244505Y-129266124D01*
G37*
D23*
X112520000Y-39364920D03*
D24*
G36*
X110624505Y-38266124D02*
G01*
X110648773Y-38269724D01*
X110672572Y-38275685D01*
X110695671Y-38283950D01*
X110717850Y-38294440D01*
X110738893Y-38307052D01*
X110758599Y-38321667D01*
X110776777Y-38338143D01*
X110793253Y-38356321D01*
X110807868Y-38376027D01*
X110820480Y-38397070D01*
X110830970Y-38419249D01*
X110839235Y-38442348D01*
X110845196Y-38466147D01*
X110848796Y-38490415D01*
X110850000Y-38514919D01*
X110850000Y-40214921D01*
X110848796Y-40239425D01*
X110845196Y-40263693D01*
X110839235Y-40287492D01*
X110830970Y-40310591D01*
X110820480Y-40332770D01*
X110807868Y-40353813D01*
X110793253Y-40373519D01*
X110776777Y-40391697D01*
X110758599Y-40408173D01*
X110738893Y-40422788D01*
X110717850Y-40435400D01*
X110695671Y-40445890D01*
X110672572Y-40454155D01*
X110648773Y-40460116D01*
X110624505Y-40463716D01*
X110600001Y-40464920D01*
X109359999Y-40464920D01*
X109335495Y-40463716D01*
X109311227Y-40460116D01*
X109287428Y-40454155D01*
X109264329Y-40445890D01*
X109242150Y-40435400D01*
X109221107Y-40422788D01*
X109201401Y-40408173D01*
X109183223Y-40391697D01*
X109166747Y-40373519D01*
X109152132Y-40353813D01*
X109139520Y-40332770D01*
X109129030Y-40310591D01*
X109120765Y-40287492D01*
X109114804Y-40263693D01*
X109111204Y-40239425D01*
X109110000Y-40214921D01*
X109110000Y-38514919D01*
X109111204Y-38490415D01*
X109114804Y-38466147D01*
X109120765Y-38442348D01*
X109129030Y-38419249D01*
X109139520Y-38397070D01*
X109152132Y-38376027D01*
X109166747Y-38356321D01*
X109183223Y-38338143D01*
X109201401Y-38321667D01*
X109221107Y-38307052D01*
X109242150Y-38294440D01*
X109264329Y-38283950D01*
X109287428Y-38275685D01*
X109311227Y-38269724D01*
X109335495Y-38266124D01*
X109359999Y-38264920D01*
X110600001Y-38264920D01*
X110624505Y-38266124D01*
G37*
D25*
X59980000Y-128364920D03*
D26*
X59980000Y-125864920D03*
X59980000Y-123864920D03*
X59980000Y-121364920D03*
D27*
X57270000Y-131434920D03*
X57270000Y-118294920D03*
D28*
X134848000Y-52164920D03*
X147548000Y-52164920D03*
X134848000Y-47164920D03*
X147548000Y-47164920D03*
X163550000Y-131824920D03*
X150850000Y-131824920D03*
X163550000Y-126824920D03*
X150850000Y-126824920D03*
D29*
X167358000Y-114046000D03*
D30*
X169898000Y-114046000D03*
X167358000Y-111506000D03*
X169898000Y-111506000D03*
X167358000Y-108966000D03*
X169898000Y-108966000D03*
X167358000Y-106426000D03*
X169898000Y-106426000D03*
X167358000Y-103886000D03*
X169898000Y-103886000D03*
X167358000Y-101346000D03*
X169898000Y-101346000D03*
X167358000Y-98806000D03*
X169898000Y-98806000D03*
X167358000Y-96266000D03*
X169898000Y-96266000D03*
X167358000Y-93726000D03*
X169898000Y-93726000D03*
X167358000Y-91186000D03*
X169898000Y-91186000D03*
X167358000Y-88646000D03*
X169898000Y-88646000D03*
X167358000Y-86106000D03*
X169898000Y-86106000D03*
X167358000Y-83566000D03*
X169898000Y-83566000D03*
X167358000Y-81026000D03*
X169898000Y-81026000D03*
X167358000Y-78486000D03*
X169898000Y-78486000D03*
X167358000Y-75946000D03*
X169898000Y-75946000D03*
X167358000Y-73406000D03*
X169898000Y-73406000D03*
X167358000Y-70866000D03*
X169898000Y-70866000D03*
D31*
X147038000Y-119126000D03*
X149578000Y-119126000D03*
X152118000Y-119126000D03*
X154658000Y-119126000D03*
X157198000Y-119126000D03*
X159738000Y-119126000D03*
X162278000Y-119126000D03*
X164818000Y-119126000D03*
X101318000Y-119126000D03*
X103858000Y-119126000D03*
X106398000Y-119126000D03*
X108938000Y-119126000D03*
X111478000Y-119126000D03*
X114018000Y-119126000D03*
X116558000Y-119126000D03*
X119098000Y-119126000D03*
X124178000Y-119126000D03*
X126718000Y-119126000D03*
X129258000Y-119126000D03*
X131798000Y-119126000D03*
X134338000Y-119126000D03*
X136878000Y-119126000D03*
X139418000Y-119126000D03*
X141958000Y-119126000D03*
X92174000Y-70866000D03*
X94714000Y-70866000D03*
X97254000Y-70866000D03*
X99794000Y-70866000D03*
X102334000Y-70866000D03*
X104874000Y-70866000D03*
X107414000Y-70866000D03*
X109954000Y-70866000D03*
X112494000Y-70866000D03*
X115034000Y-70866000D03*
X119098000Y-70866000D03*
X121638000Y-70866000D03*
X124178000Y-70866000D03*
X126718000Y-70866000D03*
X129258000Y-70866000D03*
X131798000Y-70866000D03*
X134338000Y-70866000D03*
X136878000Y-70866000D03*
X141958000Y-70866000D03*
X144498000Y-70866000D03*
X147038000Y-70866000D03*
X149578000Y-70866000D03*
X152118000Y-70866000D03*
X154658000Y-70866000D03*
X157198000Y-70866000D03*
X159738000Y-70866000D03*
D32*
X169898000Y-119126000D03*
X88618000Y-70866000D03*
X163548000Y-70866000D03*
M02*
