G04 #@! TF.GenerationSoftware,KiCad,Pcbnew,(5.1.5)-3*
G04 #@! TF.CreationDate,2020-04-11T23:56:02-04:00*
G04 #@! TF.ProjectId,ventilator_shield,76656e74-696c-4617-946f-725f73686965,rev?*
G04 #@! TF.SameCoordinates,Original*
G04 #@! TF.FileFunction,Legend,Top*
G04 #@! TF.FilePolarity,Positive*
%FSLAX46Y46*%
G04 Gerber Fmt 4.6, Leading zero omitted, Abs format (unit mm)*
G04 Created by KiCad (PCBNEW (5.1.5)-3) date 2020-04-11 23:56:02*
%MOMM*%
%LPD*%
G04 APERTURE LIST*
%ADD10C,0.177800*%
%ADD11C,0.304800*%
%ADD12C,0.300000*%
%ADD13C,0.120000*%
%ADD14C,0.150000*%
G04 APERTURE END LIST*
D10*
X132518712Y-83880077D02*
X132732998Y-83951505D01*
X132804427Y-84022934D01*
X132875855Y-84165791D01*
X132875855Y-84380077D01*
X132804427Y-84522934D01*
X132732998Y-84594362D01*
X132590141Y-84665791D01*
X132018712Y-84665791D01*
X132018712Y-83165791D01*
X132518712Y-83165791D01*
X132661570Y-83237220D01*
X132732998Y-83308648D01*
X132804427Y-83451505D01*
X132804427Y-83594362D01*
X132732998Y-83737220D01*
X132661570Y-83808648D01*
X132518712Y-83880077D01*
X132018712Y-83880077D01*
X133518712Y-84665791D02*
X133518712Y-83665791D01*
X133518712Y-83951505D02*
X133590141Y-83808648D01*
X133661570Y-83737220D01*
X133804427Y-83665791D01*
X133947284Y-83665791D01*
X135018712Y-84594362D02*
X134875855Y-84665791D01*
X134590141Y-84665791D01*
X134447284Y-84594362D01*
X134375855Y-84451505D01*
X134375855Y-83880077D01*
X134447284Y-83737220D01*
X134590141Y-83665791D01*
X134875855Y-83665791D01*
X135018712Y-83737220D01*
X135090141Y-83880077D01*
X135090141Y-84022934D01*
X134375855Y-84165791D01*
X136304427Y-84594362D02*
X136161570Y-84665791D01*
X135875855Y-84665791D01*
X135732998Y-84594362D01*
X135661570Y-84451505D01*
X135661570Y-83880077D01*
X135732998Y-83737220D01*
X135875855Y-83665791D01*
X136161570Y-83665791D01*
X136304427Y-83737220D01*
X136375855Y-83880077D01*
X136375855Y-84022934D01*
X135661570Y-84165791D01*
X136875855Y-83665791D02*
X137661570Y-83665791D01*
X136875855Y-84665791D01*
X137661570Y-84665791D01*
X138804427Y-84594362D02*
X138661570Y-84665791D01*
X138375855Y-84665791D01*
X138232998Y-84594362D01*
X138161570Y-84451505D01*
X138161570Y-83880077D01*
X138232998Y-83737220D01*
X138375855Y-83665791D01*
X138661570Y-83665791D01*
X138804427Y-83737220D01*
X138875855Y-83880077D01*
X138875855Y-84022934D01*
X138161570Y-84165791D01*
X140447284Y-83165791D02*
X140947284Y-84665791D01*
X141447284Y-83165791D01*
X142518712Y-84594362D02*
X142375855Y-84665791D01*
X142090141Y-84665791D01*
X141947284Y-84594362D01*
X141875855Y-84451505D01*
X141875855Y-83880077D01*
X141947284Y-83737220D01*
X142090141Y-83665791D01*
X142375855Y-83665791D01*
X142518712Y-83737220D01*
X142590141Y-83880077D01*
X142590141Y-84022934D01*
X141875855Y-84165791D01*
X143232998Y-83665791D02*
X143232998Y-84665791D01*
X143232998Y-83808648D02*
X143304427Y-83737220D01*
X143447284Y-83665791D01*
X143661570Y-83665791D01*
X143804427Y-83737220D01*
X143875855Y-83880077D01*
X143875855Y-84665791D01*
X144375855Y-83665791D02*
X144947284Y-83665791D01*
X144590141Y-83165791D02*
X144590141Y-84451505D01*
X144661570Y-84594362D01*
X144804427Y-84665791D01*
X144947284Y-84665791D01*
X145447284Y-84665791D02*
X145447284Y-83665791D01*
X145447284Y-83165791D02*
X145375855Y-83237220D01*
X145447284Y-83308648D01*
X145518712Y-83237220D01*
X145447284Y-83165791D01*
X145447284Y-83308648D01*
X146375855Y-84665791D02*
X146232998Y-84594362D01*
X146161570Y-84451505D01*
X146161570Y-83165791D01*
X147590141Y-84665791D02*
X147590141Y-83880077D01*
X147518712Y-83737220D01*
X147375855Y-83665791D01*
X147090141Y-83665791D01*
X146947284Y-83737220D01*
X147590141Y-84594362D02*
X147447284Y-84665791D01*
X147090141Y-84665791D01*
X146947284Y-84594362D01*
X146875855Y-84451505D01*
X146875855Y-84308648D01*
X146947284Y-84165791D01*
X147090141Y-84094362D01*
X147447284Y-84094362D01*
X147590141Y-84022934D01*
X148090141Y-83665791D02*
X148661570Y-83665791D01*
X148304427Y-83165791D02*
X148304427Y-84451505D01*
X148375855Y-84594362D01*
X148518712Y-84665791D01*
X148661570Y-84665791D01*
X149375855Y-84665791D02*
X149232998Y-84594362D01*
X149161570Y-84522934D01*
X149090141Y-84380077D01*
X149090141Y-83951505D01*
X149161570Y-83808648D01*
X149232998Y-83737220D01*
X149375855Y-83665791D01*
X149590141Y-83665791D01*
X149732998Y-83737220D01*
X149804427Y-83808648D01*
X149875855Y-83951505D01*
X149875855Y-84380077D01*
X149804427Y-84522934D01*
X149732998Y-84594362D01*
X149590141Y-84665791D01*
X149375855Y-84665791D01*
X150518712Y-84665791D02*
X150518712Y-83665791D01*
X150518712Y-83951505D02*
X150590141Y-83808648D01*
X150661570Y-83737220D01*
X150804427Y-83665791D01*
X150947284Y-83665791D01*
X152590141Y-83880077D02*
X153090141Y-83880077D01*
X153304427Y-84665791D02*
X152590141Y-84665791D01*
X152590141Y-83165791D01*
X153304427Y-83165791D01*
X154161570Y-84665791D02*
X154018712Y-84594362D01*
X153947284Y-84451505D01*
X153947284Y-83165791D01*
X155304427Y-84594362D02*
X155161570Y-84665791D01*
X154875855Y-84665791D01*
X154732998Y-84594362D01*
X154661570Y-84451505D01*
X154661570Y-83880077D01*
X154732998Y-83737220D01*
X154875855Y-83665791D01*
X155161570Y-83665791D01*
X155304427Y-83737220D01*
X155375855Y-83880077D01*
X155375855Y-84022934D01*
X154661570Y-84165791D01*
X156661570Y-84594362D02*
X156518712Y-84665791D01*
X156232998Y-84665791D01*
X156090141Y-84594362D01*
X156018712Y-84522934D01*
X155947284Y-84380077D01*
X155947284Y-83951505D01*
X156018712Y-83808648D01*
X156090141Y-83737220D01*
X156232998Y-83665791D01*
X156518712Y-83665791D01*
X156661570Y-83737220D01*
X157090141Y-83665791D02*
X157661570Y-83665791D01*
X157304427Y-83165791D02*
X157304427Y-84451505D01*
X157375855Y-84594362D01*
X157518712Y-84665791D01*
X157661570Y-84665791D01*
X158161570Y-84665791D02*
X158161570Y-83665791D01*
X158161570Y-83951505D02*
X158232998Y-83808648D01*
X158304427Y-83737220D01*
X158447284Y-83665791D01*
X158590141Y-83665791D01*
X159304427Y-84665791D02*
X159161570Y-84594362D01*
X159090141Y-84522934D01*
X159018712Y-84380077D01*
X159018712Y-83951505D01*
X159090141Y-83808648D01*
X159161570Y-83737220D01*
X159304427Y-83665791D01*
X159518712Y-83665791D01*
X159661570Y-83737220D01*
X159732998Y-83808648D01*
X159804427Y-83951505D01*
X159804427Y-84380077D01*
X159732998Y-84522934D01*
X159661570Y-84594362D01*
X159518712Y-84665791D01*
X159304427Y-84665791D01*
X160447284Y-83665791D02*
X160447284Y-84665791D01*
X160447284Y-83808648D02*
X160518712Y-83737220D01*
X160661570Y-83665791D01*
X160875855Y-83665791D01*
X161018712Y-83737220D01*
X161090141Y-83880077D01*
X161090141Y-84665791D01*
X161804427Y-84665791D02*
X161804427Y-83665791D01*
X161804427Y-83165791D02*
X161732998Y-83237220D01*
X161804427Y-83308648D01*
X161875855Y-83237220D01*
X161804427Y-83165791D01*
X161804427Y-83308648D01*
X163161570Y-84594362D02*
X163018712Y-84665791D01*
X162732998Y-84665791D01*
X162590141Y-84594362D01*
X162518712Y-84522934D01*
X162447284Y-84380077D01*
X162447284Y-83951505D01*
X162518712Y-83808648D01*
X162590141Y-83737220D01*
X162732998Y-83665791D01*
X163018712Y-83665791D01*
X163161570Y-83737220D01*
X163732998Y-84594362D02*
X163875855Y-84665791D01*
X164161570Y-84665791D01*
X164304427Y-84594362D01*
X164375855Y-84451505D01*
X164375855Y-84380077D01*
X164304427Y-84237220D01*
X164161570Y-84165791D01*
X163947284Y-84165791D01*
X163804427Y-84094362D01*
X163732998Y-83951505D01*
X163732998Y-83880077D01*
X163804427Y-83737220D01*
X163947284Y-83665791D01*
X164161570Y-83665791D01*
X164304427Y-83737220D01*
X132018712Y-86307877D02*
X132518712Y-86307877D01*
X132732998Y-87093591D02*
X132018712Y-87093591D01*
X132018712Y-85593591D01*
X132732998Y-85593591D01*
X134018712Y-87093591D02*
X134018712Y-86307877D01*
X133947284Y-86165020D01*
X133804427Y-86093591D01*
X133518712Y-86093591D01*
X133375855Y-86165020D01*
X134018712Y-87022162D02*
X133875855Y-87093591D01*
X133518712Y-87093591D01*
X133375855Y-87022162D01*
X133304427Y-86879305D01*
X133304427Y-86736448D01*
X133375855Y-86593591D01*
X133518712Y-86522162D01*
X133875855Y-86522162D01*
X134018712Y-86450734D01*
X134732998Y-87093591D02*
X134732998Y-86093591D01*
X134732998Y-86236448D02*
X134804427Y-86165020D01*
X134947284Y-86093591D01*
X135161570Y-86093591D01*
X135304427Y-86165020D01*
X135375855Y-86307877D01*
X135375855Y-87093591D01*
X135375855Y-86307877D02*
X135447284Y-86165020D01*
X135590141Y-86093591D01*
X135804427Y-86093591D01*
X135947284Y-86165020D01*
X136018712Y-86307877D01*
X136018712Y-87093591D01*
X136947284Y-87093591D02*
X136804427Y-87022162D01*
X136732998Y-86950734D01*
X136661570Y-86807877D01*
X136661570Y-86379305D01*
X136732998Y-86236448D01*
X136804427Y-86165020D01*
X136947284Y-86093591D01*
X137161570Y-86093591D01*
X137304427Y-86165020D01*
X137375855Y-86236448D01*
X137447284Y-86379305D01*
X137447284Y-86807877D01*
X137375855Y-86950734D01*
X137304427Y-87022162D01*
X137161570Y-87093591D01*
X136947284Y-87093591D01*
X138090141Y-86093591D02*
X138090141Y-87093591D01*
X138090141Y-86236448D02*
X138161570Y-86165020D01*
X138304427Y-86093591D01*
X138518712Y-86093591D01*
X138661570Y-86165020D01*
X138732998Y-86307877D01*
X138732998Y-87093591D01*
X140590141Y-86307877D02*
X141090141Y-86307877D01*
X141304427Y-87093591D02*
X140590141Y-87093591D01*
X140590141Y-85593591D01*
X141304427Y-85593591D01*
X142590141Y-86093591D02*
X142590141Y-87307877D01*
X142518712Y-87450734D01*
X142447284Y-87522162D01*
X142304427Y-87593591D01*
X142090141Y-87593591D01*
X141947284Y-87522162D01*
X142590141Y-87022162D02*
X142447284Y-87093591D01*
X142161570Y-87093591D01*
X142018712Y-87022162D01*
X141947284Y-86950734D01*
X141875855Y-86807877D01*
X141875855Y-86379305D01*
X141947284Y-86236448D01*
X142018712Y-86165020D01*
X142161570Y-86093591D01*
X142447284Y-86093591D01*
X142590141Y-86165020D01*
X143947284Y-87093591D02*
X143947284Y-86307877D01*
X143875855Y-86165020D01*
X143732998Y-86093591D01*
X143447284Y-86093591D01*
X143304427Y-86165020D01*
X143947284Y-87022162D02*
X143804427Y-87093591D01*
X143447284Y-87093591D01*
X143304427Y-87022162D01*
X143232998Y-86879305D01*
X143232998Y-86736448D01*
X143304427Y-86593591D01*
X143447284Y-86522162D01*
X143804427Y-86522162D01*
X143947284Y-86450734D01*
X144661570Y-86093591D02*
X144661570Y-87093591D01*
X144661570Y-86236448D02*
X144732998Y-86165020D01*
X144875855Y-86093591D01*
X145090141Y-86093591D01*
X145232998Y-86165020D01*
X145304427Y-86307877D01*
X145304427Y-87093591D01*
X131947284Y-89449962D02*
X132161570Y-89521391D01*
X132518712Y-89521391D01*
X132661570Y-89449962D01*
X132732998Y-89378534D01*
X132804427Y-89235677D01*
X132804427Y-89092820D01*
X132732998Y-88949962D01*
X132661570Y-88878534D01*
X132518712Y-88807105D01*
X132232998Y-88735677D01*
X132090141Y-88664248D01*
X132018712Y-88592820D01*
X131947284Y-88449962D01*
X131947284Y-88307105D01*
X132018712Y-88164248D01*
X132090141Y-88092820D01*
X132232998Y-88021391D01*
X132590141Y-88021391D01*
X132804427Y-88092820D01*
X133447284Y-89521391D02*
X133447284Y-88521391D01*
X133447284Y-88021391D02*
X133375855Y-88092820D01*
X133447284Y-88164248D01*
X133518712Y-88092820D01*
X133447284Y-88021391D01*
X133447284Y-88164248D01*
X134161570Y-89521391D02*
X134161570Y-88521391D01*
X134161570Y-88664248D02*
X134232998Y-88592820D01*
X134375855Y-88521391D01*
X134590141Y-88521391D01*
X134732998Y-88592820D01*
X134804427Y-88735677D01*
X134804427Y-89521391D01*
X134804427Y-88735677D02*
X134875855Y-88592820D01*
X135018712Y-88521391D01*
X135232998Y-88521391D01*
X135375855Y-88592820D01*
X135447284Y-88735677D01*
X135447284Y-89521391D01*
X136375855Y-89521391D02*
X136232998Y-89449962D01*
X136161570Y-89378534D01*
X136090141Y-89235677D01*
X136090141Y-88807105D01*
X136161570Y-88664248D01*
X136232998Y-88592820D01*
X136375855Y-88521391D01*
X136590141Y-88521391D01*
X136732998Y-88592820D01*
X136804427Y-88664248D01*
X136875855Y-88807105D01*
X136875855Y-89235677D01*
X136804427Y-89378534D01*
X136732998Y-89449962D01*
X136590141Y-89521391D01*
X136375855Y-89521391D01*
X137518712Y-88521391D02*
X137518712Y-89521391D01*
X137518712Y-88664248D02*
X137590141Y-88592820D01*
X137732998Y-88521391D01*
X137947284Y-88521391D01*
X138090141Y-88592820D01*
X138161570Y-88735677D01*
X138161570Y-89521391D01*
X139804427Y-88021391D02*
X140661570Y-88021391D01*
X140232998Y-89521391D02*
X140232998Y-88021391D01*
X141804427Y-89521391D02*
X141804427Y-88735677D01*
X141732998Y-88592820D01*
X141590141Y-88521391D01*
X141304427Y-88521391D01*
X141161570Y-88592820D01*
X141804427Y-89449962D02*
X141661570Y-89521391D01*
X141304427Y-89521391D01*
X141161570Y-89449962D01*
X141090141Y-89307105D01*
X141090141Y-89164248D01*
X141161570Y-89021391D01*
X141304427Y-88949962D01*
X141661570Y-88949962D01*
X141804427Y-88878534D01*
X142518712Y-89521391D02*
X142518712Y-88521391D01*
X142518712Y-88807105D02*
X142590141Y-88664248D01*
X142661570Y-88592820D01*
X142804427Y-88521391D01*
X142947284Y-88521391D01*
X143232998Y-88521391D02*
X143804427Y-88521391D01*
X143447284Y-88021391D02*
X143447284Y-89307105D01*
X143518712Y-89449962D01*
X143661570Y-89521391D01*
X143804427Y-89521391D01*
X144947284Y-89521391D02*
X144947284Y-88735677D01*
X144875855Y-88592820D01*
X144732998Y-88521391D01*
X144447284Y-88521391D01*
X144304427Y-88592820D01*
X144947284Y-89449962D02*
X144804427Y-89521391D01*
X144447284Y-89521391D01*
X144304427Y-89449962D01*
X144232998Y-89307105D01*
X144232998Y-89164248D01*
X144304427Y-89021391D01*
X144447284Y-88949962D01*
X144804427Y-88949962D01*
X144947284Y-88878534D01*
X145661570Y-89521391D02*
X145661570Y-88021391D01*
X145804427Y-88949962D02*
X146232998Y-89521391D01*
X146232998Y-88521391D02*
X145661570Y-89092820D01*
X147090141Y-89521391D02*
X146947284Y-89449962D01*
X146875855Y-89378534D01*
X146804427Y-89235677D01*
X146804427Y-88807105D01*
X146875855Y-88664248D01*
X146947284Y-88592820D01*
X147090141Y-88521391D01*
X147304427Y-88521391D01*
X147447284Y-88592820D01*
X147518712Y-88664248D01*
X147590141Y-88807105D01*
X147590141Y-89235677D01*
X147518712Y-89378534D01*
X147447284Y-89449962D01*
X147304427Y-89521391D01*
X147090141Y-89521391D01*
X148090141Y-88521391D02*
X148447284Y-89521391D01*
X148804427Y-88521391D01*
X149375855Y-89521391D02*
X149375855Y-88021391D01*
X149518712Y-88949962D02*
X149947284Y-89521391D01*
X149947284Y-88521391D02*
X149375855Y-89092820D01*
X150518712Y-89449962D02*
X150661570Y-89521391D01*
X150947284Y-89521391D01*
X151090141Y-89449962D01*
X151161570Y-89307105D01*
X151161570Y-89235677D01*
X151090141Y-89092820D01*
X150947284Y-89021391D01*
X150732998Y-89021391D01*
X150590141Y-88949962D01*
X150518712Y-88807105D01*
X150518712Y-88735677D01*
X150590141Y-88592820D01*
X150732998Y-88521391D01*
X150947284Y-88521391D01*
X151090141Y-88592820D01*
X151661570Y-88521391D02*
X152018712Y-89521391D01*
X152375855Y-88521391D02*
X152018712Y-89521391D01*
X151875855Y-89878534D01*
X151804427Y-89949962D01*
X151661570Y-90021391D01*
X131804427Y-90449191D02*
X132304427Y-91949191D01*
X132804427Y-90449191D01*
X134090141Y-91949191D02*
X133232998Y-91949191D01*
X133661570Y-91949191D02*
X133661570Y-90449191D01*
X133518712Y-90663477D01*
X133375855Y-90806334D01*
X133232998Y-90877762D01*
X134732998Y-91806334D02*
X134804427Y-91877762D01*
X134732998Y-91949191D01*
X134661570Y-91877762D01*
X134732998Y-91806334D01*
X134732998Y-91949191D01*
X135732998Y-90449191D02*
X135875855Y-90449191D01*
X136018712Y-90520620D01*
X136090141Y-90592048D01*
X136161570Y-90734905D01*
X136232998Y-91020620D01*
X136232998Y-91377762D01*
X136161570Y-91663477D01*
X136090141Y-91806334D01*
X136018712Y-91877762D01*
X135875855Y-91949191D01*
X135732998Y-91949191D01*
X135590141Y-91877762D01*
X135518712Y-91806334D01*
X135447284Y-91663477D01*
X135375855Y-91377762D01*
X135375855Y-91020620D01*
X135447284Y-90734905D01*
X135518712Y-90592048D01*
X135590141Y-90520620D01*
X135732998Y-90449191D01*
X137947284Y-90592048D02*
X138018712Y-90520620D01*
X138161570Y-90449191D01*
X138518712Y-90449191D01*
X138661570Y-90520620D01*
X138732998Y-90592048D01*
X138804427Y-90734905D01*
X138804427Y-90877762D01*
X138732998Y-91092048D01*
X137875855Y-91949191D01*
X138804427Y-91949191D01*
X139732998Y-90449191D02*
X139875855Y-90449191D01*
X140018712Y-90520620D01*
X140090141Y-90592048D01*
X140161570Y-90734905D01*
X140232998Y-91020620D01*
X140232998Y-91377762D01*
X140161570Y-91663477D01*
X140090141Y-91806334D01*
X140018712Y-91877762D01*
X139875855Y-91949191D01*
X139732998Y-91949191D01*
X139590141Y-91877762D01*
X139518712Y-91806334D01*
X139447284Y-91663477D01*
X139375855Y-91377762D01*
X139375855Y-91020620D01*
X139447284Y-90734905D01*
X139518712Y-90592048D01*
X139590141Y-90520620D01*
X139732998Y-90449191D01*
X140804427Y-90592048D02*
X140875855Y-90520620D01*
X141018712Y-90449191D01*
X141375855Y-90449191D01*
X141518712Y-90520620D01*
X141590141Y-90592048D01*
X141661570Y-90734905D01*
X141661570Y-90877762D01*
X141590141Y-91092048D01*
X140732998Y-91949191D01*
X141661570Y-91949191D01*
X142590141Y-90449191D02*
X142732998Y-90449191D01*
X142875855Y-90520620D01*
X142947284Y-90592048D01*
X143018712Y-90734905D01*
X143090141Y-91020620D01*
X143090141Y-91377762D01*
X143018712Y-91663477D01*
X142947284Y-91806334D01*
X142875855Y-91877762D01*
X142732998Y-91949191D01*
X142590141Y-91949191D01*
X142447284Y-91877762D01*
X142375855Y-91806334D01*
X142304427Y-91663477D01*
X142232998Y-91377762D01*
X142232998Y-91020620D01*
X142304427Y-90734905D01*
X142375855Y-90592048D01*
X142447284Y-90520620D01*
X142590141Y-90449191D01*
X144804427Y-90377762D02*
X143518712Y-92306334D01*
X145590141Y-90449191D02*
X145732998Y-90449191D01*
X145875855Y-90520620D01*
X145947284Y-90592048D01*
X146018712Y-90734905D01*
X146090141Y-91020620D01*
X146090141Y-91377762D01*
X146018712Y-91663477D01*
X145947284Y-91806334D01*
X145875855Y-91877762D01*
X145732998Y-91949191D01*
X145590141Y-91949191D01*
X145447284Y-91877762D01*
X145375855Y-91806334D01*
X145304427Y-91663477D01*
X145232998Y-91377762D01*
X145232998Y-91020620D01*
X145304427Y-90734905D01*
X145375855Y-90592048D01*
X145447284Y-90520620D01*
X145590141Y-90449191D01*
X147375855Y-90949191D02*
X147375855Y-91949191D01*
X147018712Y-90377762D02*
X146661570Y-91449191D01*
X147590141Y-91449191D01*
X149232998Y-90377762D02*
X147947284Y-92306334D01*
X150518712Y-91949191D02*
X149661570Y-91949191D01*
X150090141Y-91949191D02*
X150090141Y-90449191D01*
X149947284Y-90663477D01*
X149804427Y-90806334D01*
X149661570Y-90877762D01*
X151090141Y-90592048D02*
X151161570Y-90520620D01*
X151304427Y-90449191D01*
X151661570Y-90449191D01*
X151804427Y-90520620D01*
X151875855Y-90592048D01*
X151947284Y-90734905D01*
X151947284Y-90877762D01*
X151875855Y-91092048D01*
X151018712Y-91949191D01*
X151947284Y-91949191D01*
D11*
X54221142Y-91317967D02*
X54221142Y-88777967D01*
X55188761Y-88777967D01*
X55430666Y-88898920D01*
X55551619Y-89019872D01*
X55672571Y-89261777D01*
X55672571Y-89624634D01*
X55551619Y-89866539D01*
X55430666Y-89987491D01*
X55188761Y-90108443D01*
X54221142Y-90108443D01*
X58212571Y-91317967D02*
X57365904Y-90108443D01*
X56761142Y-91317967D02*
X56761142Y-88777967D01*
X57728761Y-88777967D01*
X57970666Y-88898920D01*
X58091619Y-89019872D01*
X58212571Y-89261777D01*
X58212571Y-89624634D01*
X58091619Y-89866539D01*
X57970666Y-89987491D01*
X57728761Y-90108443D01*
X56761142Y-90108443D01*
X59301142Y-89987491D02*
X60147809Y-89987491D01*
X60510666Y-91317967D02*
X59301142Y-91317967D01*
X59301142Y-88777967D01*
X60510666Y-88777967D01*
X61478285Y-91197015D02*
X61841142Y-91317967D01*
X62445904Y-91317967D01*
X62687809Y-91197015D01*
X62808761Y-91076062D01*
X62929714Y-90834158D01*
X62929714Y-90592253D01*
X62808761Y-90350348D01*
X62687809Y-90229396D01*
X62445904Y-90108443D01*
X61962095Y-89987491D01*
X61720190Y-89866539D01*
X61599238Y-89745586D01*
X61478285Y-89503681D01*
X61478285Y-89261777D01*
X61599238Y-89019872D01*
X61720190Y-88898920D01*
X61962095Y-88777967D01*
X62566857Y-88777967D01*
X62929714Y-88898920D01*
X63897333Y-91197015D02*
X64260190Y-91317967D01*
X64864952Y-91317967D01*
X65106857Y-91197015D01*
X65227809Y-91076062D01*
X65348761Y-90834158D01*
X65348761Y-90592253D01*
X65227809Y-90350348D01*
X65106857Y-90229396D01*
X64864952Y-90108443D01*
X64381142Y-89987491D01*
X64139238Y-89866539D01*
X64018285Y-89745586D01*
X63897333Y-89503681D01*
X63897333Y-89261777D01*
X64018285Y-89019872D01*
X64139238Y-88898920D01*
X64381142Y-88777967D01*
X64985904Y-88777967D01*
X65348761Y-88898920D01*
X66437333Y-88777967D02*
X66437333Y-90834158D01*
X66558285Y-91076062D01*
X66679238Y-91197015D01*
X66921142Y-91317967D01*
X67404952Y-91317967D01*
X67646857Y-91197015D01*
X67767809Y-91076062D01*
X67888761Y-90834158D01*
X67888761Y-88777967D01*
X70549714Y-91317967D02*
X69703047Y-90108443D01*
X69098285Y-91317967D02*
X69098285Y-88777967D01*
X70065904Y-88777967D01*
X70307809Y-88898920D01*
X70428761Y-89019872D01*
X70549714Y-89261777D01*
X70549714Y-89624634D01*
X70428761Y-89866539D01*
X70307809Y-89987491D01*
X70065904Y-90108443D01*
X69098285Y-90108443D01*
X71638285Y-89987491D02*
X72484952Y-89987491D01*
X72847809Y-91317967D02*
X71638285Y-91317967D01*
X71638285Y-88777967D01*
X72847809Y-88777967D01*
X69642571Y-124083967D02*
X70126380Y-124083967D01*
X70368285Y-124204920D01*
X70610190Y-124446824D01*
X70731142Y-124930634D01*
X70731142Y-125777300D01*
X70610190Y-126261110D01*
X70368285Y-126503015D01*
X70126380Y-126623967D01*
X69642571Y-126623967D01*
X69400666Y-126503015D01*
X69158761Y-126261110D01*
X69037809Y-125777300D01*
X69037809Y-124930634D01*
X69158761Y-124446824D01*
X69400666Y-124204920D01*
X69642571Y-124083967D01*
X71698761Y-124325872D02*
X71819714Y-124204920D01*
X72061619Y-124083967D01*
X72666380Y-124083967D01*
X72908285Y-124204920D01*
X73029238Y-124325872D01*
X73150190Y-124567777D01*
X73150190Y-124809681D01*
X73029238Y-125172539D01*
X71577809Y-126623967D01*
X73150190Y-126623967D01*
X107452285Y-44303777D02*
X108613428Y-44303777D01*
X108032857Y-44884348D02*
X108032857Y-43723205D01*
X109847142Y-44086062D02*
X110064857Y-44158634D01*
X110137428Y-44231205D01*
X110210000Y-44376348D01*
X110210000Y-44594062D01*
X110137428Y-44739205D01*
X110064857Y-44811777D01*
X109919714Y-44884348D01*
X109339142Y-44884348D01*
X109339142Y-43360348D01*
X109847142Y-43360348D01*
X109992285Y-43432920D01*
X110064857Y-43505491D01*
X110137428Y-43650634D01*
X110137428Y-43795777D01*
X110064857Y-43940920D01*
X109992285Y-44013491D01*
X109847142Y-44086062D01*
X109339142Y-44086062D01*
X110790571Y-44448920D02*
X111516285Y-44448920D01*
X110645428Y-44884348D02*
X111153428Y-43360348D01*
X111661428Y-44884348D01*
X111951714Y-43360348D02*
X112822571Y-43360348D01*
X112387142Y-44884348D02*
X112387142Y-43360348D01*
X113330571Y-44303777D02*
X114491714Y-44303777D01*
X102299714Y-44811777D02*
X102517428Y-44884348D01*
X102880285Y-44884348D01*
X103025428Y-44811777D01*
X103098000Y-44739205D01*
X103170571Y-44594062D01*
X103170571Y-44448920D01*
X103098000Y-44303777D01*
X103025428Y-44231205D01*
X102880285Y-44158634D01*
X102590000Y-44086062D01*
X102444857Y-44013491D01*
X102372285Y-43940920D01*
X102299714Y-43795777D01*
X102299714Y-43650634D01*
X102372285Y-43505491D01*
X102444857Y-43432920D01*
X102590000Y-43360348D01*
X102952857Y-43360348D01*
X103170571Y-43432920D01*
X103678571Y-43360348D02*
X104041428Y-44884348D01*
X104331714Y-43795777D01*
X104622000Y-44884348D01*
X104984857Y-43360348D01*
X96094857Y-44086062D02*
X96312571Y-44158634D01*
X96385142Y-44231205D01*
X96457714Y-44376348D01*
X96457714Y-44594062D01*
X96385142Y-44739205D01*
X96312571Y-44811777D01*
X96167428Y-44884348D01*
X95586857Y-44884348D01*
X95586857Y-43360348D01*
X96094857Y-43360348D01*
X96240000Y-43432920D01*
X96312571Y-43505491D01*
X96385142Y-43650634D01*
X96385142Y-43795777D01*
X96312571Y-43940920D01*
X96240000Y-44013491D01*
X96094857Y-44086062D01*
X95586857Y-44086062D01*
X97110857Y-43360348D02*
X97110857Y-44594062D01*
X97183428Y-44739205D01*
X97256000Y-44811777D01*
X97401142Y-44884348D01*
X97691428Y-44884348D01*
X97836571Y-44811777D01*
X97909142Y-44739205D01*
X97981714Y-44594062D01*
X97981714Y-43360348D01*
X98562285Y-43360348D02*
X99578285Y-43360348D01*
X98562285Y-44884348D01*
X99578285Y-44884348D01*
X96893142Y-60112253D02*
X98102666Y-60112253D01*
X96651238Y-60837967D02*
X97497904Y-58297967D01*
X98344571Y-60837967D01*
X100400761Y-60837967D02*
X99191238Y-60837967D01*
X99191238Y-58297967D01*
X101126476Y-60112253D02*
X102336000Y-60112253D01*
X100884571Y-60837967D02*
X101731238Y-58297967D01*
X102577904Y-60837967D01*
X104876000Y-60837967D02*
X104029333Y-59628443D01*
X103424571Y-60837967D02*
X103424571Y-58297967D01*
X104392190Y-58297967D01*
X104634095Y-58418920D01*
X104755047Y-58539872D01*
X104876000Y-58781777D01*
X104876000Y-59144634D01*
X104755047Y-59386539D01*
X104634095Y-59507491D01*
X104392190Y-59628443D01*
X103424571Y-59628443D01*
X105964571Y-60837967D02*
X105964571Y-58297967D01*
X106811238Y-60112253D01*
X107657904Y-58297967D01*
X107657904Y-60837967D01*
X74166190Y-46493015D02*
X74529047Y-46613967D01*
X75133809Y-46613967D01*
X75375714Y-46493015D01*
X75496666Y-46372062D01*
X75617619Y-46130158D01*
X75617619Y-45888253D01*
X75496666Y-45646348D01*
X75375714Y-45525396D01*
X75133809Y-45404443D01*
X74650000Y-45283491D01*
X74408095Y-45162539D01*
X74287142Y-45041586D01*
X74166190Y-44799681D01*
X74166190Y-44557777D01*
X74287142Y-44315872D01*
X74408095Y-44194920D01*
X74650000Y-44073967D01*
X75254761Y-44073967D01*
X75617619Y-44194920D01*
X76706190Y-45283491D02*
X77552857Y-45283491D01*
X77915714Y-46613967D02*
X76706190Y-46613967D01*
X76706190Y-44073967D01*
X77915714Y-44073967D01*
X80455714Y-46613967D02*
X79609047Y-45404443D01*
X79004285Y-46613967D02*
X79004285Y-44073967D01*
X79971904Y-44073967D01*
X80213809Y-44194920D01*
X80334761Y-44315872D01*
X80455714Y-44557777D01*
X80455714Y-44920634D01*
X80334761Y-45162539D01*
X80213809Y-45283491D01*
X79971904Y-45404443D01*
X79004285Y-45404443D01*
X81181428Y-44073967D02*
X82028095Y-46613967D01*
X82874761Y-44073967D01*
X84205238Y-44073967D02*
X84689047Y-44073967D01*
X84930952Y-44194920D01*
X85172857Y-44436824D01*
X85293809Y-44920634D01*
X85293809Y-45767300D01*
X85172857Y-46251110D01*
X84930952Y-46493015D01*
X84689047Y-46613967D01*
X84205238Y-46613967D01*
X83963333Y-46493015D01*
X83721428Y-46251110D01*
X83600476Y-45767300D01*
X83600476Y-44920634D01*
X83721428Y-44436824D01*
X83963333Y-44194920D01*
X84205238Y-44073967D01*
X52116571Y-74941015D02*
X52479428Y-75061967D01*
X53084190Y-75061967D01*
X53326095Y-74941015D01*
X53447047Y-74820062D01*
X53568000Y-74578158D01*
X53568000Y-74336253D01*
X53447047Y-74094348D01*
X53326095Y-73973396D01*
X53084190Y-73852443D01*
X52600380Y-73731491D01*
X52358476Y-73610539D01*
X52237523Y-73489586D01*
X52116571Y-73247681D01*
X52116571Y-73005777D01*
X52237523Y-72763872D01*
X52358476Y-72642920D01*
X52600380Y-72521967D01*
X53205142Y-72521967D01*
X53568000Y-72642920D01*
X54293714Y-72521967D02*
X55745142Y-72521967D01*
X55019428Y-75061967D02*
X55019428Y-72521967D01*
X56591809Y-73731491D02*
X57438476Y-73731491D01*
X57801333Y-75061967D02*
X56591809Y-75061967D01*
X56591809Y-72521967D01*
X57801333Y-72521967D01*
X58889904Y-75061967D02*
X58889904Y-72521967D01*
X59857523Y-72521967D01*
X60099428Y-72642920D01*
X60220380Y-72763872D01*
X60341333Y-73005777D01*
X60341333Y-73368634D01*
X60220380Y-73610539D01*
X60099428Y-73731491D01*
X59857523Y-73852443D01*
X58889904Y-73852443D01*
X61429904Y-75061967D02*
X61429904Y-72521967D01*
X62397523Y-72521967D01*
X62639428Y-72642920D01*
X62760380Y-72763872D01*
X62881333Y-73005777D01*
X62881333Y-73368634D01*
X62760380Y-73610539D01*
X62639428Y-73731491D01*
X62397523Y-73852443D01*
X61429904Y-73852443D01*
X63969904Y-73731491D02*
X64816571Y-73731491D01*
X65179428Y-75061967D02*
X63969904Y-75061967D01*
X63969904Y-72521967D01*
X65179428Y-72521967D01*
X67719428Y-75061967D02*
X66872761Y-73852443D01*
X66268000Y-75061967D02*
X66268000Y-72521967D01*
X67235619Y-72521967D01*
X67477523Y-72642920D01*
X67598476Y-72763872D01*
X67719428Y-73005777D01*
X67719428Y-73368634D01*
X67598476Y-73610539D01*
X67477523Y-73731491D01*
X67235619Y-73852443D01*
X66268000Y-73852443D01*
D12*
X121769107Y-50786777D02*
X120747678Y-51286777D01*
X121769107Y-51643920D02*
X119624107Y-51643920D01*
X119624107Y-51072491D01*
X119726250Y-50929634D01*
X119828392Y-50858205D01*
X120032678Y-50786777D01*
X120339107Y-50786777D01*
X120543392Y-50858205D01*
X120645535Y-50929634D01*
X120747678Y-51072491D01*
X120747678Y-51643920D01*
X120645535Y-50143920D02*
X120645535Y-49643920D01*
X121769107Y-49429634D02*
X121769107Y-50143920D01*
X119624107Y-50143920D01*
X119624107Y-49429634D01*
X121564821Y-47929634D02*
X121666964Y-48001062D01*
X121769107Y-48215348D01*
X121769107Y-48358205D01*
X121666964Y-48572491D01*
X121462678Y-48715348D01*
X121258392Y-48786777D01*
X120849821Y-48858205D01*
X120543392Y-48858205D01*
X120134821Y-48786777D01*
X119930535Y-48715348D01*
X119726250Y-48572491D01*
X119624107Y-48358205D01*
X119624107Y-48215348D01*
X119726250Y-48001062D01*
X119828392Y-47929634D01*
X119624107Y-47501062D02*
X119624107Y-46643920D01*
X121769107Y-47072491D02*
X119624107Y-47072491D01*
X120951964Y-46143920D02*
X120951964Y-45001062D01*
X121769107Y-45572491D02*
X120134821Y-45572491D01*
X125286607Y-50786777D02*
X124265178Y-51286777D01*
X125286607Y-51643920D02*
X123141607Y-51643920D01*
X123141607Y-51072491D01*
X123243750Y-50929634D01*
X123345892Y-50858205D01*
X123550178Y-50786777D01*
X123856607Y-50786777D01*
X124060892Y-50858205D01*
X124163035Y-50929634D01*
X124265178Y-51072491D01*
X124265178Y-51643920D01*
X124163035Y-50143920D02*
X124163035Y-49643920D01*
X125286607Y-49429634D02*
X125286607Y-50143920D01*
X123141607Y-50143920D01*
X123141607Y-49429634D01*
X125082321Y-47929634D02*
X125184464Y-48001062D01*
X125286607Y-48215348D01*
X125286607Y-48358205D01*
X125184464Y-48572491D01*
X124980178Y-48715348D01*
X124775892Y-48786777D01*
X124367321Y-48858205D01*
X124060892Y-48858205D01*
X123652321Y-48786777D01*
X123448035Y-48715348D01*
X123243750Y-48572491D01*
X123141607Y-48358205D01*
X123141607Y-48215348D01*
X123243750Y-48001062D01*
X123345892Y-47929634D01*
X123141607Y-47501062D02*
X123141607Y-46643920D01*
X125286607Y-47072491D02*
X123141607Y-47072491D01*
X124469464Y-46143920D02*
X124469464Y-45001062D01*
X128804107Y-50786777D02*
X127782678Y-51286777D01*
X128804107Y-51643920D02*
X126659107Y-51643920D01*
X126659107Y-51072491D01*
X126761250Y-50929634D01*
X126863392Y-50858205D01*
X127067678Y-50786777D01*
X127374107Y-50786777D01*
X127578392Y-50858205D01*
X127680535Y-50929634D01*
X127782678Y-51072491D01*
X127782678Y-51643920D01*
X127680535Y-50143920D02*
X127680535Y-49643920D01*
X128804107Y-49429634D02*
X128804107Y-50143920D01*
X126659107Y-50143920D01*
X126659107Y-49429634D01*
X128599821Y-47929634D02*
X128701964Y-48001062D01*
X128804107Y-48215348D01*
X128804107Y-48358205D01*
X128701964Y-48572491D01*
X128497678Y-48715348D01*
X128293392Y-48786777D01*
X127884821Y-48858205D01*
X127578392Y-48858205D01*
X127169821Y-48786777D01*
X126965535Y-48715348D01*
X126761250Y-48572491D01*
X126659107Y-48358205D01*
X126659107Y-48215348D01*
X126761250Y-48001062D01*
X126863392Y-47929634D01*
X126659107Y-47501062D02*
X126659107Y-46643920D01*
X128804107Y-47072491D02*
X126659107Y-47072491D01*
X127986964Y-46143920D02*
X127986964Y-45001062D01*
X128804107Y-45572491D02*
X127169821Y-45572491D01*
X132321607Y-50786777D02*
X131300178Y-51286777D01*
X132321607Y-51643920D02*
X130176607Y-51643920D01*
X130176607Y-51072491D01*
X130278750Y-50929634D01*
X130380892Y-50858205D01*
X130585178Y-50786777D01*
X130891607Y-50786777D01*
X131095892Y-50858205D01*
X131198035Y-50929634D01*
X131300178Y-51072491D01*
X131300178Y-51643920D01*
X131198035Y-50143920D02*
X131198035Y-49643920D01*
X132321607Y-49429634D02*
X132321607Y-50143920D01*
X130176607Y-50143920D01*
X130176607Y-49429634D01*
X132117321Y-47929634D02*
X132219464Y-48001062D01*
X132321607Y-48215348D01*
X132321607Y-48358205D01*
X132219464Y-48572491D01*
X132015178Y-48715348D01*
X131810892Y-48786777D01*
X131402321Y-48858205D01*
X131095892Y-48858205D01*
X130687321Y-48786777D01*
X130483035Y-48715348D01*
X130278750Y-48572491D01*
X130176607Y-48358205D01*
X130176607Y-48215348D01*
X130278750Y-48001062D01*
X130380892Y-47929634D01*
X130176607Y-47501062D02*
X130176607Y-46643920D01*
X132321607Y-47072491D02*
X130176607Y-47072491D01*
X131504464Y-46143920D02*
X131504464Y-45001062D01*
X135839107Y-54501062D02*
X133694107Y-54501062D01*
X135839107Y-53786777D02*
X133694107Y-53786777D01*
X135839107Y-52929634D01*
X133694107Y-52929634D01*
X133694107Y-52429634D02*
X133694107Y-51572491D01*
X135839107Y-52001062D02*
X133694107Y-52001062D01*
X134715535Y-47143920D02*
X134817678Y-46929634D01*
X134919821Y-46858205D01*
X135124107Y-46786777D01*
X135430535Y-46786777D01*
X135634821Y-46858205D01*
X135736964Y-46929634D01*
X135839107Y-47072491D01*
X135839107Y-47643920D01*
X133694107Y-47643920D01*
X133694107Y-47143920D01*
X133796250Y-47001062D01*
X133898392Y-46929634D01*
X134102678Y-46858205D01*
X134306964Y-46858205D01*
X134511250Y-46929634D01*
X134613392Y-47001062D01*
X134715535Y-47143920D01*
X134715535Y-47643920D01*
X135021964Y-46143920D02*
X135021964Y-45001062D01*
X135839107Y-45572491D02*
X134204821Y-45572491D01*
X138233035Y-53858205D02*
X138233035Y-53358205D01*
X139356607Y-53143920D02*
X139356607Y-53858205D01*
X137211607Y-53858205D01*
X137211607Y-53143920D01*
X137211607Y-52643920D02*
X139356607Y-51643920D01*
X137211607Y-51643920D02*
X139356607Y-52643920D01*
X137211607Y-51286777D02*
X137211607Y-50429634D01*
X139356607Y-50858205D02*
X137211607Y-50858205D01*
X138233035Y-47143920D02*
X138335178Y-46929634D01*
X138437321Y-46858205D01*
X138641607Y-46786777D01*
X138948035Y-46786777D01*
X139152321Y-46858205D01*
X139254464Y-46929634D01*
X139356607Y-47072491D01*
X139356607Y-47643920D01*
X137211607Y-47643920D01*
X137211607Y-47143920D01*
X137313750Y-47001062D01*
X137415892Y-46929634D01*
X137620178Y-46858205D01*
X137824464Y-46858205D01*
X138028750Y-46929634D01*
X138130892Y-47001062D01*
X138233035Y-47143920D01*
X138233035Y-47643920D01*
X138539464Y-46143920D02*
X138539464Y-45001062D01*
X139356607Y-45572491D02*
X137722321Y-45572491D01*
X141750535Y-53858205D02*
X141750535Y-53358205D01*
X142874107Y-53143920D02*
X142874107Y-53858205D01*
X140729107Y-53858205D01*
X140729107Y-53143920D01*
X140729107Y-52643920D02*
X142874107Y-51643920D01*
X140729107Y-51643920D02*
X142874107Y-52643920D01*
X140729107Y-51286777D02*
X140729107Y-50429634D01*
X142874107Y-50858205D02*
X140729107Y-50858205D01*
X141750535Y-47143920D02*
X141852678Y-46929634D01*
X141954821Y-46858205D01*
X142159107Y-46786777D01*
X142465535Y-46786777D01*
X142669821Y-46858205D01*
X142771964Y-46929634D01*
X142874107Y-47072491D01*
X142874107Y-47643920D01*
X140729107Y-47643920D01*
X140729107Y-47143920D01*
X140831250Y-47001062D01*
X140933392Y-46929634D01*
X141137678Y-46858205D01*
X141341964Y-46858205D01*
X141546250Y-46929634D01*
X141648392Y-47001062D01*
X141750535Y-47143920D01*
X141750535Y-47643920D01*
X142056964Y-46143920D02*
X142056964Y-45001062D01*
X142874107Y-45572491D02*
X141239821Y-45572491D01*
X144348750Y-48072491D02*
X144246607Y-48215348D01*
X144246607Y-48429634D01*
X144348750Y-48643920D01*
X144553035Y-48786777D01*
X144757321Y-48858205D01*
X145165892Y-48929634D01*
X145472321Y-48929634D01*
X145880892Y-48858205D01*
X146085178Y-48786777D01*
X146289464Y-48643920D01*
X146391607Y-48429634D01*
X146391607Y-48286777D01*
X146289464Y-48072491D01*
X146187321Y-48001062D01*
X145472321Y-48001062D01*
X145472321Y-48286777D01*
X146391607Y-47358205D02*
X144246607Y-47358205D01*
X146391607Y-46501062D01*
X144246607Y-46501062D01*
X146391607Y-45786777D02*
X144246607Y-45786777D01*
X144246607Y-45429634D01*
X144348750Y-45215348D01*
X144553035Y-45072491D01*
X144757321Y-45001062D01*
X145165892Y-44929634D01*
X145472321Y-44929634D01*
X145880892Y-45001062D01*
X146085178Y-45072491D01*
X146289464Y-45215348D01*
X146391607Y-45429634D01*
X146391607Y-45786777D01*
X147866250Y-48072491D02*
X147764107Y-48215348D01*
X147764107Y-48429634D01*
X147866250Y-48643920D01*
X148070535Y-48786777D01*
X148274821Y-48858205D01*
X148683392Y-48929634D01*
X148989821Y-48929634D01*
X149398392Y-48858205D01*
X149602678Y-48786777D01*
X149806964Y-48643920D01*
X149909107Y-48429634D01*
X149909107Y-48286777D01*
X149806964Y-48072491D01*
X149704821Y-48001062D01*
X148989821Y-48001062D01*
X148989821Y-48286777D01*
X149909107Y-47358205D02*
X147764107Y-47358205D01*
X149909107Y-46501062D01*
X147764107Y-46501062D01*
X149909107Y-45786777D02*
X147764107Y-45786777D01*
X147764107Y-45429634D01*
X147866250Y-45215348D01*
X148070535Y-45072491D01*
X148274821Y-45001062D01*
X148683392Y-44929634D01*
X148989821Y-44929634D01*
X149398392Y-45001062D01*
X149602678Y-45072491D01*
X149806964Y-45215348D01*
X149909107Y-45429634D01*
X149909107Y-45786777D01*
X151383750Y-48072491D02*
X151281607Y-48215348D01*
X151281607Y-48429634D01*
X151383750Y-48643920D01*
X151588035Y-48786777D01*
X151792321Y-48858205D01*
X152200892Y-48929634D01*
X152507321Y-48929634D01*
X152915892Y-48858205D01*
X153120178Y-48786777D01*
X153324464Y-48643920D01*
X153426607Y-48429634D01*
X153426607Y-48286777D01*
X153324464Y-48072491D01*
X153222321Y-48001062D01*
X152507321Y-48001062D01*
X152507321Y-48286777D01*
X153426607Y-47358205D02*
X151281607Y-47358205D01*
X153426607Y-46501062D01*
X151281607Y-46501062D01*
X153426607Y-45786777D02*
X151281607Y-45786777D01*
X151281607Y-45429634D01*
X151383750Y-45215348D01*
X151588035Y-45072491D01*
X151792321Y-45001062D01*
X152200892Y-44929634D01*
X152507321Y-44929634D01*
X152915892Y-45001062D01*
X153120178Y-45072491D01*
X153324464Y-45215348D01*
X153426607Y-45429634D01*
X153426607Y-45786777D01*
X154901250Y-48072491D02*
X154799107Y-48215348D01*
X154799107Y-48429634D01*
X154901250Y-48643920D01*
X155105535Y-48786777D01*
X155309821Y-48858205D01*
X155718392Y-48929634D01*
X156024821Y-48929634D01*
X156433392Y-48858205D01*
X156637678Y-48786777D01*
X156841964Y-48643920D01*
X156944107Y-48429634D01*
X156944107Y-48286777D01*
X156841964Y-48072491D01*
X156739821Y-48001062D01*
X156024821Y-48001062D01*
X156024821Y-48286777D01*
X156944107Y-47358205D02*
X154799107Y-47358205D01*
X156944107Y-46501062D01*
X154799107Y-46501062D01*
X156944107Y-45786777D02*
X154799107Y-45786777D01*
X154799107Y-45429634D01*
X154901250Y-45215348D01*
X155105535Y-45072491D01*
X155309821Y-45001062D01*
X155718392Y-44929634D01*
X156024821Y-44929634D01*
X156433392Y-45001062D01*
X156637678Y-45072491D01*
X156841964Y-45215348D01*
X156944107Y-45429634D01*
X156944107Y-45786777D01*
X158418750Y-48072491D02*
X158316607Y-48215348D01*
X158316607Y-48429634D01*
X158418750Y-48643920D01*
X158623035Y-48786777D01*
X158827321Y-48858205D01*
X159235892Y-48929634D01*
X159542321Y-48929634D01*
X159950892Y-48858205D01*
X160155178Y-48786777D01*
X160359464Y-48643920D01*
X160461607Y-48429634D01*
X160461607Y-48286777D01*
X160359464Y-48072491D01*
X160257321Y-48001062D01*
X159542321Y-48001062D01*
X159542321Y-48286777D01*
X160461607Y-47358205D02*
X158316607Y-47358205D01*
X160461607Y-46501062D01*
X158316607Y-46501062D01*
X160461607Y-45786777D02*
X158316607Y-45786777D01*
X158316607Y-45429634D01*
X158418750Y-45215348D01*
X158623035Y-45072491D01*
X158827321Y-45001062D01*
X159235892Y-44929634D01*
X159542321Y-44929634D01*
X159950892Y-45001062D01*
X160155178Y-45072491D01*
X160359464Y-45215348D01*
X160461607Y-45429634D01*
X160461607Y-45786777D01*
X163161964Y-50286777D02*
X163161964Y-49143920D01*
X163979107Y-49715348D02*
X162344821Y-49715348D01*
X162038392Y-48501062D02*
X161936250Y-48429634D01*
X161834107Y-48286777D01*
X161834107Y-47929634D01*
X161936250Y-47786777D01*
X162038392Y-47715348D01*
X162242678Y-47643920D01*
X162446964Y-47643920D01*
X162753392Y-47715348D01*
X163979107Y-48572491D01*
X163979107Y-47643920D01*
X162549107Y-46358205D02*
X163979107Y-46358205D01*
X161731964Y-46715348D02*
X163264107Y-47072491D01*
X163264107Y-46143920D01*
X161834107Y-45786777D02*
X163979107Y-45286777D01*
X161834107Y-44786777D01*
X169890535Y-50858205D02*
X169992678Y-50643920D01*
X170094821Y-50572491D01*
X170299107Y-50501062D01*
X170605535Y-50501062D01*
X170809821Y-50572491D01*
X170911964Y-50643920D01*
X171014107Y-50786777D01*
X171014107Y-51358205D01*
X168869107Y-51358205D01*
X168869107Y-50858205D01*
X168971250Y-50715348D01*
X169073392Y-50643920D01*
X169277678Y-50572491D01*
X169481964Y-50572491D01*
X169686250Y-50643920D01*
X169788392Y-50715348D01*
X169890535Y-50858205D01*
X169890535Y-51358205D01*
X170401250Y-49929634D02*
X170401250Y-49215348D01*
X171014107Y-50072491D02*
X168869107Y-49572491D01*
X171014107Y-49072491D01*
X168869107Y-48786777D02*
X168869107Y-47929634D01*
X171014107Y-48358205D02*
X168869107Y-48358205D01*
X170911964Y-47501062D02*
X171014107Y-47286777D01*
X171014107Y-46929634D01*
X170911964Y-46786777D01*
X170809821Y-46715348D01*
X170605535Y-46643920D01*
X170401250Y-46643920D01*
X170196964Y-46715348D01*
X170094821Y-46786777D01*
X169992678Y-46929634D01*
X169890535Y-47215348D01*
X169788392Y-47358205D01*
X169686250Y-47429634D01*
X169481964Y-47501062D01*
X169277678Y-47501062D01*
X169073392Y-47429634D01*
X168971250Y-47358205D01*
X168869107Y-47215348D01*
X168869107Y-46858205D01*
X168971250Y-46643920D01*
X168869107Y-46143920D02*
X171014107Y-45786777D01*
X169481964Y-45501062D01*
X171014107Y-45215348D01*
X168869107Y-44858205D01*
X173408035Y-50858205D02*
X173510178Y-50643920D01*
X173612321Y-50572491D01*
X173816607Y-50501062D01*
X174123035Y-50501062D01*
X174327321Y-50572491D01*
X174429464Y-50643920D01*
X174531607Y-50786777D01*
X174531607Y-51358205D01*
X172386607Y-51358205D01*
X172386607Y-50858205D01*
X172488750Y-50715348D01*
X172590892Y-50643920D01*
X172795178Y-50572491D01*
X172999464Y-50572491D01*
X173203750Y-50643920D01*
X173305892Y-50715348D01*
X173408035Y-50858205D01*
X173408035Y-51358205D01*
X173918750Y-49929634D02*
X173918750Y-49215348D01*
X174531607Y-50072491D02*
X172386607Y-49572491D01*
X174531607Y-49072491D01*
X172386607Y-48786777D02*
X172386607Y-47929634D01*
X174531607Y-48358205D02*
X172386607Y-48358205D01*
X174429464Y-47501062D02*
X174531607Y-47286777D01*
X174531607Y-46929634D01*
X174429464Y-46786777D01*
X174327321Y-46715348D01*
X174123035Y-46643920D01*
X173918750Y-46643920D01*
X173714464Y-46715348D01*
X173612321Y-46786777D01*
X173510178Y-46929634D01*
X173408035Y-47215348D01*
X173305892Y-47358205D01*
X173203750Y-47429634D01*
X172999464Y-47501062D01*
X172795178Y-47501062D01*
X172590892Y-47429634D01*
X172488750Y-47358205D01*
X172386607Y-47215348D01*
X172386607Y-46858205D01*
X172488750Y-46643920D01*
X172386607Y-46143920D02*
X174531607Y-45786777D01*
X172999464Y-45501062D01*
X174531607Y-45215348D01*
X172386607Y-44858205D01*
X139923809Y-132183491D02*
X139077142Y-132183491D01*
X139077142Y-133513967D02*
X139077142Y-130973967D01*
X140286666Y-130973967D01*
X141133333Y-132788253D02*
X142342857Y-132788253D01*
X140891428Y-133513967D02*
X141738095Y-130973967D01*
X142584761Y-133513967D01*
X143431428Y-133513967D02*
X143431428Y-130973967D01*
X144882857Y-133513967D01*
X144882857Y-130973967D01*
D11*
X90760857Y-83891491D02*
X89914190Y-83891491D01*
X89914190Y-85221967D02*
X89914190Y-82681967D01*
X91123714Y-82681967D01*
X93300857Y-85221967D02*
X92091333Y-85221967D01*
X92091333Y-82681967D01*
X94631333Y-82681967D02*
X95115142Y-82681967D01*
X95357047Y-82802920D01*
X95598952Y-83044824D01*
X95719904Y-83528634D01*
X95719904Y-84375300D01*
X95598952Y-84859110D01*
X95357047Y-85101015D01*
X95115142Y-85221967D01*
X94631333Y-85221967D01*
X94389428Y-85101015D01*
X94147523Y-84859110D01*
X94026571Y-84375300D01*
X94026571Y-83528634D01*
X94147523Y-83044824D01*
X94389428Y-82802920D01*
X94631333Y-82681967D01*
X96566571Y-82681967D02*
X97171333Y-85221967D01*
X97655142Y-83407681D01*
X98138952Y-85221967D01*
X98743714Y-82681967D01*
D13*
X83293252Y-117144920D02*
X82770748Y-117144920D01*
X83293252Y-118564920D02*
X82770748Y-118564920D01*
X70743748Y-111074920D02*
X71266252Y-111074920D01*
X70743748Y-109654920D02*
X71266252Y-109654920D01*
X56354748Y-110944920D02*
X56877252Y-110944920D01*
X56354748Y-109524920D02*
X56877252Y-109524920D01*
X78344000Y-60872920D02*
X75894000Y-60872920D01*
X76544000Y-64092920D02*
X78344000Y-64092920D01*
X52200000Y-53084920D02*
X52200000Y-48429920D01*
X53470000Y-53084920D02*
X53470000Y-50970920D01*
X54740000Y-53084920D02*
X54740000Y-48429920D01*
X56010000Y-53084920D02*
X56010000Y-50970920D01*
X57280000Y-53084920D02*
X57280000Y-48429920D01*
X58550000Y-53084920D02*
X58550000Y-50970920D01*
X59820000Y-53084920D02*
X59820000Y-48429920D01*
X61090000Y-53084920D02*
X61090000Y-50970920D01*
X62360000Y-53084920D02*
X62360000Y-48429920D01*
X63630000Y-53084920D02*
X63630000Y-50970920D01*
X64900000Y-53084920D02*
X64900000Y-48429920D01*
X66170000Y-53084920D02*
X66170000Y-50970920D01*
X67440000Y-53084920D02*
X67440000Y-48429920D01*
X68710000Y-53084920D02*
X68710000Y-50970920D01*
X69980000Y-53084920D02*
X69980000Y-48414920D01*
X50870000Y-70824920D02*
X50870000Y-53084920D01*
X71310000Y-70824920D02*
X71310000Y-53084920D01*
X71310000Y-70824920D02*
X50870000Y-70824920D01*
X71310000Y-53084920D02*
X50870000Y-53084920D01*
X139173252Y-49072920D02*
X138650748Y-49072920D01*
X139173252Y-50492920D02*
X138650748Y-50492920D01*
X112860000Y-46054920D02*
X112860000Y-47464920D01*
X115180000Y-47464920D02*
X115180000Y-45434920D01*
X115180000Y-47464920D02*
X114520000Y-47464920D01*
X113520000Y-47464920D02*
X112860000Y-47464920D01*
X125860000Y-102854920D02*
X123430000Y-102854920D01*
X124100000Y-105924920D02*
X125860000Y-105924920D01*
X135748000Y-57062920D02*
X133298000Y-57062920D01*
X133948000Y-60282920D02*
X135748000Y-60282920D01*
X81530000Y-112468920D02*
X79100000Y-112468920D01*
X79770000Y-115538920D02*
X81530000Y-115538920D01*
X51650000Y-99714920D02*
G75*
G02X51650000Y-101714920I0J-1000000D01*
G01*
X51650000Y-101714920D02*
X51650000Y-105519920D01*
X51650000Y-105519920D02*
X61930000Y-105519920D01*
X61930000Y-105519920D02*
X61930000Y-95909920D01*
X61930000Y-95909920D02*
X51650000Y-95909920D01*
X51650000Y-95909920D02*
X51650000Y-99714920D01*
X64650000Y-99714920D02*
G75*
G02X64650000Y-101714920I0J-1000000D01*
G01*
X64650000Y-101714920D02*
X64650000Y-105519920D01*
X64650000Y-105519920D02*
X74930000Y-105519920D01*
X74930000Y-105519920D02*
X74930000Y-95909920D01*
X74930000Y-95909920D02*
X64650000Y-95909920D01*
X64650000Y-95909920D02*
X64650000Y-99714920D01*
X130986000Y-97288172D02*
X130986000Y-96765668D01*
X129566000Y-97288172D02*
X129566000Y-96765668D01*
X126712748Y-93672920D02*
X127235252Y-93672920D01*
X126712748Y-92252920D02*
X127235252Y-92252920D01*
X124934748Y-101800920D02*
X125457252Y-101800920D01*
X124934748Y-100380920D02*
X125457252Y-100380920D01*
X125457252Y-97840920D02*
X124934748Y-97840920D01*
X125457252Y-99260920D02*
X124934748Y-99260920D01*
X118644000Y-93717668D02*
X118644000Y-94240172D01*
X120064000Y-93717668D02*
X120064000Y-94240172D01*
X127430000Y-78492172D02*
X127430000Y-77969668D01*
X126010000Y-78492172D02*
X126010000Y-77969668D01*
X138650748Y-53540920D02*
X139173252Y-53540920D01*
X138650748Y-52120920D02*
X139173252Y-52120920D01*
X135248000Y-63990920D02*
X134448000Y-63990920D01*
X134448000Y-61990920D02*
X135248000Y-61990920D01*
X145822000Y-62983668D02*
X145822000Y-63506172D01*
X147242000Y-62983668D02*
X147242000Y-63506172D01*
X142520000Y-62983668D02*
X142520000Y-63506172D01*
X143940000Y-62983668D02*
X143940000Y-63506172D01*
X80230748Y-108404920D02*
X80753252Y-108404920D01*
X80230748Y-106984920D02*
X80753252Y-106984920D01*
X80753252Y-103936920D02*
X80230748Y-103936920D01*
X80753252Y-105356920D02*
X80230748Y-105356920D01*
X71609252Y-111810920D02*
X71086748Y-111810920D01*
X71609252Y-113230920D02*
X71086748Y-113230920D01*
X72416000Y-61967668D02*
X72416000Y-62490172D01*
X73836000Y-61967668D02*
X73836000Y-62490172D01*
X133178748Y-128074920D02*
X133701252Y-128074920D01*
X133178748Y-126654920D02*
X133701252Y-126654920D01*
X74380000Y-55478920D02*
X74380000Y-56278920D01*
X72380000Y-56278920D02*
X72380000Y-55478920D01*
X81052000Y-66031668D02*
X81052000Y-66554172D01*
X82472000Y-66031668D02*
X82472000Y-66554172D01*
X157910000Y-75444172D02*
X157910000Y-74921668D01*
X156490000Y-75444172D02*
X156490000Y-74921668D01*
X160704000Y-75444172D02*
X160704000Y-74921668D01*
X159284000Y-75444172D02*
X159284000Y-74921668D01*
X121735000Y-65019920D02*
X120635000Y-65019920D01*
X121735000Y-65289920D02*
X121735000Y-65019920D01*
X123235000Y-65289920D02*
X121735000Y-65289920D01*
X121735000Y-58659920D02*
X118905000Y-58659920D01*
X121735000Y-58389920D02*
X121735000Y-58659920D01*
X123235000Y-58389920D02*
X121735000Y-58389920D01*
X87160000Y-60834920D02*
X87160000Y-61934920D01*
X87430000Y-60834920D02*
X87160000Y-60834920D01*
X87430000Y-59334920D02*
X87430000Y-60834920D01*
X80800000Y-60834920D02*
X80800000Y-63664920D01*
X80530000Y-60834920D02*
X80800000Y-60834920D01*
X80530000Y-59334920D02*
X80530000Y-60834920D01*
X109180000Y-46264920D02*
X109180000Y-47464920D01*
X109180000Y-47464920D02*
X109580000Y-47464920D01*
X109580000Y-47464920D02*
X109580000Y-55164920D01*
X109580000Y-55164920D02*
X109180000Y-55164920D01*
X107480000Y-55164920D02*
X104180000Y-55164920D01*
X107480000Y-47464920D02*
X104180000Y-47464920D01*
X107480000Y-47464920D02*
X107480000Y-46264920D01*
X102480000Y-47464920D02*
X101480000Y-47464920D01*
X99880000Y-47464920D02*
X98980000Y-47464920D01*
X97280000Y-47464920D02*
X94480000Y-47464920D01*
X94480000Y-47464920D02*
X94480000Y-55164920D01*
X94480000Y-55164920D02*
X97280000Y-55164920D01*
X98980000Y-55164920D02*
X99880000Y-55164920D01*
X101480000Y-55164920D02*
X102480000Y-55164920D01*
X169650000Y-125034920D02*
X170980000Y-125034920D01*
X169650000Y-126364920D02*
X169650000Y-125034920D01*
X169650000Y-127634920D02*
X172310000Y-127634920D01*
X172310000Y-127634920D02*
X172310000Y-132774920D01*
X169650000Y-127634920D02*
X169650000Y-132774920D01*
X169650000Y-132774920D02*
X172310000Y-132774920D01*
X118828000Y-44930920D02*
X119228000Y-44930920D01*
X118828000Y-44290920D02*
X118828000Y-44930920D01*
X172233000Y-41071920D02*
X172104000Y-41199920D01*
X174448000Y-38855920D02*
X174354000Y-38949920D01*
X172403000Y-41311920D02*
X172309000Y-41404920D01*
X174653000Y-39061920D02*
X174524000Y-39189920D01*
X168733000Y-41071920D02*
X168604000Y-41199920D01*
X170948000Y-38855920D02*
X170854000Y-38949920D01*
X168903000Y-41311920D02*
X168809000Y-41404920D01*
X171153000Y-39061920D02*
X171024000Y-39189920D01*
X165233000Y-41071920D02*
X165104000Y-41199920D01*
X167448000Y-38855920D02*
X167354000Y-38949920D01*
X165403000Y-41311920D02*
X165309000Y-41404920D01*
X167653000Y-39061920D02*
X167524000Y-39189920D01*
X161733000Y-41071920D02*
X161604000Y-41199920D01*
X163948000Y-38855920D02*
X163854000Y-38949920D01*
X161903000Y-41311920D02*
X161809000Y-41404920D01*
X164153000Y-39061920D02*
X164024000Y-39189920D01*
X158233000Y-41071920D02*
X158104000Y-41199920D01*
X160448000Y-38855920D02*
X160354000Y-38949920D01*
X158403000Y-41311920D02*
X158309000Y-41404920D01*
X160653000Y-39061920D02*
X160524000Y-39189920D01*
X154733000Y-41071920D02*
X154604000Y-41199920D01*
X156948000Y-38855920D02*
X156854000Y-38949920D01*
X154903000Y-41311920D02*
X154809000Y-41404920D01*
X157153000Y-39061920D02*
X157024000Y-39189920D01*
X151233000Y-41071920D02*
X151104000Y-41199920D01*
X153448000Y-38855920D02*
X153354000Y-38949920D01*
X151403000Y-41311920D02*
X151309000Y-41404920D01*
X153653000Y-39061920D02*
X153524000Y-39189920D01*
X147733000Y-41071920D02*
X147604000Y-41199920D01*
X149948000Y-38855920D02*
X149854000Y-38949920D01*
X147903000Y-41311920D02*
X147809000Y-41404920D01*
X150153000Y-39061920D02*
X150024000Y-39189920D01*
X144233000Y-41071920D02*
X144104000Y-41199920D01*
X146448000Y-38855920D02*
X146354000Y-38949920D01*
X144403000Y-41311920D02*
X144309000Y-41404920D01*
X146653000Y-39061920D02*
X146524000Y-39189920D01*
X140733000Y-41071920D02*
X140604000Y-41199920D01*
X142948000Y-38855920D02*
X142854000Y-38949920D01*
X140903000Y-41311920D02*
X140809000Y-41404920D01*
X143153000Y-39061920D02*
X143024000Y-39189920D01*
X137233000Y-41071920D02*
X137104000Y-41199920D01*
X139448000Y-38855920D02*
X139354000Y-38949920D01*
X137403000Y-41311920D02*
X137309000Y-41404920D01*
X139653000Y-39061920D02*
X139524000Y-39189920D01*
X133733000Y-41071920D02*
X133604000Y-41199920D01*
X135948000Y-38855920D02*
X135854000Y-38949920D01*
X133903000Y-41311920D02*
X133809000Y-41404920D01*
X136153000Y-39061920D02*
X136024000Y-39189920D01*
X130233000Y-41071920D02*
X130104000Y-41199920D01*
X132448000Y-38855920D02*
X132354000Y-38949920D01*
X130403000Y-41311920D02*
X130309000Y-41404920D01*
X132653000Y-39061920D02*
X132524000Y-39189920D01*
X126733000Y-41071920D02*
X126604000Y-41199920D01*
X128948000Y-38855920D02*
X128854000Y-38949920D01*
X126903000Y-41311920D02*
X126809000Y-41404920D01*
X129153000Y-39061920D02*
X129024000Y-39189920D01*
X123233000Y-41071920D02*
X123104000Y-41199920D01*
X125448000Y-38855920D02*
X125354000Y-38949920D01*
X123403000Y-41311920D02*
X123309000Y-41404920D01*
X125653000Y-39061920D02*
X125524000Y-39189920D01*
X175188000Y-36970920D02*
X175188000Y-44690920D01*
X119068000Y-36970920D02*
X119068000Y-44690920D01*
X119068000Y-44690920D02*
X175188000Y-44690920D01*
X119068000Y-36970920D02*
X175188000Y-36970920D01*
X119068000Y-43130920D02*
X175188000Y-43130920D01*
X119068000Y-44230920D02*
X175188000Y-44230920D01*
X175058000Y-40130920D02*
G75*
G03X175058000Y-40130920I-1680000J0D01*
G01*
X171558000Y-40130920D02*
G75*
G03X171558000Y-40130920I-1680000J0D01*
G01*
X168058000Y-40130920D02*
G75*
G03X168058000Y-40130920I-1680000J0D01*
G01*
X164558000Y-40130920D02*
G75*
G03X164558000Y-40130920I-1680000J0D01*
G01*
X161058000Y-40130920D02*
G75*
G03X161058000Y-40130920I-1680000J0D01*
G01*
X157558000Y-40130920D02*
G75*
G03X157558000Y-40130920I-1680000J0D01*
G01*
X154058000Y-40130920D02*
G75*
G03X154058000Y-40130920I-1680000J0D01*
G01*
X150558000Y-40130920D02*
G75*
G03X150558000Y-40130920I-1680000J0D01*
G01*
X147058000Y-40130920D02*
G75*
G03X147058000Y-40130920I-1680000J0D01*
G01*
X143558000Y-40130920D02*
G75*
G03X143558000Y-40130920I-1680000J0D01*
G01*
X140058000Y-40130920D02*
G75*
G03X140058000Y-40130920I-1680000J0D01*
G01*
X136558000Y-40130920D02*
G75*
G03X136558000Y-40130920I-1680000J0D01*
G01*
X133058000Y-40130920D02*
G75*
G03X133058000Y-40130920I-1680000J0D01*
G01*
X129558000Y-40130920D02*
G75*
G03X129558000Y-40130920I-1680000J0D01*
G01*
X126058000Y-40130920D02*
G75*
G03X126058000Y-40130920I-1680000J0D01*
G01*
X120906674Y-41811019D02*
G75*
G02X120012000Y-41570920I-28674J1680099D01*
G01*
X119452642Y-41020814D02*
G75*
G02X119438000Y-39264920I1425358J889894D01*
G01*
X119988106Y-38705562D02*
G75*
G02X121744000Y-38690920I889894J-1425358D01*
G01*
X122303505Y-39240727D02*
G75*
G02X122303000Y-41021920I-1425505J-890193D01*
G01*
X121768264Y-41555641D02*
G75*
G02X120878000Y-41810920I-890264J1424721D01*
G01*
X87036000Y-88704920D02*
X87036000Y-87374920D01*
X88366000Y-88704920D02*
X87036000Y-88704920D01*
X89636000Y-88704920D02*
X89636000Y-86044920D01*
X89636000Y-86044920D02*
X102396000Y-86044920D01*
X89636000Y-88704920D02*
X102396000Y-88704920D01*
X102396000Y-88704920D02*
X102396000Y-86044920D01*
X73412000Y-117480000D02*
X73412000Y-116880000D01*
X71812000Y-117480000D02*
X73412000Y-117480000D01*
X71812000Y-116880000D02*
X71812000Y-117480000D01*
X70872000Y-117480000D02*
X70872000Y-116880000D01*
X69272000Y-117480000D02*
X70872000Y-117480000D01*
X69272000Y-116880000D02*
X69272000Y-117480000D01*
X72362000Y-122900000D02*
X72362000Y-121900000D01*
X70322000Y-122900000D02*
X70322000Y-121900000D01*
X72362000Y-121370000D02*
X72612000Y-121900000D01*
X70322000Y-121370000D02*
X72362000Y-121370000D01*
X70072000Y-121900000D02*
X70322000Y-121370000D01*
X72612000Y-121900000D02*
X72612000Y-122900000D01*
X70072000Y-121900000D02*
X72612000Y-121900000D01*
X70072000Y-122900000D02*
X70072000Y-121900000D01*
X68402000Y-117910000D02*
X68402000Y-121910000D01*
X73992000Y-116880000D02*
X68692000Y-116880000D01*
X73992000Y-122900000D02*
X73992000Y-116880000D01*
X68692000Y-122900000D02*
X73992000Y-122900000D01*
X68692000Y-116880000D02*
X68692000Y-122900000D01*
X144320000Y-123934920D02*
X144320000Y-123334920D01*
X142720000Y-123934920D02*
X144320000Y-123934920D01*
X142720000Y-123334920D02*
X142720000Y-123934920D01*
X141780000Y-123934920D02*
X141780000Y-123334920D01*
X140180000Y-123934920D02*
X141780000Y-123934920D01*
X140180000Y-123334920D02*
X140180000Y-123934920D01*
X139240000Y-123934920D02*
X139240000Y-123334920D01*
X137640000Y-123934920D02*
X139240000Y-123934920D01*
X137640000Y-123334920D02*
X137640000Y-123934920D01*
X143270000Y-129354920D02*
X143270000Y-128354920D01*
X138690000Y-129354920D02*
X138690000Y-128354920D01*
X143270000Y-127824920D02*
X143520000Y-128354920D01*
X138690000Y-127824920D02*
X143270000Y-127824920D01*
X138440000Y-128354920D02*
X138690000Y-127824920D01*
X143520000Y-128354920D02*
X143520000Y-129354920D01*
X138440000Y-128354920D02*
X143520000Y-128354920D01*
X138440000Y-129354920D02*
X138440000Y-128354920D01*
X136770000Y-124364920D02*
X136770000Y-128364920D01*
X144900000Y-123334920D02*
X137060000Y-123334920D01*
X144900000Y-129354920D02*
X144900000Y-123334920D01*
X137060000Y-129354920D02*
X144900000Y-129354920D01*
X137060000Y-123334920D02*
X137060000Y-129354920D01*
X55560000Y-42794920D02*
X55560000Y-43394920D01*
X57160000Y-42794920D02*
X55560000Y-42794920D01*
X57160000Y-43394920D02*
X57160000Y-42794920D01*
X58100000Y-42794920D02*
X58100000Y-43394920D01*
X59700000Y-42794920D02*
X58100000Y-42794920D01*
X59700000Y-43394920D02*
X59700000Y-42794920D01*
X60640000Y-42794920D02*
X60640000Y-43394920D01*
X62240000Y-42794920D02*
X60640000Y-42794920D01*
X62240000Y-43394920D02*
X62240000Y-42794920D01*
X63180000Y-42794920D02*
X63180000Y-43394920D01*
X64780000Y-42794920D02*
X63180000Y-42794920D01*
X64780000Y-43394920D02*
X64780000Y-42794920D01*
X56610000Y-37374920D02*
X56610000Y-38374920D01*
X63730000Y-37374920D02*
X63730000Y-38374920D01*
X56610000Y-38904920D02*
X56360000Y-38374920D01*
X63730000Y-38904920D02*
X56610000Y-38904920D01*
X63980000Y-38374920D02*
X63730000Y-38904920D01*
X56360000Y-38374920D02*
X56360000Y-37374920D01*
X63980000Y-38374920D02*
X56360000Y-38374920D01*
X63980000Y-37374920D02*
X63980000Y-38374920D01*
X65650000Y-42364920D02*
X65650000Y-38364920D01*
X54980000Y-43394920D02*
X65360000Y-43394920D01*
X54980000Y-37374920D02*
X54980000Y-43394920D01*
X65360000Y-37374920D02*
X54980000Y-37374920D01*
X65360000Y-43394920D02*
X65360000Y-37374920D01*
X196940000Y-127934920D02*
X196940000Y-127334920D01*
X195340000Y-127934920D02*
X196940000Y-127934920D01*
X195340000Y-127334920D02*
X195340000Y-127934920D01*
X194400000Y-127934920D02*
X194400000Y-127334920D01*
X192800000Y-127934920D02*
X194400000Y-127934920D01*
X192800000Y-127334920D02*
X192800000Y-127934920D01*
X195890000Y-133354920D02*
X195890000Y-132354920D01*
X193850000Y-133354920D02*
X193850000Y-132354920D01*
X195890000Y-131824920D02*
X196140000Y-132354920D01*
X193850000Y-131824920D02*
X195890000Y-131824920D01*
X193600000Y-132354920D02*
X193850000Y-131824920D01*
X196140000Y-132354920D02*
X196140000Y-133354920D01*
X193600000Y-132354920D02*
X196140000Y-132354920D01*
X193600000Y-133354920D02*
X193600000Y-132354920D01*
X191930000Y-128364920D02*
X191930000Y-132364920D01*
X197520000Y-127334920D02*
X192220000Y-127334920D01*
X197520000Y-133354920D02*
X197520000Y-127334920D01*
X192220000Y-133354920D02*
X197520000Y-133354920D01*
X192220000Y-127334920D02*
X192220000Y-133354920D01*
X99320000Y-36934920D02*
X99320000Y-36334920D01*
X97720000Y-36934920D02*
X99320000Y-36934920D01*
X97720000Y-36334920D02*
X97720000Y-36934920D01*
X96780000Y-36934920D02*
X96780000Y-36334920D01*
X95180000Y-36934920D02*
X96780000Y-36934920D01*
X95180000Y-36334920D02*
X95180000Y-36934920D01*
X98270000Y-42354920D02*
X98270000Y-41354920D01*
X96230000Y-42354920D02*
X96230000Y-41354920D01*
X98270000Y-40824920D02*
X98520000Y-41354920D01*
X96230000Y-40824920D02*
X98270000Y-40824920D01*
X95980000Y-41354920D02*
X96230000Y-40824920D01*
X98520000Y-41354920D02*
X98520000Y-42354920D01*
X95980000Y-41354920D02*
X98520000Y-41354920D01*
X95980000Y-42354920D02*
X95980000Y-41354920D01*
X94310000Y-37364920D02*
X94310000Y-41364920D01*
X99900000Y-36334920D02*
X94600000Y-36334920D01*
X99900000Y-42354920D02*
X99900000Y-36334920D01*
X94600000Y-42354920D02*
X99900000Y-42354920D01*
X94600000Y-36334920D02*
X94600000Y-42354920D01*
X106320000Y-36934920D02*
X106320000Y-36334920D01*
X104720000Y-36934920D02*
X106320000Y-36934920D01*
X104720000Y-36334920D02*
X104720000Y-36934920D01*
X103780000Y-36934920D02*
X103780000Y-36334920D01*
X102180000Y-36934920D02*
X103780000Y-36934920D01*
X102180000Y-36334920D02*
X102180000Y-36934920D01*
X105270000Y-42354920D02*
X105270000Y-41354920D01*
X103230000Y-42354920D02*
X103230000Y-41354920D01*
X105270000Y-40824920D02*
X105520000Y-41354920D01*
X103230000Y-40824920D02*
X105270000Y-40824920D01*
X102980000Y-41354920D02*
X103230000Y-40824920D01*
X105520000Y-41354920D02*
X105520000Y-42354920D01*
X102980000Y-41354920D02*
X105520000Y-41354920D01*
X102980000Y-42354920D02*
X102980000Y-41354920D01*
X101310000Y-37364920D02*
X101310000Y-41364920D01*
X106900000Y-36334920D02*
X101600000Y-36334920D01*
X106900000Y-42354920D02*
X106900000Y-36334920D01*
X101600000Y-42354920D02*
X106900000Y-42354920D01*
X101600000Y-36334920D02*
X101600000Y-42354920D01*
X83832000Y-36934920D02*
X83832000Y-36334920D01*
X82232000Y-36934920D02*
X83832000Y-36934920D01*
X82232000Y-36334920D02*
X82232000Y-36934920D01*
X81292000Y-36934920D02*
X81292000Y-36334920D01*
X79692000Y-36934920D02*
X81292000Y-36934920D01*
X79692000Y-36334920D02*
X79692000Y-36934920D01*
X78752000Y-36934920D02*
X78752000Y-36334920D01*
X77152000Y-36934920D02*
X78752000Y-36934920D01*
X77152000Y-36334920D02*
X77152000Y-36934920D01*
X82782000Y-42354920D02*
X82782000Y-41354920D01*
X78202000Y-42354920D02*
X78202000Y-41354920D01*
X82782000Y-40824920D02*
X83032000Y-41354920D01*
X78202000Y-40824920D02*
X82782000Y-40824920D01*
X77952000Y-41354920D02*
X78202000Y-40824920D01*
X83032000Y-41354920D02*
X83032000Y-42354920D01*
X77952000Y-41354920D02*
X83032000Y-41354920D01*
X77952000Y-42354920D02*
X77952000Y-41354920D01*
X76282000Y-37364920D02*
X76282000Y-41364920D01*
X84412000Y-36334920D02*
X76572000Y-36334920D01*
X84412000Y-42354920D02*
X84412000Y-36334920D01*
X76572000Y-42354920D02*
X84412000Y-42354920D01*
X76572000Y-36334920D02*
X76572000Y-42354920D01*
X190480000Y-127934920D02*
X190480000Y-127334920D01*
X188880000Y-127934920D02*
X190480000Y-127934920D01*
X188880000Y-127334920D02*
X188880000Y-127934920D01*
X187940000Y-127934920D02*
X187940000Y-127334920D01*
X186340000Y-127934920D02*
X187940000Y-127934920D01*
X186340000Y-127334920D02*
X186340000Y-127934920D01*
X185400000Y-127934920D02*
X185400000Y-127334920D01*
X183800000Y-127934920D02*
X185400000Y-127934920D01*
X183800000Y-127334920D02*
X183800000Y-127934920D01*
X189430000Y-133354920D02*
X189430000Y-132354920D01*
X184850000Y-133354920D02*
X184850000Y-132354920D01*
X189430000Y-131824920D02*
X189680000Y-132354920D01*
X184850000Y-131824920D02*
X189430000Y-131824920D01*
X184600000Y-132354920D02*
X184850000Y-131824920D01*
X189680000Y-132354920D02*
X189680000Y-133354920D01*
X184600000Y-132354920D02*
X189680000Y-132354920D01*
X184600000Y-133354920D02*
X184600000Y-132354920D01*
X182930000Y-128364920D02*
X182930000Y-132364920D01*
X191060000Y-127334920D02*
X183220000Y-127334920D01*
X191060000Y-133354920D02*
X191060000Y-127334920D01*
X183220000Y-133354920D02*
X191060000Y-133354920D01*
X183220000Y-127334920D02*
X183220000Y-133354920D01*
X113320000Y-36934920D02*
X113320000Y-36334920D01*
X111720000Y-36934920D02*
X113320000Y-36934920D01*
X111720000Y-36334920D02*
X111720000Y-36934920D01*
X110780000Y-36934920D02*
X110780000Y-36334920D01*
X109180000Y-36934920D02*
X110780000Y-36934920D01*
X109180000Y-36334920D02*
X109180000Y-36934920D01*
X112270000Y-42354920D02*
X112270000Y-41354920D01*
X110230000Y-42354920D02*
X110230000Y-41354920D01*
X112270000Y-40824920D02*
X112520000Y-41354920D01*
X110230000Y-40824920D02*
X112270000Y-40824920D01*
X109980000Y-41354920D02*
X110230000Y-40824920D01*
X112520000Y-41354920D02*
X112520000Y-42354920D01*
X109980000Y-41354920D02*
X112520000Y-41354920D01*
X109980000Y-42354920D02*
X109980000Y-41354920D01*
X108310000Y-37364920D02*
X108310000Y-41364920D01*
X113900000Y-36334920D02*
X108600000Y-36334920D01*
X113900000Y-42354920D02*
X113900000Y-36334920D01*
X108600000Y-42354920D02*
X113900000Y-42354920D01*
X108600000Y-36334920D02*
X108600000Y-42354920D01*
X55080000Y-131564920D02*
X55080000Y-126614920D01*
X59400000Y-131564920D02*
X61080000Y-131564920D01*
X59380000Y-118164920D02*
X61080000Y-118164920D01*
X55080000Y-118164920D02*
X55080000Y-123114920D01*
X61080000Y-118164920D02*
X61080000Y-131564920D01*
X128474000Y-104157668D02*
X128474000Y-104680172D01*
X129894000Y-104157668D02*
X129894000Y-104680172D01*
X139114000Y-56902172D02*
X139114000Y-56379668D01*
X137694000Y-56902172D02*
X137694000Y-56379668D01*
X77705252Y-64820920D02*
X77182748Y-64820920D01*
X77705252Y-66240920D02*
X77182748Y-66240920D01*
X126693748Y-90074920D02*
X127216252Y-90074920D01*
X126693748Y-88654920D02*
X127216252Y-88654920D01*
X121718748Y-88074920D02*
X122241252Y-88074920D01*
X121718748Y-86654920D02*
X122241252Y-86654920D01*
X130268748Y-79956920D02*
X130791252Y-79956920D01*
X130268748Y-78536920D02*
X130791252Y-78536920D01*
X121886748Y-91386920D02*
X122409252Y-91386920D01*
X121886748Y-89966920D02*
X122409252Y-89966920D01*
X85056748Y-113738920D02*
X85579252Y-113738920D01*
X85056748Y-112318920D02*
X85579252Y-112318920D01*
X80230748Y-111198920D02*
X80753252Y-111198920D01*
X80230748Y-109778920D02*
X80753252Y-109778920D01*
X71086748Y-115770920D02*
X71609252Y-115770920D01*
X71086748Y-114350920D02*
X71609252Y-114350920D01*
D14*
X171168000Y-115316000D02*
X171168000Y-69596000D01*
X166088000Y-69596000D02*
X166088000Y-112776000D01*
X171168000Y-69596000D02*
X166088000Y-69596000D01*
X171168000Y-115316000D02*
X168628000Y-115316000D01*
X165808000Y-114046000D02*
X165808000Y-115596000D01*
X168628000Y-115316000D02*
X168628000Y-112776000D01*
X168628000Y-112776000D02*
X166088000Y-112776000D01*
X165808000Y-115596000D02*
X167358000Y-115596000D01*
X148308000Y-120396000D02*
X166088000Y-120396000D01*
X166088000Y-120396000D02*
X166088000Y-117856000D01*
X166088000Y-117856000D02*
X148308000Y-117856000D01*
X145488000Y-120676000D02*
X147038000Y-120676000D01*
X148308000Y-120396000D02*
X148308000Y-117856000D01*
X147038000Y-117576000D02*
X145488000Y-117576000D01*
X145488000Y-117576000D02*
X145488000Y-120676000D01*
X102588000Y-120396000D02*
X120368000Y-120396000D01*
X120368000Y-120396000D02*
X120368000Y-117856000D01*
X120368000Y-117856000D02*
X102588000Y-117856000D01*
X99768000Y-120676000D02*
X101318000Y-120676000D01*
X102588000Y-120396000D02*
X102588000Y-117856000D01*
X101318000Y-117576000D02*
X99768000Y-117576000D01*
X99768000Y-117576000D02*
X99768000Y-120676000D01*
X125448000Y-120396000D02*
X143228000Y-120396000D01*
X143228000Y-120396000D02*
X143228000Y-117856000D01*
X143228000Y-117856000D02*
X125448000Y-117856000D01*
X122628000Y-120676000D02*
X124178000Y-120676000D01*
X125448000Y-120396000D02*
X125448000Y-117856000D01*
X124178000Y-117576000D02*
X122628000Y-117576000D01*
X122628000Y-117576000D02*
X122628000Y-120676000D01*
X93444000Y-72136000D02*
X116304000Y-72136000D01*
X116304000Y-72136000D02*
X116304000Y-69596000D01*
X116304000Y-69596000D02*
X93444000Y-69596000D01*
X90624000Y-72416000D02*
X92174000Y-72416000D01*
X93444000Y-72136000D02*
X93444000Y-69596000D01*
X92174000Y-69316000D02*
X90624000Y-69316000D01*
X90624000Y-69316000D02*
X90624000Y-72416000D01*
X120368000Y-72136000D02*
X138148000Y-72136000D01*
X138148000Y-72136000D02*
X138148000Y-69596000D01*
X138148000Y-69596000D02*
X120368000Y-69596000D01*
X117548000Y-72416000D02*
X119098000Y-72416000D01*
X120368000Y-72136000D02*
X120368000Y-69596000D01*
X119098000Y-69316000D02*
X117548000Y-69316000D01*
X117548000Y-69316000D02*
X117548000Y-72416000D01*
X143228000Y-72136000D02*
X161008000Y-72136000D01*
X161008000Y-72136000D02*
X161008000Y-69596000D01*
X161008000Y-69596000D02*
X143228000Y-69596000D01*
X140408000Y-72416000D02*
X141958000Y-72416000D01*
X143228000Y-72136000D02*
X143228000Y-69596000D01*
X141958000Y-69316000D02*
X140408000Y-69316000D01*
X140408000Y-69316000D02*
X140408000Y-72416000D01*
X172184000Y-119126000D02*
G75*
G03X172184000Y-119126000I-2286000J0D01*
G01*
X90904000Y-70866000D02*
G75*
G03X90904000Y-70866000I-2286000J0D01*
G01*
X165834000Y-70866000D02*
G75*
G03X165834000Y-70866000I-2286000J0D01*
G01*
X82865333Y-119957300D02*
X82532000Y-119481110D01*
X82293904Y-119957300D02*
X82293904Y-118957300D01*
X82674857Y-118957300D01*
X82770095Y-119004920D01*
X82817714Y-119052539D01*
X82865333Y-119147777D01*
X82865333Y-119290634D01*
X82817714Y-119385872D01*
X82770095Y-119433491D01*
X82674857Y-119481110D01*
X82293904Y-119481110D01*
X83246285Y-119052539D02*
X83293904Y-119004920D01*
X83389142Y-118957300D01*
X83627238Y-118957300D01*
X83722476Y-119004920D01*
X83770095Y-119052539D01*
X83817714Y-119147777D01*
X83817714Y-119243015D01*
X83770095Y-119385872D01*
X83198666Y-119957300D01*
X83817714Y-119957300D01*
X70362142Y-109072062D02*
X70314523Y-109119681D01*
X70171666Y-109167300D01*
X70076428Y-109167300D01*
X69933571Y-109119681D01*
X69838333Y-109024443D01*
X69790714Y-108929205D01*
X69743095Y-108738729D01*
X69743095Y-108595872D01*
X69790714Y-108405396D01*
X69838333Y-108310158D01*
X69933571Y-108214920D01*
X70076428Y-108167300D01*
X70171666Y-108167300D01*
X70314523Y-108214920D01*
X70362142Y-108262539D01*
X71314523Y-109167300D02*
X70743095Y-109167300D01*
X71028809Y-109167300D02*
X71028809Y-108167300D01*
X70933571Y-108310158D01*
X70838333Y-108405396D01*
X70743095Y-108453015D01*
X72171666Y-108500634D02*
X72171666Y-109167300D01*
X71933571Y-108119681D02*
X71695476Y-108833967D01*
X72314523Y-108833967D01*
X55973142Y-108942062D02*
X55925523Y-108989681D01*
X55782666Y-109037300D01*
X55687428Y-109037300D01*
X55544571Y-108989681D01*
X55449333Y-108894443D01*
X55401714Y-108799205D01*
X55354095Y-108608729D01*
X55354095Y-108465872D01*
X55401714Y-108275396D01*
X55449333Y-108180158D01*
X55544571Y-108084920D01*
X55687428Y-108037300D01*
X55782666Y-108037300D01*
X55925523Y-108084920D01*
X55973142Y-108132539D01*
X56925523Y-109037300D02*
X56354095Y-109037300D01*
X56639809Y-109037300D02*
X56639809Y-108037300D01*
X56544571Y-108180158D01*
X56449333Y-108275396D01*
X56354095Y-108323015D01*
X57258857Y-108037300D02*
X57877904Y-108037300D01*
X57544571Y-108418253D01*
X57687428Y-108418253D01*
X57782666Y-108465872D01*
X57830285Y-108513491D01*
X57877904Y-108608729D01*
X57877904Y-108846824D01*
X57830285Y-108942062D01*
X57782666Y-108989681D01*
X57687428Y-109037300D01*
X57401714Y-109037300D01*
X57306476Y-108989681D01*
X57258857Y-108942062D01*
X201146666Y-49517300D02*
X200813333Y-49041110D01*
X200575238Y-49517300D02*
X200575238Y-48517300D01*
X200956190Y-48517300D01*
X201051428Y-48564920D01*
X201099047Y-48612539D01*
X201146666Y-48707777D01*
X201146666Y-48850634D01*
X201099047Y-48945872D01*
X201051428Y-48993491D01*
X200956190Y-49041110D01*
X200575238Y-49041110D01*
X201575238Y-48993491D02*
X201908571Y-48993491D01*
X202051428Y-49517300D02*
X201575238Y-49517300D01*
X201575238Y-48517300D01*
X202051428Y-48517300D01*
X202813333Y-48993491D02*
X202480000Y-48993491D01*
X202480000Y-49517300D02*
X202480000Y-48517300D01*
X202956190Y-48517300D01*
X203480000Y-48517300D02*
X203480000Y-48755396D01*
X203241904Y-48660158D02*
X203480000Y-48755396D01*
X203718095Y-48660158D01*
X203337142Y-48945872D02*
X203480000Y-48755396D01*
X203622857Y-48945872D01*
X204241904Y-48517300D02*
X204241904Y-48755396D01*
X204003809Y-48660158D02*
X204241904Y-48755396D01*
X204480000Y-48660158D01*
X204099047Y-48945872D02*
X204241904Y-48755396D01*
X204384761Y-48945872D01*
X173646666Y-49517300D02*
X173313333Y-49041110D01*
X173075238Y-49517300D02*
X173075238Y-48517300D01*
X173456190Y-48517300D01*
X173551428Y-48564920D01*
X173599047Y-48612539D01*
X173646666Y-48707777D01*
X173646666Y-48850634D01*
X173599047Y-48945872D01*
X173551428Y-48993491D01*
X173456190Y-49041110D01*
X173075238Y-49041110D01*
X174075238Y-48993491D02*
X174408571Y-48993491D01*
X174551428Y-49517300D02*
X174075238Y-49517300D01*
X174075238Y-48517300D01*
X174551428Y-48517300D01*
X175313333Y-48993491D02*
X174980000Y-48993491D01*
X174980000Y-49517300D02*
X174980000Y-48517300D01*
X175456190Y-48517300D01*
X175980000Y-48517300D02*
X175980000Y-48755396D01*
X175741904Y-48660158D02*
X175980000Y-48755396D01*
X176218095Y-48660158D01*
X175837142Y-48945872D02*
X175980000Y-48755396D01*
X176122857Y-48945872D01*
X176741904Y-48517300D02*
X176741904Y-48755396D01*
X176503809Y-48660158D02*
X176741904Y-48755396D01*
X176980000Y-48660158D01*
X176599047Y-48945872D02*
X176741904Y-48755396D01*
X176884761Y-48945872D01*
X173646666Y-104517300D02*
X173313333Y-104041110D01*
X173075238Y-104517300D02*
X173075238Y-103517300D01*
X173456190Y-103517300D01*
X173551428Y-103564920D01*
X173599047Y-103612539D01*
X173646666Y-103707777D01*
X173646666Y-103850634D01*
X173599047Y-103945872D01*
X173551428Y-103993491D01*
X173456190Y-104041110D01*
X173075238Y-104041110D01*
X174075238Y-103993491D02*
X174408571Y-103993491D01*
X174551428Y-104517300D02*
X174075238Y-104517300D01*
X174075238Y-103517300D01*
X174551428Y-103517300D01*
X175313333Y-103993491D02*
X174980000Y-103993491D01*
X174980000Y-104517300D02*
X174980000Y-103517300D01*
X175456190Y-103517300D01*
X175980000Y-103517300D02*
X175980000Y-103755396D01*
X175741904Y-103660158D02*
X175980000Y-103755396D01*
X176218095Y-103660158D01*
X175837142Y-103945872D02*
X175980000Y-103755396D01*
X176122857Y-103945872D01*
X176741904Y-103517300D02*
X176741904Y-103755396D01*
X176503809Y-103660158D02*
X176741904Y-103755396D01*
X176980000Y-103660158D01*
X176599047Y-103945872D02*
X176741904Y-103755396D01*
X176884761Y-103945872D01*
X201146666Y-104517300D02*
X200813333Y-104041110D01*
X200575238Y-104517300D02*
X200575238Y-103517300D01*
X200956190Y-103517300D01*
X201051428Y-103564920D01*
X201099047Y-103612539D01*
X201146666Y-103707777D01*
X201146666Y-103850634D01*
X201099047Y-103945872D01*
X201051428Y-103993491D01*
X200956190Y-104041110D01*
X200575238Y-104041110D01*
X201575238Y-103993491D02*
X201908571Y-103993491D01*
X202051428Y-104517300D02*
X201575238Y-104517300D01*
X201575238Y-103517300D01*
X202051428Y-103517300D01*
X202813333Y-103993491D02*
X202480000Y-103993491D01*
X202480000Y-104517300D02*
X202480000Y-103517300D01*
X202956190Y-103517300D01*
X203480000Y-103517300D02*
X203480000Y-103755396D01*
X203241904Y-103660158D02*
X203480000Y-103755396D01*
X203718095Y-103660158D01*
X203337142Y-103945872D02*
X203480000Y-103755396D01*
X203622857Y-103945872D01*
X204241904Y-103517300D02*
X204241904Y-103755396D01*
X204003809Y-103660158D02*
X204241904Y-103755396D01*
X204480000Y-103660158D01*
X204099047Y-103945872D02*
X204241904Y-103755396D01*
X204384761Y-103945872D01*
X203646666Y-33617300D02*
X203313333Y-33141110D01*
X203075238Y-33617300D02*
X203075238Y-32617300D01*
X203456190Y-32617300D01*
X203551428Y-32664920D01*
X203599047Y-32712539D01*
X203646666Y-32807777D01*
X203646666Y-32950634D01*
X203599047Y-33045872D01*
X203551428Y-33093491D01*
X203456190Y-33141110D01*
X203075238Y-33141110D01*
X204075238Y-33093491D02*
X204408571Y-33093491D01*
X204551428Y-33617300D02*
X204075238Y-33617300D01*
X204075238Y-32617300D01*
X204551428Y-32617300D01*
X205313333Y-33093491D02*
X204980000Y-33093491D01*
X204980000Y-33617300D02*
X204980000Y-32617300D01*
X205456190Y-32617300D01*
X205980000Y-32617300D02*
X205980000Y-32855396D01*
X205741904Y-32760158D02*
X205980000Y-32855396D01*
X206218095Y-32760158D01*
X205837142Y-33045872D02*
X205980000Y-32855396D01*
X206122857Y-33045872D01*
X206741904Y-32617300D02*
X206741904Y-32855396D01*
X206503809Y-32760158D02*
X206741904Y-32855396D01*
X206980000Y-32760158D01*
X206599047Y-33045872D02*
X206741904Y-32855396D01*
X206884761Y-33045872D01*
X203646666Y-127617300D02*
X203313333Y-127141110D01*
X203075238Y-127617300D02*
X203075238Y-126617300D01*
X203456190Y-126617300D01*
X203551428Y-126664920D01*
X203599047Y-126712539D01*
X203646666Y-126807777D01*
X203646666Y-126950634D01*
X203599047Y-127045872D01*
X203551428Y-127093491D01*
X203456190Y-127141110D01*
X203075238Y-127141110D01*
X204075238Y-127093491D02*
X204408571Y-127093491D01*
X204551428Y-127617300D02*
X204075238Y-127617300D01*
X204075238Y-126617300D01*
X204551428Y-126617300D01*
X205313333Y-127093491D02*
X204980000Y-127093491D01*
X204980000Y-127617300D02*
X204980000Y-126617300D01*
X205456190Y-126617300D01*
X205980000Y-126617300D02*
X205980000Y-126855396D01*
X205741904Y-126760158D02*
X205980000Y-126855396D01*
X206218095Y-126760158D01*
X205837142Y-127045872D02*
X205980000Y-126855396D01*
X206122857Y-127045872D01*
X206741904Y-126617300D02*
X206741904Y-126855396D01*
X206503809Y-126760158D02*
X206741904Y-126855396D01*
X206980000Y-126760158D01*
X206599047Y-127045872D02*
X206741904Y-126855396D01*
X206884761Y-127045872D01*
X49646666Y-33617300D02*
X49313333Y-33141110D01*
X49075238Y-33617300D02*
X49075238Y-32617300D01*
X49456190Y-32617300D01*
X49551428Y-32664920D01*
X49599047Y-32712539D01*
X49646666Y-32807777D01*
X49646666Y-32950634D01*
X49599047Y-33045872D01*
X49551428Y-33093491D01*
X49456190Y-33141110D01*
X49075238Y-33141110D01*
X50075238Y-33093491D02*
X50408571Y-33093491D01*
X50551428Y-33617300D02*
X50075238Y-33617300D01*
X50075238Y-32617300D01*
X50551428Y-32617300D01*
X51313333Y-33093491D02*
X50980000Y-33093491D01*
X50980000Y-33617300D02*
X50980000Y-32617300D01*
X51456190Y-32617300D01*
X51980000Y-32617300D02*
X51980000Y-32855396D01*
X51741904Y-32760158D02*
X51980000Y-32855396D01*
X52218095Y-32760158D01*
X51837142Y-33045872D02*
X51980000Y-32855396D01*
X52122857Y-33045872D01*
X52741904Y-32617300D02*
X52741904Y-32855396D01*
X52503809Y-32760158D02*
X52741904Y-32855396D01*
X52980000Y-32760158D01*
X52599047Y-33045872D02*
X52741904Y-32855396D01*
X52884761Y-33045872D01*
X76682095Y-59035300D02*
X76682095Y-59844824D01*
X76729714Y-59940062D01*
X76777333Y-59987681D01*
X76872571Y-60035300D01*
X77063047Y-60035300D01*
X77158285Y-59987681D01*
X77205904Y-59940062D01*
X77253523Y-59844824D01*
X77253523Y-59035300D01*
X78158285Y-59368634D02*
X78158285Y-60035300D01*
X77920190Y-58987681D02*
X77682095Y-59701967D01*
X78301142Y-59701967D01*
X60328095Y-71277300D02*
X60328095Y-72086824D01*
X60375714Y-72182062D01*
X60423333Y-72229681D01*
X60518571Y-72277300D01*
X60709047Y-72277300D01*
X60804285Y-72229681D01*
X60851904Y-72182062D01*
X60899523Y-72086824D01*
X60899523Y-71277300D01*
X61899523Y-72277300D02*
X61328095Y-72277300D01*
X61613809Y-72277300D02*
X61613809Y-71277300D01*
X61518571Y-71420158D01*
X61423333Y-71515396D01*
X61328095Y-71563015D01*
X138745333Y-51885300D02*
X138412000Y-51409110D01*
X138173904Y-51885300D02*
X138173904Y-50885300D01*
X138554857Y-50885300D01*
X138650095Y-50932920D01*
X138697714Y-50980539D01*
X138745333Y-51075777D01*
X138745333Y-51218634D01*
X138697714Y-51313872D01*
X138650095Y-51361491D01*
X138554857Y-51409110D01*
X138173904Y-51409110D01*
X139697714Y-51885300D02*
X139126285Y-51885300D01*
X139412000Y-51885300D02*
X139412000Y-50885300D01*
X139316761Y-51028158D01*
X139221523Y-51123396D01*
X139126285Y-51171015D01*
X116422380Y-47423015D02*
X115422380Y-47423015D01*
X115422380Y-47184920D01*
X115470000Y-47042062D01*
X115565238Y-46946824D01*
X115660476Y-46899205D01*
X115850952Y-46851586D01*
X115993809Y-46851586D01*
X116184285Y-46899205D01*
X116279523Y-46946824D01*
X116374761Y-47042062D01*
X116422380Y-47184920D01*
X116422380Y-47423015D01*
X116422380Y-45899205D02*
X116422380Y-46470634D01*
X116422380Y-46184920D02*
X115422380Y-46184920D01*
X115565238Y-46280158D01*
X115660476Y-46375396D01*
X115708095Y-46470634D01*
X120046304Y-103489700D02*
X120046304Y-104299224D01*
X120093923Y-104394462D01*
X120141542Y-104442081D01*
X120236780Y-104489700D01*
X120427257Y-104489700D01*
X120522495Y-104442081D01*
X120570114Y-104394462D01*
X120617733Y-104299224D01*
X120617733Y-103489700D01*
X121617733Y-104489700D02*
X121046304Y-104489700D01*
X121332019Y-104489700D02*
X121332019Y-103489700D01*
X121236780Y-103632558D01*
X121141542Y-103727796D01*
X121046304Y-103775415D01*
X122570114Y-104489700D02*
X121998685Y-104489700D01*
X122284400Y-104489700D02*
X122284400Y-103489700D01*
X122189161Y-103632558D01*
X122093923Y-103727796D01*
X121998685Y-103775415D01*
X137165904Y-58887300D02*
X137165904Y-59696824D01*
X137213523Y-59792062D01*
X137261142Y-59839681D01*
X137356380Y-59887300D01*
X137546857Y-59887300D01*
X137642095Y-59839681D01*
X137689714Y-59792062D01*
X137737333Y-59696824D01*
X137737333Y-58887300D01*
X138737333Y-59887300D02*
X138165904Y-59887300D01*
X138451619Y-59887300D02*
X138451619Y-58887300D01*
X138356380Y-59030158D01*
X138261142Y-59125396D01*
X138165904Y-59173015D01*
X139356380Y-58887300D02*
X139451619Y-58887300D01*
X139546857Y-58934920D01*
X139594476Y-58982539D01*
X139642095Y-59077777D01*
X139689714Y-59268253D01*
X139689714Y-59506348D01*
X139642095Y-59696824D01*
X139594476Y-59792062D01*
X139546857Y-59839681D01*
X139451619Y-59887300D01*
X139356380Y-59887300D01*
X139261142Y-59839681D01*
X139213523Y-59792062D01*
X139165904Y-59696824D01*
X139118285Y-59506348D01*
X139118285Y-59268253D01*
X139165904Y-59077777D01*
X139213523Y-58982539D01*
X139261142Y-58934920D01*
X139356380Y-58887300D01*
X83540095Y-113243300D02*
X83540095Y-114052824D01*
X83587714Y-114148062D01*
X83635333Y-114195681D01*
X83730571Y-114243300D01*
X83921047Y-114243300D01*
X84016285Y-114195681D01*
X84063904Y-114148062D01*
X84111523Y-114052824D01*
X84111523Y-113243300D01*
X84730571Y-113671872D02*
X84635333Y-113624253D01*
X84587714Y-113576634D01*
X84540095Y-113481396D01*
X84540095Y-113433777D01*
X84587714Y-113338539D01*
X84635333Y-113290920D01*
X84730571Y-113243300D01*
X84921047Y-113243300D01*
X85016285Y-113290920D01*
X85063904Y-113338539D01*
X85111523Y-113433777D01*
X85111523Y-113481396D01*
X85063904Y-113576634D01*
X85016285Y-113624253D01*
X84921047Y-113671872D01*
X84730571Y-113671872D01*
X84635333Y-113719491D01*
X84587714Y-113767110D01*
X84540095Y-113862348D01*
X84540095Y-114052824D01*
X84587714Y-114148062D01*
X84635333Y-114195681D01*
X84730571Y-114243300D01*
X84921047Y-114243300D01*
X85016285Y-114195681D01*
X85063904Y-114148062D01*
X85111523Y-114052824D01*
X85111523Y-113862348D01*
X85063904Y-113767110D01*
X85016285Y-113719491D01*
X84921047Y-113671872D01*
X50102380Y-101476824D02*
X50911904Y-101476824D01*
X51007142Y-101429205D01*
X51054761Y-101381586D01*
X51102380Y-101286348D01*
X51102380Y-101095872D01*
X51054761Y-101000634D01*
X51007142Y-100953015D01*
X50911904Y-100905396D01*
X50102380Y-100905396D01*
X50102380Y-100524443D02*
X50102380Y-99905396D01*
X50483333Y-100238729D01*
X50483333Y-100095872D01*
X50530952Y-100000634D01*
X50578571Y-99953015D01*
X50673809Y-99905396D01*
X50911904Y-99905396D01*
X51007142Y-99953015D01*
X51054761Y-100000634D01*
X51102380Y-100095872D01*
X51102380Y-100381586D01*
X51054761Y-100476824D01*
X51007142Y-100524443D01*
X63102380Y-101476824D02*
X63911904Y-101476824D01*
X64007142Y-101429205D01*
X64054761Y-101381586D01*
X64102380Y-101286348D01*
X64102380Y-101095872D01*
X64054761Y-101000634D01*
X64007142Y-100953015D01*
X63911904Y-100905396D01*
X63102380Y-100905396D01*
X63197619Y-100476824D02*
X63150000Y-100429205D01*
X63102380Y-100333967D01*
X63102380Y-100095872D01*
X63150000Y-100000634D01*
X63197619Y-99953015D01*
X63292857Y-99905396D01*
X63388095Y-99905396D01*
X63530952Y-99953015D01*
X64102380Y-100524443D01*
X64102380Y-99905396D01*
X132046142Y-97606300D02*
X131712809Y-97130110D01*
X131474714Y-97606300D02*
X131474714Y-96606300D01*
X131855666Y-96606300D01*
X131950904Y-96653920D01*
X131998523Y-96701539D01*
X132046142Y-96796777D01*
X132046142Y-96939634D01*
X131998523Y-97034872D01*
X131950904Y-97082491D01*
X131855666Y-97130110D01*
X131474714Y-97130110D01*
X132379476Y-96606300D02*
X132998523Y-96606300D01*
X132665190Y-96987253D01*
X132808047Y-96987253D01*
X132903285Y-97034872D01*
X132950904Y-97082491D01*
X132998523Y-97177729D01*
X132998523Y-97415824D01*
X132950904Y-97511062D01*
X132903285Y-97558681D01*
X132808047Y-97606300D01*
X132522333Y-97606300D01*
X132427095Y-97558681D01*
X132379476Y-97511062D01*
X133331857Y-96606300D02*
X133950904Y-96606300D01*
X133617571Y-96987253D01*
X133760428Y-96987253D01*
X133855666Y-97034872D01*
X133903285Y-97082491D01*
X133950904Y-97177729D01*
X133950904Y-97415824D01*
X133903285Y-97511062D01*
X133855666Y-97558681D01*
X133760428Y-97606300D01*
X133474714Y-97606300D01*
X133379476Y-97558681D01*
X133331857Y-97511062D01*
X126331142Y-91765300D02*
X125997809Y-91289110D01*
X125759714Y-91765300D02*
X125759714Y-90765300D01*
X126140666Y-90765300D01*
X126235904Y-90812920D01*
X126283523Y-90860539D01*
X126331142Y-90955777D01*
X126331142Y-91098634D01*
X126283523Y-91193872D01*
X126235904Y-91241491D01*
X126140666Y-91289110D01*
X125759714Y-91289110D01*
X126664476Y-90765300D02*
X127283523Y-90765300D01*
X126950190Y-91146253D01*
X127093047Y-91146253D01*
X127188285Y-91193872D01*
X127235904Y-91241491D01*
X127283523Y-91336729D01*
X127283523Y-91574824D01*
X127235904Y-91670062D01*
X127188285Y-91717681D01*
X127093047Y-91765300D01*
X126807333Y-91765300D01*
X126712095Y-91717681D01*
X126664476Y-91670062D01*
X127664476Y-90860539D02*
X127712095Y-90812920D01*
X127807333Y-90765300D01*
X128045428Y-90765300D01*
X128140666Y-90812920D01*
X128188285Y-90860539D01*
X128235904Y-90955777D01*
X128235904Y-91051015D01*
X128188285Y-91193872D01*
X127616857Y-91765300D01*
X128235904Y-91765300D01*
X120997142Y-101543300D02*
X120663809Y-101067110D01*
X120425714Y-101543300D02*
X120425714Y-100543300D01*
X120806666Y-100543300D01*
X120901904Y-100590920D01*
X120949523Y-100638539D01*
X120997142Y-100733777D01*
X120997142Y-100876634D01*
X120949523Y-100971872D01*
X120901904Y-101019491D01*
X120806666Y-101067110D01*
X120425714Y-101067110D01*
X121330476Y-100543300D02*
X121949523Y-100543300D01*
X121616190Y-100924253D01*
X121759047Y-100924253D01*
X121854285Y-100971872D01*
X121901904Y-101019491D01*
X121949523Y-101114729D01*
X121949523Y-101352824D01*
X121901904Y-101448062D01*
X121854285Y-101495681D01*
X121759047Y-101543300D01*
X121473333Y-101543300D01*
X121378095Y-101495681D01*
X121330476Y-101448062D01*
X122901904Y-101543300D02*
X122330476Y-101543300D01*
X122616190Y-101543300D02*
X122616190Y-100543300D01*
X122520952Y-100686158D01*
X122425714Y-100781396D01*
X122330476Y-100829015D01*
X120819342Y-99231900D02*
X120486009Y-98755710D01*
X120247914Y-99231900D02*
X120247914Y-98231900D01*
X120628866Y-98231900D01*
X120724104Y-98279520D01*
X120771723Y-98327139D01*
X120819342Y-98422377D01*
X120819342Y-98565234D01*
X120771723Y-98660472D01*
X120724104Y-98708091D01*
X120628866Y-98755710D01*
X120247914Y-98755710D01*
X121152676Y-98231900D02*
X121771723Y-98231900D01*
X121438390Y-98612853D01*
X121581247Y-98612853D01*
X121676485Y-98660472D01*
X121724104Y-98708091D01*
X121771723Y-98803329D01*
X121771723Y-99041424D01*
X121724104Y-99136662D01*
X121676485Y-99184281D01*
X121581247Y-99231900D01*
X121295533Y-99231900D01*
X121200295Y-99184281D01*
X121152676Y-99136662D01*
X122390771Y-98231900D02*
X122486009Y-98231900D01*
X122581247Y-98279520D01*
X122628866Y-98327139D01*
X122676485Y-98422377D01*
X122724104Y-98612853D01*
X122724104Y-98850948D01*
X122676485Y-99041424D01*
X122628866Y-99136662D01*
X122581247Y-99184281D01*
X122486009Y-99231900D01*
X122390771Y-99231900D01*
X122295533Y-99184281D01*
X122247914Y-99136662D01*
X122200295Y-99041424D01*
X122152676Y-98850948D01*
X122152676Y-98612853D01*
X122200295Y-98422377D01*
X122247914Y-98327139D01*
X122295533Y-98279520D01*
X122390771Y-98231900D01*
X121225742Y-94939300D02*
X120892409Y-94463110D01*
X120654314Y-94939300D02*
X120654314Y-93939300D01*
X121035266Y-93939300D01*
X121130504Y-93986920D01*
X121178123Y-94034539D01*
X121225742Y-94129777D01*
X121225742Y-94272634D01*
X121178123Y-94367872D01*
X121130504Y-94415491D01*
X121035266Y-94463110D01*
X120654314Y-94463110D01*
X121606695Y-94034539D02*
X121654314Y-93986920D01*
X121749552Y-93939300D01*
X121987647Y-93939300D01*
X122082885Y-93986920D01*
X122130504Y-94034539D01*
X122178123Y-94129777D01*
X122178123Y-94225015D01*
X122130504Y-94367872D01*
X121559076Y-94939300D01*
X122178123Y-94939300D01*
X122654314Y-94939300D02*
X122844790Y-94939300D01*
X122940028Y-94891681D01*
X122987647Y-94844062D01*
X123082885Y-94701205D01*
X123130504Y-94510729D01*
X123130504Y-94129777D01*
X123082885Y-94034539D01*
X123035266Y-93986920D01*
X122940028Y-93939300D01*
X122749552Y-93939300D01*
X122654314Y-93986920D01*
X122606695Y-94034539D01*
X122559076Y-94129777D01*
X122559076Y-94367872D01*
X122606695Y-94463110D01*
X122654314Y-94510729D01*
X122749552Y-94558348D01*
X122940028Y-94558348D01*
X123035266Y-94510729D01*
X123082885Y-94463110D01*
X123130504Y-94367872D01*
X123486342Y-78784900D02*
X123153009Y-78308710D01*
X122914914Y-78784900D02*
X122914914Y-77784900D01*
X123295866Y-77784900D01*
X123391104Y-77832520D01*
X123438723Y-77880139D01*
X123486342Y-77975377D01*
X123486342Y-78118234D01*
X123438723Y-78213472D01*
X123391104Y-78261091D01*
X123295866Y-78308710D01*
X122914914Y-78308710D01*
X123867295Y-77880139D02*
X123914914Y-77832520D01*
X124010152Y-77784900D01*
X124248247Y-77784900D01*
X124343485Y-77832520D01*
X124391104Y-77880139D01*
X124438723Y-77975377D01*
X124438723Y-78070615D01*
X124391104Y-78213472D01*
X123819676Y-78784900D01*
X124438723Y-78784900D01*
X125010152Y-78213472D02*
X124914914Y-78165853D01*
X124867295Y-78118234D01*
X124819676Y-78022996D01*
X124819676Y-77975377D01*
X124867295Y-77880139D01*
X124914914Y-77832520D01*
X125010152Y-77784900D01*
X125200628Y-77784900D01*
X125295866Y-77832520D01*
X125343485Y-77880139D01*
X125391104Y-77975377D01*
X125391104Y-78022996D01*
X125343485Y-78118234D01*
X125295866Y-78165853D01*
X125200628Y-78213472D01*
X125010152Y-78213472D01*
X124914914Y-78261091D01*
X124867295Y-78308710D01*
X124819676Y-78403948D01*
X124819676Y-78594424D01*
X124867295Y-78689662D01*
X124914914Y-78737281D01*
X125010152Y-78784900D01*
X125200628Y-78784900D01*
X125295866Y-78737281D01*
X125343485Y-78689662D01*
X125391104Y-78594424D01*
X125391104Y-78403948D01*
X125343485Y-78308710D01*
X125295866Y-78261091D01*
X125200628Y-78213472D01*
X138269142Y-51633300D02*
X137935809Y-51157110D01*
X137697714Y-51633300D02*
X137697714Y-50633300D01*
X138078666Y-50633300D01*
X138173904Y-50680920D01*
X138221523Y-50728539D01*
X138269142Y-50823777D01*
X138269142Y-50966634D01*
X138221523Y-51061872D01*
X138173904Y-51109491D01*
X138078666Y-51157110D01*
X137697714Y-51157110D01*
X138650095Y-50728539D02*
X138697714Y-50680920D01*
X138792952Y-50633300D01*
X139031047Y-50633300D01*
X139126285Y-50680920D01*
X139173904Y-50728539D01*
X139221523Y-50823777D01*
X139221523Y-50919015D01*
X139173904Y-51061872D01*
X138602476Y-51633300D01*
X139221523Y-51633300D01*
X139554857Y-50633300D02*
X140221523Y-50633300D01*
X139792952Y-51633300D01*
X132100380Y-63633777D02*
X131624190Y-63967110D01*
X132100380Y-64205205D02*
X131100380Y-64205205D01*
X131100380Y-63824253D01*
X131148000Y-63729015D01*
X131195619Y-63681396D01*
X131290857Y-63633777D01*
X131433714Y-63633777D01*
X131528952Y-63681396D01*
X131576571Y-63729015D01*
X131624190Y-63824253D01*
X131624190Y-64205205D01*
X131195619Y-63252824D02*
X131148000Y-63205205D01*
X131100380Y-63109967D01*
X131100380Y-62871872D01*
X131148000Y-62776634D01*
X131195619Y-62729015D01*
X131290857Y-62681396D01*
X131386095Y-62681396D01*
X131528952Y-62729015D01*
X132100380Y-63300443D01*
X132100380Y-62681396D01*
X131100380Y-61824253D02*
X131100380Y-62014729D01*
X131148000Y-62109967D01*
X131195619Y-62157586D01*
X131338476Y-62252824D01*
X131528952Y-62300443D01*
X131909904Y-62300443D01*
X132005142Y-62252824D01*
X132052761Y-62205205D01*
X132100380Y-62109967D01*
X132100380Y-61919491D01*
X132052761Y-61824253D01*
X132005142Y-61776634D01*
X131909904Y-61729015D01*
X131671809Y-61729015D01*
X131576571Y-61776634D01*
X131528952Y-61824253D01*
X131481333Y-61919491D01*
X131481333Y-62109967D01*
X131528952Y-62205205D01*
X131576571Y-62252824D01*
X131671809Y-62300443D01*
X148634380Y-63887777D02*
X148158190Y-64221110D01*
X148634380Y-64459205D02*
X147634380Y-64459205D01*
X147634380Y-64078253D01*
X147682000Y-63983015D01*
X147729619Y-63935396D01*
X147824857Y-63887777D01*
X147967714Y-63887777D01*
X148062952Y-63935396D01*
X148110571Y-63983015D01*
X148158190Y-64078253D01*
X148158190Y-64459205D01*
X147729619Y-63506824D02*
X147682000Y-63459205D01*
X147634380Y-63363967D01*
X147634380Y-63125872D01*
X147682000Y-63030634D01*
X147729619Y-62983015D01*
X147824857Y-62935396D01*
X147920095Y-62935396D01*
X148062952Y-62983015D01*
X148634380Y-63554443D01*
X148634380Y-62935396D01*
X147634380Y-62030634D02*
X147634380Y-62506824D01*
X148110571Y-62554443D01*
X148062952Y-62506824D01*
X148015333Y-62411586D01*
X148015333Y-62173491D01*
X148062952Y-62078253D01*
X148110571Y-62030634D01*
X148205809Y-61983015D01*
X148443904Y-61983015D01*
X148539142Y-62030634D01*
X148586761Y-62078253D01*
X148634380Y-62173491D01*
X148634380Y-62411586D01*
X148586761Y-62506824D01*
X148539142Y-62554443D01*
X145332380Y-63887777D02*
X144856190Y-64221110D01*
X145332380Y-64459205D02*
X144332380Y-64459205D01*
X144332380Y-64078253D01*
X144380000Y-63983015D01*
X144427619Y-63935396D01*
X144522857Y-63887777D01*
X144665714Y-63887777D01*
X144760952Y-63935396D01*
X144808571Y-63983015D01*
X144856190Y-64078253D01*
X144856190Y-64459205D01*
X144427619Y-63506824D02*
X144380000Y-63459205D01*
X144332380Y-63363967D01*
X144332380Y-63125872D01*
X144380000Y-63030634D01*
X144427619Y-62983015D01*
X144522857Y-62935396D01*
X144618095Y-62935396D01*
X144760952Y-62983015D01*
X145332380Y-63554443D01*
X145332380Y-62935396D01*
X144665714Y-62078253D02*
X145332380Y-62078253D01*
X144284761Y-62316348D02*
X144999047Y-62554443D01*
X144999047Y-61935396D01*
X83405142Y-108147300D02*
X83071809Y-107671110D01*
X82833714Y-108147300D02*
X82833714Y-107147300D01*
X83214666Y-107147300D01*
X83309904Y-107194920D01*
X83357523Y-107242539D01*
X83405142Y-107337777D01*
X83405142Y-107480634D01*
X83357523Y-107575872D01*
X83309904Y-107623491D01*
X83214666Y-107671110D01*
X82833714Y-107671110D01*
X83786095Y-107242539D02*
X83833714Y-107194920D01*
X83928952Y-107147300D01*
X84167047Y-107147300D01*
X84262285Y-107194920D01*
X84309904Y-107242539D01*
X84357523Y-107337777D01*
X84357523Y-107433015D01*
X84309904Y-107575872D01*
X83738476Y-108147300D01*
X84357523Y-108147300D01*
X84690857Y-107147300D02*
X85309904Y-107147300D01*
X84976571Y-107528253D01*
X85119428Y-107528253D01*
X85214666Y-107575872D01*
X85262285Y-107623491D01*
X85309904Y-107718729D01*
X85309904Y-107956824D01*
X85262285Y-108052062D01*
X85214666Y-108099681D01*
X85119428Y-108147300D01*
X84833714Y-108147300D01*
X84738476Y-108099681D01*
X84690857Y-108052062D01*
X83405142Y-105099300D02*
X83071809Y-104623110D01*
X82833714Y-105099300D02*
X82833714Y-104099300D01*
X83214666Y-104099300D01*
X83309904Y-104146920D01*
X83357523Y-104194539D01*
X83405142Y-104289777D01*
X83405142Y-104432634D01*
X83357523Y-104527872D01*
X83309904Y-104575491D01*
X83214666Y-104623110D01*
X82833714Y-104623110D01*
X83786095Y-104194539D02*
X83833714Y-104146920D01*
X83928952Y-104099300D01*
X84167047Y-104099300D01*
X84262285Y-104146920D01*
X84309904Y-104194539D01*
X84357523Y-104289777D01*
X84357523Y-104385015D01*
X84309904Y-104527872D01*
X83738476Y-105099300D01*
X84357523Y-105099300D01*
X84738476Y-104194539D02*
X84786095Y-104146920D01*
X84881333Y-104099300D01*
X85119428Y-104099300D01*
X85214666Y-104146920D01*
X85262285Y-104194539D01*
X85309904Y-104289777D01*
X85309904Y-104385015D01*
X85262285Y-104527872D01*
X84690857Y-105099300D01*
X85309904Y-105099300D01*
X67149142Y-112973300D02*
X66815809Y-112497110D01*
X66577714Y-112973300D02*
X66577714Y-111973300D01*
X66958666Y-111973300D01*
X67053904Y-112020920D01*
X67101523Y-112068539D01*
X67149142Y-112163777D01*
X67149142Y-112306634D01*
X67101523Y-112401872D01*
X67053904Y-112449491D01*
X66958666Y-112497110D01*
X66577714Y-112497110D01*
X68101523Y-112973300D02*
X67530095Y-112973300D01*
X67815809Y-112973300D02*
X67815809Y-111973300D01*
X67720571Y-112116158D01*
X67625333Y-112211396D01*
X67530095Y-112259015D01*
X68958666Y-111973300D02*
X68768190Y-111973300D01*
X68672952Y-112020920D01*
X68625333Y-112068539D01*
X68530095Y-112211396D01*
X68482476Y-112401872D01*
X68482476Y-112782824D01*
X68530095Y-112878062D01*
X68577714Y-112925681D01*
X68672952Y-112973300D01*
X68863428Y-112973300D01*
X68958666Y-112925681D01*
X69006285Y-112878062D01*
X69053904Y-112782824D01*
X69053904Y-112544729D01*
X69006285Y-112449491D01*
X68958666Y-112401872D01*
X68863428Y-112354253D01*
X68672952Y-112354253D01*
X68577714Y-112401872D01*
X68530095Y-112449491D01*
X68482476Y-112544729D01*
X72432342Y-65830900D02*
X72099009Y-65354710D01*
X71860914Y-65830900D02*
X71860914Y-64830900D01*
X72241866Y-64830900D01*
X72337104Y-64878520D01*
X72384723Y-64926139D01*
X72432342Y-65021377D01*
X72432342Y-65164234D01*
X72384723Y-65259472D01*
X72337104Y-65307091D01*
X72241866Y-65354710D01*
X71860914Y-65354710D01*
X73384723Y-65830900D02*
X72813295Y-65830900D01*
X73099009Y-65830900D02*
X73099009Y-64830900D01*
X73003771Y-64973758D01*
X72908533Y-65068996D01*
X72813295Y-65116615D01*
X74289485Y-64830900D02*
X73813295Y-64830900D01*
X73765676Y-65307091D01*
X73813295Y-65259472D01*
X73908533Y-65211853D01*
X74146628Y-65211853D01*
X74241866Y-65259472D01*
X74289485Y-65307091D01*
X74337104Y-65402329D01*
X74337104Y-65640424D01*
X74289485Y-65735662D01*
X74241866Y-65783281D01*
X74146628Y-65830900D01*
X73908533Y-65830900D01*
X73813295Y-65783281D01*
X73765676Y-65735662D01*
X132797142Y-126167300D02*
X132463809Y-125691110D01*
X132225714Y-126167300D02*
X132225714Y-125167300D01*
X132606666Y-125167300D01*
X132701904Y-125214920D01*
X132749523Y-125262539D01*
X132797142Y-125357777D01*
X132797142Y-125500634D01*
X132749523Y-125595872D01*
X132701904Y-125643491D01*
X132606666Y-125691110D01*
X132225714Y-125691110D01*
X133749523Y-126167300D02*
X133178095Y-126167300D01*
X133463809Y-126167300D02*
X133463809Y-125167300D01*
X133368571Y-125310158D01*
X133273333Y-125405396D01*
X133178095Y-125453015D01*
X134082857Y-125167300D02*
X134701904Y-125167300D01*
X134368571Y-125548253D01*
X134511428Y-125548253D01*
X134606666Y-125595872D01*
X134654285Y-125643491D01*
X134701904Y-125738729D01*
X134701904Y-125976824D01*
X134654285Y-126072062D01*
X134606666Y-126119681D01*
X134511428Y-126167300D01*
X134225714Y-126167300D01*
X134130476Y-126119681D01*
X134082857Y-126072062D01*
X72737142Y-59531300D02*
X72403809Y-59055110D01*
X72165714Y-59531300D02*
X72165714Y-58531300D01*
X72546666Y-58531300D01*
X72641904Y-58578920D01*
X72689523Y-58626539D01*
X72737142Y-58721777D01*
X72737142Y-58864634D01*
X72689523Y-58959872D01*
X72641904Y-59007491D01*
X72546666Y-59055110D01*
X72165714Y-59055110D01*
X73689523Y-59531300D02*
X73118095Y-59531300D01*
X73403809Y-59531300D02*
X73403809Y-58531300D01*
X73308571Y-58674158D01*
X73213333Y-58769396D01*
X73118095Y-58817015D01*
X74070476Y-58626539D02*
X74118095Y-58578920D01*
X74213333Y-58531300D01*
X74451428Y-58531300D01*
X74546666Y-58578920D01*
X74594285Y-58626539D01*
X74641904Y-58721777D01*
X74641904Y-58817015D01*
X74594285Y-58959872D01*
X74022857Y-59531300D01*
X74641904Y-59531300D01*
X83481342Y-66719900D02*
X83148009Y-66243710D01*
X82909914Y-66719900D02*
X82909914Y-65719900D01*
X83290866Y-65719900D01*
X83386104Y-65767520D01*
X83433723Y-65815139D01*
X83481342Y-65910377D01*
X83481342Y-66053234D01*
X83433723Y-66148472D01*
X83386104Y-66196091D01*
X83290866Y-66243710D01*
X82909914Y-66243710D01*
X84433723Y-66719900D02*
X83862295Y-66719900D01*
X84148009Y-66719900D02*
X84148009Y-65719900D01*
X84052771Y-65862758D01*
X83957533Y-65957996D01*
X83862295Y-66005615D01*
X85386104Y-66719900D02*
X84814676Y-66719900D01*
X85100390Y-66719900D02*
X85100390Y-65719900D01*
X85005152Y-65862758D01*
X84909914Y-65957996D01*
X84814676Y-66005615D01*
X157033333Y-79191300D02*
X156700000Y-78715110D01*
X156461904Y-79191300D02*
X156461904Y-78191300D01*
X156842857Y-78191300D01*
X156938095Y-78238920D01*
X156985714Y-78286539D01*
X157033333Y-78381777D01*
X157033333Y-78524634D01*
X156985714Y-78619872D01*
X156938095Y-78667491D01*
X156842857Y-78715110D01*
X156461904Y-78715110D01*
X157890476Y-78524634D02*
X157890476Y-79191300D01*
X157652380Y-78143681D02*
X157414285Y-78857967D01*
X158033333Y-78857967D01*
X159827333Y-79191300D02*
X159494000Y-78715110D01*
X159255904Y-79191300D02*
X159255904Y-78191300D01*
X159636857Y-78191300D01*
X159732095Y-78238920D01*
X159779714Y-78286539D01*
X159827333Y-78381777D01*
X159827333Y-78524634D01*
X159779714Y-78619872D01*
X159732095Y-78667491D01*
X159636857Y-78715110D01*
X159255904Y-78715110D01*
X160160666Y-78191300D02*
X160779714Y-78191300D01*
X160446380Y-78572253D01*
X160589238Y-78572253D01*
X160684476Y-78619872D01*
X160732095Y-78667491D01*
X160779714Y-78762729D01*
X160779714Y-79000824D01*
X160732095Y-79096062D01*
X160684476Y-79143681D01*
X160589238Y-79191300D01*
X160303523Y-79191300D01*
X160208285Y-79143681D01*
X160160666Y-79096062D01*
X124109761Y-57887539D02*
X124014523Y-57839920D01*
X123919285Y-57744681D01*
X123776428Y-57601824D01*
X123681190Y-57554205D01*
X123585952Y-57554205D01*
X123633571Y-57792300D02*
X123538333Y-57744681D01*
X123443095Y-57649443D01*
X123395476Y-57458967D01*
X123395476Y-57125634D01*
X123443095Y-56935158D01*
X123538333Y-56839920D01*
X123633571Y-56792300D01*
X123824047Y-56792300D01*
X123919285Y-56839920D01*
X124014523Y-56935158D01*
X124062142Y-57125634D01*
X124062142Y-57458967D01*
X124014523Y-57649443D01*
X123919285Y-57744681D01*
X123824047Y-57792300D01*
X123633571Y-57792300D01*
X124443095Y-56887539D02*
X124490714Y-56839920D01*
X124585952Y-56792300D01*
X124824047Y-56792300D01*
X124919285Y-56839920D01*
X124966904Y-56887539D01*
X125014523Y-56982777D01*
X125014523Y-57078015D01*
X124966904Y-57220872D01*
X124395476Y-57792300D01*
X125014523Y-57792300D01*
X79279161Y-56883739D02*
X79183923Y-56836120D01*
X79088685Y-56740881D01*
X78945828Y-56598024D01*
X78850590Y-56550405D01*
X78755352Y-56550405D01*
X78802971Y-56788500D02*
X78707733Y-56740881D01*
X78612495Y-56645643D01*
X78564876Y-56455167D01*
X78564876Y-56121834D01*
X78612495Y-55931358D01*
X78707733Y-55836120D01*
X78802971Y-55788500D01*
X78993447Y-55788500D01*
X79088685Y-55836120D01*
X79183923Y-55931358D01*
X79231542Y-56121834D01*
X79231542Y-56455167D01*
X79183923Y-56645643D01*
X79088685Y-56740881D01*
X78993447Y-56788500D01*
X78802971Y-56788500D01*
X80183923Y-56788500D02*
X79612495Y-56788500D01*
X79898209Y-56788500D02*
X79898209Y-55788500D01*
X79802971Y-55931358D01*
X79707733Y-56026596D01*
X79612495Y-56074215D01*
X110982380Y-52063015D02*
X109982380Y-52063015D01*
X110982380Y-51491586D02*
X110410952Y-51920158D01*
X109982380Y-51491586D02*
X110553809Y-52063015D01*
X110982380Y-50539205D02*
X110982380Y-51110634D01*
X110982380Y-50824920D02*
X109982380Y-50824920D01*
X110125238Y-50920158D01*
X110220476Y-51015396D01*
X110268095Y-51110634D01*
X170146666Y-123487300D02*
X170146666Y-124201586D01*
X170099047Y-124344443D01*
X170003809Y-124439681D01*
X169860952Y-124487300D01*
X169765714Y-124487300D01*
X170622857Y-124487300D02*
X170622857Y-123487300D01*
X171003809Y-123487300D01*
X171099047Y-123534920D01*
X171146666Y-123582539D01*
X171194285Y-123677777D01*
X171194285Y-123820634D01*
X171146666Y-123915872D01*
X171099047Y-123963491D01*
X171003809Y-124011110D01*
X170622857Y-124011110D01*
X172146666Y-124487300D02*
X171575238Y-124487300D01*
X171860952Y-124487300D02*
X171860952Y-123487300D01*
X171765714Y-123630158D01*
X171670476Y-123725396D01*
X171575238Y-123773015D01*
X146318476Y-35423300D02*
X146318476Y-36137586D01*
X146270857Y-36280443D01*
X146175619Y-36375681D01*
X146032761Y-36423300D01*
X145937523Y-36423300D01*
X147318476Y-36423300D02*
X146747047Y-36423300D01*
X147032761Y-36423300D02*
X147032761Y-35423300D01*
X146937523Y-35566158D01*
X146842285Y-35661396D01*
X146747047Y-35709015D01*
X147889904Y-35851872D02*
X147794666Y-35804253D01*
X147747047Y-35756634D01*
X147699428Y-35661396D01*
X147699428Y-35613777D01*
X147747047Y-35518539D01*
X147794666Y-35470920D01*
X147889904Y-35423300D01*
X148080380Y-35423300D01*
X148175619Y-35470920D01*
X148223238Y-35518539D01*
X148270857Y-35613777D01*
X148270857Y-35661396D01*
X148223238Y-35756634D01*
X148175619Y-35804253D01*
X148080380Y-35851872D01*
X147889904Y-35851872D01*
X147794666Y-35899491D01*
X147747047Y-35947110D01*
X147699428Y-36042348D01*
X147699428Y-36232824D01*
X147747047Y-36328062D01*
X147794666Y-36375681D01*
X147889904Y-36423300D01*
X148080380Y-36423300D01*
X148175619Y-36375681D01*
X148223238Y-36328062D01*
X148270857Y-36232824D01*
X148270857Y-36042348D01*
X148223238Y-35947110D01*
X148175619Y-35899491D01*
X148080380Y-35851872D01*
X85488380Y-88184443D02*
X86202666Y-88184443D01*
X86345523Y-88232062D01*
X86440761Y-88327300D01*
X86488380Y-88470158D01*
X86488380Y-88565396D01*
X86488380Y-87184443D02*
X86488380Y-87755872D01*
X86488380Y-87470158D02*
X85488380Y-87470158D01*
X85631238Y-87565396D01*
X85726476Y-87660634D01*
X85774095Y-87755872D01*
X85488380Y-86851110D02*
X85488380Y-86184443D01*
X86488380Y-86613015D01*
X65966476Y-118323300D02*
X65966476Y-119037586D01*
X65918857Y-119180443D01*
X65823619Y-119275681D01*
X65680761Y-119323300D01*
X65585523Y-119323300D01*
X66966476Y-119323300D02*
X66395047Y-119323300D01*
X66680761Y-119323300D02*
X66680761Y-118323300D01*
X66585523Y-118466158D01*
X66490285Y-118561396D01*
X66395047Y-118609015D01*
X67823619Y-118323300D02*
X67633142Y-118323300D01*
X67537904Y-118370920D01*
X67490285Y-118418539D01*
X67395047Y-118561396D01*
X67347428Y-118751872D01*
X67347428Y-119132824D01*
X67395047Y-119228062D01*
X67442666Y-119275681D01*
X67537904Y-119323300D01*
X67728380Y-119323300D01*
X67823619Y-119275681D01*
X67871238Y-119228062D01*
X67918857Y-119132824D01*
X67918857Y-118894729D01*
X67871238Y-118799491D01*
X67823619Y-118751872D01*
X67728380Y-118704253D01*
X67537904Y-118704253D01*
X67442666Y-118751872D01*
X67395047Y-118799491D01*
X67347428Y-118894729D01*
X140170476Y-121697300D02*
X140170476Y-122411586D01*
X140122857Y-122554443D01*
X140027619Y-122649681D01*
X139884761Y-122697300D01*
X139789523Y-122697300D01*
X141170476Y-122697300D02*
X140599047Y-122697300D01*
X140884761Y-122697300D02*
X140884761Y-121697300D01*
X140789523Y-121840158D01*
X140694285Y-121935396D01*
X140599047Y-121983015D01*
X142027619Y-122030634D02*
X142027619Y-122697300D01*
X141789523Y-121649681D02*
X141551428Y-122363967D01*
X142170476Y-122363967D01*
X59360476Y-43937300D02*
X59360476Y-44651586D01*
X59312857Y-44794443D01*
X59217619Y-44889681D01*
X59074761Y-44937300D01*
X58979523Y-44937300D01*
X60360476Y-44937300D02*
X59789047Y-44937300D01*
X60074761Y-44937300D02*
X60074761Y-43937300D01*
X59979523Y-44080158D01*
X59884285Y-44175396D01*
X59789047Y-44223015D01*
X60693809Y-43937300D02*
X61312857Y-43937300D01*
X60979523Y-44318253D01*
X61122380Y-44318253D01*
X61217619Y-44365872D01*
X61265238Y-44413491D01*
X61312857Y-44508729D01*
X61312857Y-44746824D01*
X61265238Y-44842062D01*
X61217619Y-44889681D01*
X61122380Y-44937300D01*
X60836666Y-44937300D01*
X60741428Y-44889681D01*
X60693809Y-44842062D01*
X194060476Y-125697300D02*
X194060476Y-126411586D01*
X194012857Y-126554443D01*
X193917619Y-126649681D01*
X193774761Y-126697300D01*
X193679523Y-126697300D01*
X195060476Y-126697300D02*
X194489047Y-126697300D01*
X194774761Y-126697300D02*
X194774761Y-125697300D01*
X194679523Y-125840158D01*
X194584285Y-125935396D01*
X194489047Y-125983015D01*
X195679523Y-125697300D02*
X195774761Y-125697300D01*
X195870000Y-125744920D01*
X195917619Y-125792539D01*
X195965238Y-125887777D01*
X196012857Y-126078253D01*
X196012857Y-126316348D01*
X195965238Y-126506824D01*
X195917619Y-126602062D01*
X195870000Y-126649681D01*
X195774761Y-126697300D01*
X195679523Y-126697300D01*
X195584285Y-126649681D01*
X195536666Y-126602062D01*
X195489047Y-126506824D01*
X195441428Y-126316348D01*
X195441428Y-126078253D01*
X195489047Y-125887777D01*
X195536666Y-125792539D01*
X195584285Y-125744920D01*
X195679523Y-125697300D01*
X96916666Y-34697300D02*
X96916666Y-35411586D01*
X96869047Y-35554443D01*
X96773809Y-35649681D01*
X96630952Y-35697300D01*
X96535714Y-35697300D01*
X97535714Y-35125872D02*
X97440476Y-35078253D01*
X97392857Y-35030634D01*
X97345238Y-34935396D01*
X97345238Y-34887777D01*
X97392857Y-34792539D01*
X97440476Y-34744920D01*
X97535714Y-34697300D01*
X97726190Y-34697300D01*
X97821428Y-34744920D01*
X97869047Y-34792539D01*
X97916666Y-34887777D01*
X97916666Y-34935396D01*
X97869047Y-35030634D01*
X97821428Y-35078253D01*
X97726190Y-35125872D01*
X97535714Y-35125872D01*
X97440476Y-35173491D01*
X97392857Y-35221110D01*
X97345238Y-35316348D01*
X97345238Y-35506824D01*
X97392857Y-35602062D01*
X97440476Y-35649681D01*
X97535714Y-35697300D01*
X97726190Y-35697300D01*
X97821428Y-35649681D01*
X97869047Y-35602062D01*
X97916666Y-35506824D01*
X97916666Y-35316348D01*
X97869047Y-35221110D01*
X97821428Y-35173491D01*
X97726190Y-35125872D01*
X103916666Y-34697300D02*
X103916666Y-35411586D01*
X103869047Y-35554443D01*
X103773809Y-35649681D01*
X103630952Y-35697300D01*
X103535714Y-35697300D01*
X104297619Y-34697300D02*
X104964285Y-34697300D01*
X104535714Y-35697300D01*
X80158666Y-34697300D02*
X80158666Y-35411586D01*
X80111047Y-35554443D01*
X80015809Y-35649681D01*
X79872952Y-35697300D01*
X79777714Y-35697300D01*
X81111047Y-34697300D02*
X80634857Y-34697300D01*
X80587238Y-35173491D01*
X80634857Y-35125872D01*
X80730095Y-35078253D01*
X80968190Y-35078253D01*
X81063428Y-35125872D01*
X81111047Y-35173491D01*
X81158666Y-35268729D01*
X81158666Y-35506824D01*
X81111047Y-35602062D01*
X81063428Y-35649681D01*
X80968190Y-35697300D01*
X80730095Y-35697300D01*
X80634857Y-35649681D01*
X80587238Y-35602062D01*
X186806666Y-125697300D02*
X186806666Y-126411586D01*
X186759047Y-126554443D01*
X186663809Y-126649681D01*
X186520952Y-126697300D01*
X186425714Y-126697300D01*
X187187619Y-125697300D02*
X187806666Y-125697300D01*
X187473333Y-126078253D01*
X187616190Y-126078253D01*
X187711428Y-126125872D01*
X187759047Y-126173491D01*
X187806666Y-126268729D01*
X187806666Y-126506824D01*
X187759047Y-126602062D01*
X187711428Y-126649681D01*
X187616190Y-126697300D01*
X187330476Y-126697300D01*
X187235238Y-126649681D01*
X187187619Y-126602062D01*
X110916666Y-34697300D02*
X110916666Y-35411586D01*
X110869047Y-35554443D01*
X110773809Y-35649681D01*
X110630952Y-35697300D01*
X110535714Y-35697300D01*
X111345238Y-34792539D02*
X111392857Y-34744920D01*
X111488095Y-34697300D01*
X111726190Y-34697300D01*
X111821428Y-34744920D01*
X111869047Y-34792539D01*
X111916666Y-34887777D01*
X111916666Y-34983015D01*
X111869047Y-35125872D01*
X111297619Y-35697300D01*
X111916666Y-35697300D01*
X52382380Y-124298253D02*
X53096666Y-124298253D01*
X53239523Y-124345872D01*
X53334761Y-124441110D01*
X53382380Y-124583967D01*
X53382380Y-124679205D01*
X53382380Y-123298253D02*
X53382380Y-123869681D01*
X53382380Y-123583967D02*
X52382380Y-123583967D01*
X52525238Y-123679205D01*
X52620476Y-123774443D01*
X52668095Y-123869681D01*
X150516666Y-127253491D02*
X150183333Y-127253491D01*
X150183333Y-127777300D02*
X150183333Y-126777300D01*
X150659523Y-126777300D01*
X151564285Y-127777300D02*
X150992857Y-127777300D01*
X151278571Y-127777300D02*
X151278571Y-126777300D01*
X151183333Y-126920158D01*
X151088095Y-127015396D01*
X150992857Y-127063015D01*
X131411142Y-104673862D02*
X131363523Y-104721481D01*
X131220666Y-104769100D01*
X131125428Y-104769100D01*
X130982571Y-104721481D01*
X130887333Y-104626243D01*
X130839714Y-104531005D01*
X130792095Y-104340529D01*
X130792095Y-104197672D01*
X130839714Y-104007196D01*
X130887333Y-103911958D01*
X130982571Y-103816720D01*
X131125428Y-103769100D01*
X131220666Y-103769100D01*
X131363523Y-103816720D01*
X131411142Y-103864339D01*
X132363523Y-104769100D02*
X131792095Y-104769100D01*
X132077809Y-104769100D02*
X132077809Y-103769100D01*
X131982571Y-103911958D01*
X131887333Y-104007196D01*
X131792095Y-104054815D01*
X132744476Y-103864339D02*
X132792095Y-103816720D01*
X132887333Y-103769100D01*
X133125428Y-103769100D01*
X133220666Y-103816720D01*
X133268285Y-103864339D01*
X133315904Y-103959577D01*
X133315904Y-104054815D01*
X133268285Y-104197672D01*
X132696857Y-104769100D01*
X133315904Y-104769100D01*
X137111142Y-57283777D02*
X137158761Y-57331396D01*
X137206380Y-57474253D01*
X137206380Y-57569491D01*
X137158761Y-57712348D01*
X137063523Y-57807586D01*
X136968285Y-57855205D01*
X136777809Y-57902824D01*
X136634952Y-57902824D01*
X136444476Y-57855205D01*
X136349238Y-57807586D01*
X136254000Y-57712348D01*
X136206380Y-57569491D01*
X136206380Y-57474253D01*
X136254000Y-57331396D01*
X136301619Y-57283777D01*
X137206380Y-56331396D02*
X137206380Y-56902824D01*
X137206380Y-56617110D02*
X136206380Y-56617110D01*
X136349238Y-56712348D01*
X136444476Y-56807586D01*
X136492095Y-56902824D01*
X137206380Y-55379015D02*
X137206380Y-55950443D01*
X137206380Y-55664729D02*
X136206380Y-55664729D01*
X136349238Y-55759967D01*
X136444476Y-55855205D01*
X136492095Y-55950443D01*
X76801142Y-67538062D02*
X76753523Y-67585681D01*
X76610666Y-67633300D01*
X76515428Y-67633300D01*
X76372571Y-67585681D01*
X76277333Y-67490443D01*
X76229714Y-67395205D01*
X76182095Y-67204729D01*
X76182095Y-67061872D01*
X76229714Y-66871396D01*
X76277333Y-66776158D01*
X76372571Y-66680920D01*
X76515428Y-66633300D01*
X76610666Y-66633300D01*
X76753523Y-66680920D01*
X76801142Y-66728539D01*
X77753523Y-67633300D02*
X77182095Y-67633300D01*
X77467809Y-67633300D02*
X77467809Y-66633300D01*
X77372571Y-66776158D01*
X77277333Y-66871396D01*
X77182095Y-66919015D01*
X78372571Y-66633300D02*
X78467809Y-66633300D01*
X78563047Y-66680920D01*
X78610666Y-66728539D01*
X78658285Y-66823777D01*
X78705904Y-67014253D01*
X78705904Y-67252348D01*
X78658285Y-67442824D01*
X78610666Y-67538062D01*
X78563047Y-67585681D01*
X78467809Y-67633300D01*
X78372571Y-67633300D01*
X78277333Y-67585681D01*
X78229714Y-67538062D01*
X78182095Y-67442824D01*
X78134476Y-67252348D01*
X78134476Y-67014253D01*
X78182095Y-66823777D01*
X78229714Y-66728539D01*
X78277333Y-66680920D01*
X78372571Y-66633300D01*
X126788333Y-88072062D02*
X126740714Y-88119681D01*
X126597857Y-88167300D01*
X126502619Y-88167300D01*
X126359761Y-88119681D01*
X126264523Y-88024443D01*
X126216904Y-87929205D01*
X126169285Y-87738729D01*
X126169285Y-87595872D01*
X126216904Y-87405396D01*
X126264523Y-87310158D01*
X126359761Y-87214920D01*
X126502619Y-87167300D01*
X126597857Y-87167300D01*
X126740714Y-87214920D01*
X126788333Y-87262539D01*
X127121666Y-87167300D02*
X127788333Y-87167300D01*
X127359761Y-88167300D01*
X121813333Y-86072062D02*
X121765714Y-86119681D01*
X121622857Y-86167300D01*
X121527619Y-86167300D01*
X121384761Y-86119681D01*
X121289523Y-86024443D01*
X121241904Y-85929205D01*
X121194285Y-85738729D01*
X121194285Y-85595872D01*
X121241904Y-85405396D01*
X121289523Y-85310158D01*
X121384761Y-85214920D01*
X121527619Y-85167300D01*
X121622857Y-85167300D01*
X121765714Y-85214920D01*
X121813333Y-85262539D01*
X122670476Y-85167300D02*
X122480000Y-85167300D01*
X122384761Y-85214920D01*
X122337142Y-85262539D01*
X122241904Y-85405396D01*
X122194285Y-85595872D01*
X122194285Y-85976824D01*
X122241904Y-86072062D01*
X122289523Y-86119681D01*
X122384761Y-86167300D01*
X122575238Y-86167300D01*
X122670476Y-86119681D01*
X122718095Y-86072062D01*
X122765714Y-85976824D01*
X122765714Y-85738729D01*
X122718095Y-85643491D01*
X122670476Y-85595872D01*
X122575238Y-85548253D01*
X122384761Y-85548253D01*
X122289523Y-85595872D01*
X122241904Y-85643491D01*
X122194285Y-85738729D01*
X130337933Y-77394262D02*
X130290314Y-77441881D01*
X130147457Y-77489500D01*
X130052219Y-77489500D01*
X129909361Y-77441881D01*
X129814123Y-77346643D01*
X129766504Y-77251405D01*
X129718885Y-77060929D01*
X129718885Y-76918072D01*
X129766504Y-76727596D01*
X129814123Y-76632358D01*
X129909361Y-76537120D01*
X130052219Y-76489500D01*
X130147457Y-76489500D01*
X130290314Y-76537120D01*
X130337933Y-76584739D01*
X131242695Y-76489500D02*
X130766504Y-76489500D01*
X130718885Y-76965691D01*
X130766504Y-76918072D01*
X130861742Y-76870453D01*
X131099838Y-76870453D01*
X131195076Y-76918072D01*
X131242695Y-76965691D01*
X131290314Y-77060929D01*
X131290314Y-77299024D01*
X131242695Y-77394262D01*
X131195076Y-77441881D01*
X131099838Y-77489500D01*
X130861742Y-77489500D01*
X130766504Y-77441881D01*
X130718885Y-77394262D01*
X121981333Y-89384062D02*
X121933714Y-89431681D01*
X121790857Y-89479300D01*
X121695619Y-89479300D01*
X121552761Y-89431681D01*
X121457523Y-89336443D01*
X121409904Y-89241205D01*
X121362285Y-89050729D01*
X121362285Y-88907872D01*
X121409904Y-88717396D01*
X121457523Y-88622158D01*
X121552761Y-88526920D01*
X121695619Y-88479300D01*
X121790857Y-88479300D01*
X121933714Y-88526920D01*
X121981333Y-88574539D01*
X122838476Y-88812634D02*
X122838476Y-89479300D01*
X122600380Y-88431681D02*
X122362285Y-89145967D01*
X122981333Y-89145967D01*
X85151333Y-111736062D02*
X85103714Y-111783681D01*
X84960857Y-111831300D01*
X84865619Y-111831300D01*
X84722761Y-111783681D01*
X84627523Y-111688443D01*
X84579904Y-111593205D01*
X84532285Y-111402729D01*
X84532285Y-111259872D01*
X84579904Y-111069396D01*
X84627523Y-110974158D01*
X84722761Y-110878920D01*
X84865619Y-110831300D01*
X84960857Y-110831300D01*
X85103714Y-110878920D01*
X85151333Y-110926539D01*
X85484666Y-110831300D02*
X86103714Y-110831300D01*
X85770380Y-111212253D01*
X85913238Y-111212253D01*
X86008476Y-111259872D01*
X86056095Y-111307491D01*
X86103714Y-111402729D01*
X86103714Y-111640824D01*
X86056095Y-111736062D01*
X86008476Y-111783681D01*
X85913238Y-111831300D01*
X85627523Y-111831300D01*
X85532285Y-111783681D01*
X85484666Y-111736062D01*
X83627333Y-110592062D02*
X83579714Y-110639681D01*
X83436857Y-110687300D01*
X83341619Y-110687300D01*
X83198761Y-110639681D01*
X83103523Y-110544443D01*
X83055904Y-110449205D01*
X83008285Y-110258729D01*
X83008285Y-110115872D01*
X83055904Y-109925396D01*
X83103523Y-109830158D01*
X83198761Y-109734920D01*
X83341619Y-109687300D01*
X83436857Y-109687300D01*
X83579714Y-109734920D01*
X83627333Y-109782539D01*
X84008285Y-109782539D02*
X84055904Y-109734920D01*
X84151142Y-109687300D01*
X84389238Y-109687300D01*
X84484476Y-109734920D01*
X84532095Y-109782539D01*
X84579714Y-109877777D01*
X84579714Y-109973015D01*
X84532095Y-110115872D01*
X83960666Y-110687300D01*
X84579714Y-110687300D01*
X67117333Y-115418062D02*
X67069714Y-115465681D01*
X66926857Y-115513300D01*
X66831619Y-115513300D01*
X66688761Y-115465681D01*
X66593523Y-115370443D01*
X66545904Y-115275205D01*
X66498285Y-115084729D01*
X66498285Y-114941872D01*
X66545904Y-114751396D01*
X66593523Y-114656158D01*
X66688761Y-114560920D01*
X66831619Y-114513300D01*
X66926857Y-114513300D01*
X67069714Y-114560920D01*
X67117333Y-114608539D01*
X68069714Y-115513300D02*
X67498285Y-115513300D01*
X67784000Y-115513300D02*
X67784000Y-114513300D01*
X67688761Y-114656158D01*
X67593523Y-114751396D01*
X67498285Y-114799015D01*
X165016380Y-93194095D02*
X164016380Y-93194095D01*
X164016380Y-92813142D01*
X164064000Y-92717904D01*
X164111619Y-92670285D01*
X164206857Y-92622666D01*
X164349714Y-92622666D01*
X164444952Y-92670285D01*
X164492571Y-92717904D01*
X164540190Y-92813142D01*
X164540190Y-93194095D01*
X165016380Y-91670285D02*
X165016380Y-92241714D01*
X165016380Y-91956000D02*
X164016380Y-91956000D01*
X164159238Y-92051238D01*
X164254476Y-92146476D01*
X164302095Y-92241714D01*
X155189904Y-116784380D02*
X155189904Y-115784380D01*
X155570857Y-115784380D01*
X155666095Y-115832000D01*
X155713714Y-115879619D01*
X155761333Y-115974857D01*
X155761333Y-116117714D01*
X155713714Y-116212952D01*
X155666095Y-116260571D01*
X155570857Y-116308190D01*
X155189904Y-116308190D01*
X156618476Y-116117714D02*
X156618476Y-116784380D01*
X156380380Y-115736761D02*
X156142285Y-116451047D01*
X156761333Y-116451047D01*
X109469904Y-116784380D02*
X109469904Y-115784380D01*
X109850857Y-115784380D01*
X109946095Y-115832000D01*
X109993714Y-115879619D01*
X110041333Y-115974857D01*
X110041333Y-116117714D01*
X109993714Y-116212952D01*
X109946095Y-116260571D01*
X109850857Y-116308190D01*
X109469904Y-116308190D01*
X110422285Y-115879619D02*
X110469904Y-115832000D01*
X110565142Y-115784380D01*
X110803238Y-115784380D01*
X110898476Y-115832000D01*
X110946095Y-115879619D01*
X110993714Y-115974857D01*
X110993714Y-116070095D01*
X110946095Y-116212952D01*
X110374666Y-116784380D01*
X110993714Y-116784380D01*
X132329904Y-117038380D02*
X132329904Y-116038380D01*
X132710857Y-116038380D01*
X132806095Y-116086000D01*
X132853714Y-116133619D01*
X132901333Y-116228857D01*
X132901333Y-116371714D01*
X132853714Y-116466952D01*
X132806095Y-116514571D01*
X132710857Y-116562190D01*
X132329904Y-116562190D01*
X133234666Y-116038380D02*
X133853714Y-116038380D01*
X133520380Y-116419333D01*
X133663238Y-116419333D01*
X133758476Y-116466952D01*
X133806095Y-116514571D01*
X133853714Y-116609809D01*
X133853714Y-116847904D01*
X133806095Y-116943142D01*
X133758476Y-116990761D01*
X133663238Y-117038380D01*
X133377523Y-117038380D01*
X133282285Y-116990761D01*
X133234666Y-116943142D01*
X102865904Y-74112380D02*
X102865904Y-73112380D01*
X103246857Y-73112380D01*
X103342095Y-73160000D01*
X103389714Y-73207619D01*
X103437333Y-73302857D01*
X103437333Y-73445714D01*
X103389714Y-73540952D01*
X103342095Y-73588571D01*
X103246857Y-73636190D01*
X102865904Y-73636190D01*
X104342095Y-73112380D02*
X103865904Y-73112380D01*
X103818285Y-73588571D01*
X103865904Y-73540952D01*
X103961142Y-73493333D01*
X104199238Y-73493333D01*
X104294476Y-73540952D01*
X104342095Y-73588571D01*
X104389714Y-73683809D01*
X104389714Y-73921904D01*
X104342095Y-74017142D01*
X104294476Y-74064761D01*
X104199238Y-74112380D01*
X103961142Y-74112380D01*
X103865904Y-74064761D01*
X103818285Y-74017142D01*
X127249904Y-74112380D02*
X127249904Y-73112380D01*
X127630857Y-73112380D01*
X127726095Y-73160000D01*
X127773714Y-73207619D01*
X127821333Y-73302857D01*
X127821333Y-73445714D01*
X127773714Y-73540952D01*
X127726095Y-73588571D01*
X127630857Y-73636190D01*
X127249904Y-73636190D01*
X128678476Y-73112380D02*
X128488000Y-73112380D01*
X128392761Y-73160000D01*
X128345142Y-73207619D01*
X128249904Y-73350476D01*
X128202285Y-73540952D01*
X128202285Y-73921904D01*
X128249904Y-74017142D01*
X128297523Y-74064761D01*
X128392761Y-74112380D01*
X128583238Y-74112380D01*
X128678476Y-74064761D01*
X128726095Y-74017142D01*
X128773714Y-73921904D01*
X128773714Y-73683809D01*
X128726095Y-73588571D01*
X128678476Y-73540952D01*
X128583238Y-73493333D01*
X128392761Y-73493333D01*
X128297523Y-73540952D01*
X128249904Y-73588571D01*
X128202285Y-73683809D01*
X150109904Y-74112380D02*
X150109904Y-73112380D01*
X150490857Y-73112380D01*
X150586095Y-73160000D01*
X150633714Y-73207619D01*
X150681333Y-73302857D01*
X150681333Y-73445714D01*
X150633714Y-73540952D01*
X150586095Y-73588571D01*
X150490857Y-73636190D01*
X150109904Y-73636190D01*
X151014666Y-73112380D02*
X151681333Y-73112380D01*
X151252761Y-74112380D01*
M02*
